<?xml version="1.0" standalone="no"?>
<!DOCTYPE svg PUBLIC "-//W3C//DTD SVG 1.1//EN" "http://www.w3.org/Graphics/SVG/1.1/DTD/svg11.dtd" >
<svg xmlns="http://www.w3.org/2000/svg" xmlns:xlink="http://www.w3.org/1999/xlink" version="1.1">
<metadata>
Created by FontForge 20200427 at Tue Sep  9 20:14:12 2014
 By www
Copyright (c) 2010 Typodermic Fonts. This font is not freely distributable. Kerning &#38; languages by Chikako Larabie
</metadata>
<defs>
<font id="GreatEscapeW00-Regular" horiz-adv-x="573" >
  <font-face 
    font-family="GreatEscapeW00-Regular"
    font-weight="400"
    font-variant="small-caps"
    font-stretch="normal"
    units-per-em="1000"
    panose-1="2 11 6 6 2 2 2 2 0 4"
    ascent="800"
    descent="-200"
    x-height="526"
    cap-height="710"
    bbox="-157 -240 963 950"
    underline-thickness="50"
    underline-position="-175"
    unicode-range="U+0017-FB02"
  />
<missing-glyph horiz-adv-x="725" 
d="M162 -240q-122 0 -122 106v855q0 107 122 107h400q124 0 124 -107v-855q0 -106 -124 -106h-400zM365 184q8 30 25.5 44.5t39 22.5t46.5 13.5t48.5 18t43 36t32.5 67.5l22 79q5 17 6.5 32.5t1.5 30.5q0 82 -63.5 136t-179.5 86q-41 11 -83 15.5t-85 4.5l-47 -174q7 1 13 1
h13q33 -1 65.5 -6t66.5 -14q16 -4 31.5 -10t28 -15t20.5 -21.5t8 -29.5q0 -12 -3 -25l-7 -29q-6 -24 -20.5 -36t-34 -19.5t-41.5 -14t-43.5 -19.5t-40 -37.5t-29.5 -66.5l-19 -70l172 -47zM345 57l-204 54l-48 -179l202 -55z" />
    <glyph glyph-name="copyright" unicode="&#x28;C&#x29;" horiz-adv-x="677" 
d="M620 256q0 -75 -17.5 -127t-52.5 -85t-88 -47.5t-125 -14.5q-71 0 -124 14.5t-88 47.5t-52.5 85t-17.5 127v198q0 75 17.5 127t52.5 85t88 47.5t124 14.5q72 0 125 -14.5t88 -47.5t52.5 -85t17.5 -127v-198zM550 454q0 56 -13 95t-39 63t-66.5 35t-94.5 11t-93.5 -11
t-66 -35t-39 -63t-12.5 -95v-198q0 -56 12.5 -95t39 -63.5t66 -35.5t93.5 -11t94.5 11t66.5 35.5t39 63.5t13 95v198zM439 190q-9 -5 -31 -9.5t-54 -4.5q-73 0 -107 30t-34 104v98q0 74 34 104.5t107 30.5q32 0 53.5 -5.5t30.5 -9.5v-70q-14 5 -37 10t-49 5q-35 0 -51 -15
t-16 -53v-92q0 -38 16 -53t51 -15q31 0 52 4t35 9v-68z" />
    <glyph glyph-name="registered" unicode="&#x28;R&#x29;" horiz-adv-x="677" 
d="M620 256q0 -75 -17.5 -127t-52.5 -85t-88 -47.5t-125 -14.5q-71 0 -124 14.5t-88 47.5t-52.5 85t-17.5 127v198q0 75 17.5 127t52.5 85t88 47.5t124 14.5q72 0 125 -14.5t88 -47.5t52.5 -85t17.5 -127v-198zM550 454q0 56 -13 95t-39 63t-66.5 35t-94.5 11t-93.5 -11
t-66 -35t-39 -63t-12.5 -95v-198q0 -56 12.5 -95t39 -63.5t66 -35.5t93.5 -11t94.5 11t66.5 35.5t39 63.5t13 95v198zM396 184v106q0 40 -34 40h-76v-146h-70v351h156q50 0 69 -24t19 -61v-21q0 -29 -10 -45.5t-27 -21.5q18 -4 31.5 -21t13.5 -51v-106h-72zM393 435
q0 20 -7.5 29t-26.5 9h-73v-86h75q17 0 24.5 8.5t7.5 29.5v10z" />
    <glyph glyph-name="uni2117" unicode="&#x28;P&#x29;" horiz-adv-x="677" 
d="M620 256q0 -75 -17.5 -127t-52.5 -85t-88 -47.5t-125 -14.5q-71 0 -124 14.5t-88 47.5t-52.5 85t-17.5 127v198q0 75 17.5 127t52.5 85t88 47.5t124 14.5q72 0 125 -14.5t88 -47.5t52.5 -85t17.5 -127v-198zM550 454q0 56 -13 95t-39 63t-66.5 35t-94.5 11t-93.5 -11
t-66 -35t-39 -63t-12.5 -95v-198q0 -56 12.5 -95t39 -63.5t66 -35.5t93.5 -11t94.5 11t66.5 35.5t39 63.5t13 95v198zM224 184v351h144q54 0 76 -26.5t22 -86.5q0 -59 -22 -84.5t-76 -25.5h-72v-128h-72zM363 370q17 0 25 11.5t8 39.5q0 29 -8 40.5t-25 11.5h-67v-103h67z
" />
    <glyph glyph-name=".notdef" horiz-adv-x="725" 
d="M162 -240q-122 0 -122 106v855q0 107 122 107h400q124 0 124 -107v-855q0 -106 -124 -106h-400zM365 184q8 30 25.5 44.5t39 22.5t46.5 13.5t48.5 18t43 36t32.5 67.5l22 79q5 17 6.5 32.5t1.5 30.5q0 82 -63.5 136t-179.5 86q-41 11 -83 15.5t-85 4.5l-47 -174q7 1 13 1
h13q33 -1 65.5 -6t66.5 -14q16 -4 31.5 -10t28 -15t20.5 -21.5t8 -29.5q0 -12 -3 -25l-7 -29q-6 -24 -20.5 -36t-34 -19.5t-41.5 -14t-43.5 -19.5t-40 -37.5t-29.5 -66.5l-19 -70l172 -47zM345 57l-204 54l-48 -179l202 -55z" />
    <glyph glyph-name=".null" horiz-adv-x="0" 
 />
    <glyph glyph-name="nonmarkingreturn" horiz-adv-x="333" 
 />
    <glyph glyph-name="glyph410" horiz-adv-x="0" 
 />
    <glyph glyph-name="glyph410" horiz-adv-x="0" 
 />
    <glyph glyph-name="uni0017" horiz-adv-x="253" 
 />
    <glyph glyph-name="space" unicode=" " horiz-adv-x="253" 
 />
    <glyph glyph-name="exclam" unicode="!" horiz-adv-x="248" 
d="M62 0v156h122v-156h-122zM92 214q-10 66 -17 122t-11.5 107.5t-6.5 102.5t-2 106q0 35 6 58h126q3 -12 4 -26.5t1 -31.5q0 -55 -2.5 -105.5t-7 -102.5t-11.5 -108t-16 -122h-63z" />
    <glyph glyph-name="quotedbl" unicode="&#x22;" horiz-adv-x="371" 
d="M46 443v267h92v-267h-92zM219 443v267h92v-267h-92z" />
    <glyph glyph-name="numbersign" unicode="#" horiz-adv-x="559" 
d="M383 209l-35 -209h-79l35 209h-104l-35 -209h-78l36 209h-95l8 78h100l23 135h-103l9 78h108l36 210h76l-36 -210h105l36 210h79l-36 -210h96l-11 -78h-98l-23 -135h104l-8 -78h-110zM213 287h105l23 135h-105z" />
    <glyph glyph-name="dollar" unicode="$" horiz-adv-x="530" 
d="M222 0v76q-59 1 -100 6.5t-73 15.5v99q32 -9 77.5 -16t107.5 -7q43 0 71.5 2.5t45 9t23 17t6.5 27.5v17q0 27 -11.5 37t-40.5 16q-26 5 -53 8.5t-54 6.5t-53.5 8t-50.5 13q-37 13 -58 39.5t-21 77.5v25q0 36 9.5 63t31 46t56.5 30t87 15v78h93v-77q46 -2 83 -7.5
t70 -13.5v-96q-42 11 -84 16.5t-95 5.5q-41 0 -67.5 -2.5t-42 -9.5t-21.5 -20t-6 -34v-9q0 -14 3 -23t12 -15t24.5 -10t40.5 -8q44 -7 89.5 -10t86.5 -15q48 -14 68 -43t20 -83v-32q0 -37 -13 -63t-36.5 -43t-57 -26t-74.5 -13v-79h-93z" />
    <glyph glyph-name="percent" unicode="%" horiz-adv-x="773" 
d="M311 487q0 -75 -31.5 -103t-97.5 -28t-97.5 28t-31.5 103v110q0 75 31.5 103.5t97.5 28.5t97.5 -28.5t31.5 -103.5v-110zM235 596q0 35 -13.5 47.5t-39.5 12.5q-27 0 -40.5 -12.5t-13.5 -48.5v-106q0 -36 13.5 -48.5t40.5 -12.5q26 0 39.5 12t13.5 48v108zM137 -21
l412 753h83l-413 -753h-82zM719 112q0 -75 -31.5 -103t-97.5 -28t-97.5 28t-31.5 103v110q0 75 31.5 103.5t97.5 28.5t97.5 -28.5t31.5 -103.5v-110zM643 221q0 35 -13.5 47.5t-39.5 12.5q-27 0 -40.5 -12.5t-13.5 -48.5v-106q0 -36 13.5 -48.5t40.5 -12.5q26 0 39.5 12
t13.5 48v108z" />
    <glyph glyph-name="ampersand" unicode="&#x26;" horiz-adv-x="692" 
d="M480 42q-18 -18 -40 -29.5t-49.5 -18t-62 -9.5t-79.5 -3q-51 0 -90 8t-65.5 27.5t-40.5 51.5t-14 80v52q0 60 26 97t86 57q-22 21 -38 40t-26 37t-15 36.5t-5 40.5v46q0 49 11.5 82.5t37 53.5t67 28.5t102.5 8.5q60 0 101 -8.5t65.5 -28.5t35.5 -53.5t11 -82.5v-41
q0 -42 -6 -71.5t-21.5 -51t-44 -38t-73.5 -31.5l-13 -5l125 -115q12 12 19.5 22.5t11.5 22t5.5 26t1.5 35.5v10h126v-10q0 -35 -2 -60.5t-9 -47t-21 -41t-38 -42.5l-1 -1l125 -116h-159zM189 505q0 -15 2.5 -26.5t8.5 -22.5t17 -23t28 -28l15 -14l44 15q23 8 38 17t24 20
t12.5 26t3.5 35v39q0 42 -21 58t-72 16q-28 0 -47 -4t-31 -14t-17 -27t-5 -43v-24zM263 88q27 0 45.5 1.5t32.5 6t25 12t24 20.5l-160 152l-22 -7q-21 -7 -34.5 -24.5t-13.5 -41.5v-46q0 -17 4.5 -30.5t15.5 -23t31 -14.5t52 -5z" />
    <glyph glyph-name="quotesingle" unicode="'" horiz-adv-x="185" 
d="M46 443v267h92v-267h-92z" />
    <glyph glyph-name="parenleft" unicode="(" horiz-adv-x="337" 
d="M258 -153q-92 101 -138 223t-46 252q0 124 44 240t140 217h87q-77 -109 -114 -224t-37 -235q0 -122 37.5 -241t113.5 -232h-87z" />
    <glyph glyph-name="parenright" unicode=")" horiz-adv-x="337" 
d="M-8 -153q76 113 113 232t37 241q0 119 -36 234t-114 225h87q95 -101 139.5 -217t44.5 -240q0 -130 -46.5 -252t-137.5 -223h-87z" />
    <glyph glyph-name="asterisk" unicode="*" horiz-adv-x="454" 
d="M310 345l-85 116l-84 -116l-59 43l85 117l-133 41l22 69l131 -44l-1 147h77l-2 -147l131 44l25 -68l-134 -42l85 -117z" />
    <glyph glyph-name="plus" unicode="+" horiz-adv-x="603" 
d="M257 117v208h-206v85h206v207h86v-207h207v-85h-207v-208h-86z" />
    <glyph glyph-name="comma" unicode="," horiz-adv-x="319" 
d="M102 162h125l-10 -143q-5 -75 -37 -117.5t-89 -46.5z" />
    <glyph glyph-name="hyphen" unicode="-" horiz-adv-x="327" 
d="M32 283v91h262v-91h-262z" />
    <glyph glyph-name="period" unicode="." horiz-adv-x="264" 
d="M69 0v162h126v-162h-126z" />
    <glyph glyph-name="slash" unicode="/" horiz-adv-x="329" 
d="M6 -107l217 817h99l-218 -817h-98z" />
    <glyph glyph-name="zero" unicode="0" horiz-adv-x="626" 
d="M566 245q0 -75 -15.5 -125.5t-46.5 -81t-79 -43.5t-112 -13q-65 0 -112.5 13t-79 43.5t-47 81t-15.5 125.5v219q0 75 15.5 125.5t47 81.5t79 44t112.5 13q64 0 112 -13t79 -44t46.5 -81.5t15.5 -125.5v-219zM444 462q0 42 -8 70.5t-24 46t-40.5 24.5t-58.5 7t-58.5 -7.5
t-40.5 -24.5t-24 -45.5t-8 -71.5v-215q0 -42 8 -70.5t24 -45.5t40.5 -24t58.5 -7q32 0 56.5 7t41 23.5t25 44.5t8.5 71v217z" />
    <glyph glyph-name="one" unicode="1" horiz-adv-x="318" 
d="M116 0v593h-78v117h204v-710h-126z" />
    <glyph glyph-name="two" unicode="2" horiz-adv-x="588" 
d="M59 0v194q0 39 6 67.5t20.5 49.5t38.5 36t59 28q49 17 88 26t74 20q21 6 35 12.5t21.5 15t10.5 20.5t3 29v27q0 47 -31.5 68.5t-109.5 21.5q-54 0 -99 -9t-89 -23v115q46 14 91 22t98 8q60 0 108.5 -9.5t82.5 -31.5t52 -59.5t18 -92.5v-43q0 -65 -23 -97.5t-72 -51.5
q-51 -20 -96 -29.5t-80 -20.5q-26 -9 -42 -17.5t-24.5 -19.5t-11.5 -25.5t-3 -34.5v-87h341v-109h-466z" />
    <glyph glyph-name="three" unicode="3" horiz-adv-x="575" 
d="M45 121q47 -12 94.5 -18.5t102.5 -6.5q45 0 75 6.5t49 20.5t27 36t8 54q0 50 -24.5 75.5t-81.5 25.5h-155v97h156q100 0 100 98q0 59 -34.5 82.5t-118.5 23.5q-94 0 -184 -26v111q44 14 91.5 21t94.5 7q62 0 111 -9.5t83.5 -32.5t53 -60.5t18.5 -93.5q0 -30 -5 -56.5
t-16 -47.5t-30 -36.5t-46 -22.5q61 -16 86.5 -61t25.5 -111q0 -65 -18.5 -106.5t-54 -65.5t-88 -33.5t-120.5 -9.5q-50 0 -101 6t-99 19v114z" />
    <glyph glyph-name="four" unicode="4" horiz-adv-x="590" 
d="M382 0v132h-348v111l222 467h132l-228 -471h226v272h113v-272h64v-107h-64v-132h-117z" />
    <glyph glyph-name="five" unicode="5" horiz-adv-x="586" 
d="M417 226q0 39 -5.5 64t-19 39.5t-36 20.5t-55.5 6q-44 0 -82.5 -11.5t-61.5 -35.5l-101 10l15 391h443v-110h-330l-8 -188q25 17 66 27.5t85 10.5q51 0 89.5 -9t64.5 -30.5t39.5 -58.5t13.5 -92v-59q0 -63 -17 -105t-51.5 -67.5t-86 -36t-121.5 -10.5q-65 0 -108.5 5.5
t-82.5 19.5v111q41 -11 87 -18t108 -7q46 0 76 6.5t47.5 22t24.5 41t7 63.5z" />
    <glyph glyph-name="six" unicode="6" horiz-adv-x="609" 
d="M59 454q0 75 17 127t51.5 85t87 47.5t123.5 14.5q64 0 106 -9.5t57 -16.5v-118q-21 9 -58.5 16.5t-90.5 7.5q-43 0 -75.5 -7t-54 -24.5t-32.5 -48t-11 -76.5v-64q29 26 69.5 41.5t103.5 15.5q48 0 87 -12.5t66.5 -38.5t42.5 -68t15 -100q0 -68 -13 -114.5t-42 -75.5
t-76 -41.5t-115 -12.5q-134 0 -196 65t-62 209v198zM179 259q0 -83 31 -122.5t112 -39.5q36 0 60 7t38.5 22t20.5 38.5t6 57.5q0 62 -28 88.5t-97 26.5q-54 0 -86.5 -13.5t-56.5 -38.5v-26z" />
    <glyph glyph-name="seven" unicode="7" horiz-adv-x="551" 
d="M104 0l293 599h-372v111h503v-90l-286 -620h-138z" />
    <glyph glyph-name="eight" unicode="8" horiz-adv-x="616" 
d="M435 369q78 -14 106.5 -56.5t28.5 -116.5q0 -73 -20 -115.5t-55.5 -64.5t-84 -28t-105.5 -6t-106 6t-84.5 28t-55.5 64.5t-20 115.5q0 74 29 116.5t107 56.5q-36 5 -59 19.5t-37 35.5t-19.5 49t-5.5 60q0 64 20.5 102.5t55 59t80 27t95.5 6.5t95.5 -6.5t80 -27t55 -59
t20.5 -102.5q0 -68 -25.5 -111.5t-95.5 -52.5zM447 207q0 60 -32 87t-110 27t-110 -27t-32 -87q0 -36 9.5 -58t27.5 -35t44.5 -17.5t60.5 -4.5t60.5 4.5t44.5 17.5t27.5 35t9.5 58zM442 508q0 34 -10 55.5t-28 34t-43.5 17t-55.5 4.5q-31 0 -56 -4.5t-43 -17t-28 -34
t-10 -55.5q0 -57 30.5 -80.5t106.5 -23.5t106.5 23.5t30.5 80.5z" />
    <glyph glyph-name="nine" unicode="9" horiz-adv-x="602" 
d="M422 319q-24 -25 -65.5 -41t-107.5 -16q-48 0 -86.5 11t-66 36.5t-42 67t-14.5 103.5q0 68 12.5 115t41.5 76.5t75.5 43t114.5 13.5q134 0 195.5 -68.5t61.5 -205.5v-198q0 -75 -17 -127t-51.5 -85t-87 -47.5t-123.5 -14.5q-60 0 -104 9.5t-58 15.5v119q23 -9 63 -17
t94 -8q40 0 71 7.5t52 25t31.5 47.5t10.5 75v63zM422 447q0 85 -31.5 126.5t-112.5 41.5q-69 0 -96 -30t-27 -98q0 -34 6.5 -56.5t21 -36t38 -19.5t58.5 -6q59 0 89.5 14t53.5 40v24z" />
    <glyph glyph-name="colon" unicode=":" horiz-adv-x="310" 
d="M92 0v162h124v-162h-124zM92 363v160h124v-160h-124z" />
    <glyph glyph-name="semicolon" unicode=";" horiz-adv-x="318" 
d="M102 363v160h124v-160h-124zM102 162h125l-10 -143q-5 -75 -37 -117.5t-89 -46.5z" />
    <glyph glyph-name="less" unicode="&#x3c;" horiz-adv-x="603" 
d="M51 324v85l499 216v-95l-402 -163l402 -164v-95z" />
    <glyph glyph-name="equal" unicode="=" horiz-adv-x="603" 
d="M51 429v85h499v-85h-499zM51 220v86h499v-86h-499z" />
    <glyph glyph-name="greater" unicode="&#x3e;" horiz-adv-x="603" 
d="M51 108v95l403 164l-403 163v95l499 -216v-85z" />
    <glyph glyph-name="question" unicode="?" horiz-adv-x="431" 
d="M130 227v50q0 37 11 59.5t28 36.5t36 23.5t36 21.5t28 29t11 47v33q0 54 -30 74.5t-99 20.5q-42 0 -74 -6t-60 -17v108q32 11 67 16t70 5q115 0 178.5 -41.5t63.5 -135.5v-62q0 -41 -12 -67t-30 -42t-39.5 -27t-39.5 -22t-30 -26.5t-12 -40.5v-37h-103zM119 0v158h123
v-158h-123z" />
    <glyph glyph-name="at" unicode="@" horiz-adv-x="618" 
d="M466 -153q-21 -5 -55 -10t-74 -5q-61 0 -112.5 13t-89 46.5t-59 91t-21.5 146.5v214q0 86 15 142t47 89t81.5 46t118.5 13q60 0 106.5 -12t78 -39t48 -70t16.5 -105v-354h-81l-2 39q-21 -27 -52 -38.5t-69 -11.5q-67 0 -92.5 33.5t-25.5 108.5v100q0 71 26 103.5t94 32.5
q34 0 61.5 -6.5t53.5 -28.5v25q0 78 -38 109t-124 31q-51 0 -84.5 -8.5t-53.5 -31t-28 -62t-8 -102.5v-208q0 -71 16.5 -114.5t43.5 -67.5t61 -32t69 -8q84 0 133 16v-85zM479 304q-35 36 -83 36q-38 0 -51.5 -15t-13.5 -49v-86q0 -36 12 -50.5t48 -14.5q55 0 88 53v126z
" />
    <glyph glyph-name="A" unicode="A" horiz-adv-x="610" 
d="M422 154h-237l-43 -154h-127l208 710h175l197 -710h-133zM211 252h188l-90 357z" />
    <glyph glyph-name="B" unicode="B" horiz-adv-x="627" 
d="M70 0v710h315q52 0 87 -12.5t56.5 -34.5t30.5 -52.5t9 -66.5v-39q0 -35 -6.5 -59.5t-17.5 -41t-26.5 -26.5t-34.5 -16q19 -5 36.5 -15t31.5 -26.5t22.5 -41.5t8.5 -61v-50q0 -80 -45 -124t-153 -44h-314zM455 226q0 49 -18.5 70t-62.5 21h-181v-212h181q44 0 62.5 20
t18.5 71v30zM451 519q0 44 -20 64t-59 20h-179v-194h181q77 0 77 84v26z" />
    <glyph glyph-name="C" unicode="C" horiz-adv-x="560" 
d="M512 7q-17 -8 -61.5 -16.5t-107.5 -8.5q-74 0 -128 14.5t-89.5 47.5t-53 85t-17.5 127v198q0 75 17.5 127t53 85t89.5 47.5t128 14.5q62 0 105 -9t61 -17v-120q-24 8 -68 16t-103 8q-45 0 -75 -8t-48 -26.5t-25.5 -48t-7.5 -72.5v-193q0 -42 7.5 -71.5t25.5 -48t48 -27
t75 -8.5q59 0 105 7.5t69 15.5v-119z" />
    <glyph glyph-name="D" unicode="D" horiz-adv-x="636" 
d="M70 0v710h261q58 0 104 -11.5t78 -39t49.5 -72.5t17.5 -112v-240q0 -66 -17.5 -111t-49.5 -72.5t-78 -39.5t-104 -12h-261zM454 468q0 39 -7.5 65t-23 41t-38.5 21t-54 6h-135v-493h135q32 0 55 6.5t38 21.5t22.5 41t7.5 65v226z" />
    <glyph glyph-name="E" unicode="E" horiz-adv-x="574" 
d="M70 0v710h456v-109h-330v-179h309v-102h-309v-212h336v-108h-462z" />
    <glyph glyph-name="F" unicode="F" horiz-adv-x="520" 
d="M195 298v-298h-125v710h414v-109h-289v-198h280v-105h-280z" />
    <glyph glyph-name="G" unicode="G" horiz-adv-x="610" 
d="M432 389h118v-389q-29 -9 -88 -13.5t-134 -4.5q-68 0 -119.5 14.5t-85.5 47.5t-51 85t-17 127v198q0 75 19 127t56.5 85t93 47.5t129.5 14.5q66 0 112.5 -9t65.5 -17v-117q-24 8 -69 15t-102 7q-42 0 -75 -7.5t-56.5 -25.5t-36 -48.5t-12.5 -75.5v-194q0 -88 39 -123
t112 -35q35 0 59.5 1.5t41.5 6.5v283z" />
    <glyph glyph-name="H" unicode="H" horiz-adv-x="667" 
d="M471 0v307h-275v-307h-126v710h126v-299h275v299h126v-710h-126z" />
    <glyph glyph-name="I" unicode="I" horiz-adv-x="275" 
d="M74 0v710h126v-710h-126z" />
    <glyph glyph-name="J" unicode="J" horiz-adv-x="478" 
d="M292 710h126v-454q0 -75 -15 -127t-47 -85t-82.5 -47.5t-120.5 -14.5q-54 0 -89 8.5t-49 16.5v118q21 -10 53.5 -17.5t87.5 -7.5q70 0 103 36t33 122v452z" />
    <glyph glyph-name="K" unicode="K" horiz-adv-x="626" 
d="M460 0l-266 360v-360h-124v710h124v-309l254 309h153l-278 -322l296 -388h-159z" />
    <glyph glyph-name="L" unicode="L" horiz-adv-x="482" 
d="M70 0v710h126v-602h261v-108h-387z" />
    <glyph glyph-name="M" unicode="M" horiz-adv-x="826" 
d="M643 0v584l-171 -584h-118l-172 584v-584h-114v710h195l154 -531l154 531h186v-710h-114z" />
    <glyph glyph-name="N" unicode="N" horiz-adv-x="679" 
d="M500 0l-314 529v-529h-118v710h151l272 -472v472h120v-710h-111z" />
    <glyph glyph-name="O" unicode="O" horiz-adv-x="677" 
d="M620 256q0 -75 -17 -127t-52 -85t-88 -47.5t-125 -14.5t-125 14.5t-88 47.5t-52 85t-17 127v198q0 75 17 127t52 85t88 47.5t125 14.5t125 -14.5t88 -47.5t52 -85t17 -127v-198zM497 456q0 84 -38 119.5t-121 35.5t-120 -35t-37 -119v-206q0 -83 37 -118t120 -35
q79 0 119 34t40 121v203z" />
    <glyph glyph-name="P" unicode="P" horiz-adv-x="584" 
d="M195 258v-258h-125v710h290q55 0 93 -13t62 -40t34.5 -69.5t10.5 -102.5t-10.5 -103t-34.5 -70.5t-62 -40.5t-93 -13h-165zM343 359q51 0 74 27.5t23 95.5q0 67 -23 94t-74 27h-148v-244h148z" />
    <glyph glyph-name="Q" unicode="Q" horiz-adv-x="677" 
d="M382 -128l-48 120q-71 1 -123.5 15.5t-87 46.5t-51.5 83.5t-17 126.5v190q0 75 17 127t52 85t88 47.5t125 14.5t125 -14.5t88.5 -47.5t52.5 -85t17 -127v-190q0 -111 -37.5 -172t-115.5 -84l57 -136h-142zM494 456q0 87 -39 119.5t-118 32.5q-78 0 -116.5 -32.5
t-38.5 -119.5v-198q0 -86 38.5 -118.5t116.5 -32.5q40 0 69.5 7.5t49 25t29 46.5t9.5 72v198z" />
    <glyph glyph-name="R" unicode="R" horiz-adv-x="631" 
d="M455 0v210q0 49 -19 71t-61 22h-183v-303h-122v710h320q49 0 83 -12.5t55 -34.5t30 -52.5t9 -66.5v-40q0 -38 -6 -63.5t-16.5 -41.5t-25.5 -25.5t-33 -16.5q18 -5 35 -14t30.5 -25.5t21.5 -42t8 -64.5v-211h-126zM449 495q0 54 -16.5 80.5t-68.5 26.5h-172v-198h181
q40 0 58 22.5t18 68.5z" />
    <glyph glyph-name="S" unicode="S" 
d="M408 209q0 29 -8.5 47t-35.5 29q-17 7 -41.5 11.5t-53 8.5t-59 9t-58.5 14q-57 17 -80.5 56.5t-23.5 109.5v19q0 65 15.5 106.5t49 65.5t85 33.5t123.5 9.5q45 0 87.5 -6t83.5 -20v-117q-42 13 -84.5 19.5t-92.5 6.5q-44 0 -72.5 -5t-45 -15.5t-23 -26t-6.5 -37.5v-24
q0 -20 3.5 -32.5t11.5 -21.5t22.5 -15t37.5 -12q46 -13 95 -18t90 -19q22 -8 40.5 -20t32 -31.5t20.5 -48.5t7 -71v-33q0 -58 -18 -96.5t-53.5 -61t-88 -32t-122.5 -9.5q-54 0 -100 5.5t-86 19.5v115q41 -11 87 -18t102 -7q46 0 76.5 4.5t49 15t26 28t7.5 42.5v22z" />
    <glyph glyph-name="T" unicode="T" horiz-adv-x="532" 
d="M202 0v601h-181v109h490v-109h-183v-601h-126z" />
    <glyph glyph-name="U" unicode="U" horiz-adv-x="661" 
d="M476 710h125v-469q0 -71 -12.5 -120t-43.5 -80t-83.5 -45t-131.5 -14q-80 0 -132 14t-83 45t-43.5 80t-12.5 120v469h128v-470q0 -40 6.5 -67t23 -43.5t44 -23.5t70.5 -7q40 0 68 7t45 23.5t24.5 43.5t7.5 68v469z" />
    <glyph glyph-name="V" unicode="V" horiz-adv-x="590" 
d="M212 0l-197 710h136l140 -562l153 562h130l-209 -710h-153z" />
    <glyph glyph-name="W" unicode="W" horiz-adv-x="838" 
d="M520 0l-101 509l-112 -509h-146l-144 710h132l90 -540l122 540h121l110 -540l107 540h121l-154 -710h-146z" />
    <glyph glyph-name="X" unicode="X" horiz-adv-x="607" 
d="M378 367l219 -367h-137l-156 273l-158 -273h-136l224 370l-200 340h137l137 -245l143 245h136z" />
    <glyph glyph-name="Y" unicode="Y" horiz-adv-x="590" 
d="M223 0v283l-215 427h133l148 -307l165 307h127l-233 -427v-283h-125z" />
    <glyph glyph-name="Z" unicode="Z" horiz-adv-x="541" 
d="M37 0v119l322 482h-311v109h460v-88l-335 -514h335v-108h-471z" />
    <glyph glyph-name="bracketleft" unicode="[" horiz-adv-x="352" 
d="M95 -139v908h238v-81h-134v-748h134v-79h-238z" />
    <glyph glyph-name="backslash" unicode="\" horiz-adv-x="329" 
d="M225 -107l-219 817h99l217 -817h-97z" />
    <glyph glyph-name="bracketright" unicode="]" horiz-adv-x="348" 
d="M18 -139v79h135v748h-135v81h239v-908h-239z" />
    <glyph glyph-name="asciicircum" unicode="^" horiz-adv-x="364" 
d="M243 506l-61 121l-64 -121h-84l118 204h58l119 -204h-86z" />
    <glyph glyph-name="underscore" unicode="_" horiz-adv-x="397" 
d="M5 -134v61h387v-61h-387z" />
    <glyph glyph-name="grave" unicode="`" horiz-adv-x="301" 
d="M165 580l-124 186h119l85 -186h-80z" />
    <glyph glyph-name="a" unicode="a" 
d="M413 0l-3 72q-32 -43 -83.5 -66.5t-120.5 -23.5q-50 0 -82 9.5t-50.5 27t-26 42.5t-7.5 55v87q0 36 9.5 60.5t32 40t59.5 22t92 6.5q62 0 104 -8t70 -17v38q0 28 -8 47t-26 30.5t-47 16t-71 4.5q-96 0 -166 -21v100q31 8 75.5 13t112.5 5q63 0 108.5 -8t75 -29
t43.5 -56.5t14 -90.5v-356h-105zM407 237q-25 8 -61.5 14.5t-84.5 6.5q-55 0 -81.5 -13.5t-26.5 -59.5v-39q0 -39 19 -54.5t76 -15.5t95.5 20.5t63.5 49.5v91z" />
    <glyph glyph-name="b" unicode="b" horiz-adv-x="596" 
d="M545 180q0 -51 -9.5 -88.5t-34 -61.5t-66 -36t-105.5 -12q-54 0 -94 5.5t-71 15t-54.5 21t-42.5 23.5v672h116v-262q35 38 86 60.5t111 22.5q88 0 126 -49.5t38 -157.5v-153zM429 313q0 60 -20 88.5t-73 28.5q-46 0 -84.5 -21t-67.5 -53v-243q23 -12 53 -20.5t86 -8.5
q61 0 83.5 26.5t22.5 90.5v112z" />
    <glyph glyph-name="c" unicode="c" horiz-adv-x="471" 
d="M432 2q-17 -6 -53 -13t-88 -7q-63 0 -108.5 12t-75 38.5t-43 68.5t-13.5 102v116q0 60 13.5 102t43 68.5t75 38.5t108.5 12q52 0 87 -6.5t52 -13.5v-109q-21 9 -52.5 16t-79.5 7q-37 0 -62 -6t-40.5 -20.5t-22 -38t-6.5 -58.5v-105q0 -33 6.5 -55.5t22 -36.5t40.5 -20.5
t62 -6.5q51 0 82.5 7t51.5 16v-108z" />
    <glyph glyph-name="d" unicode="d" horiz-adv-x="596" 
d="M421 0l-3 77q-30 -49 -80.5 -72t-120.5 -23q-90 0 -128 49.5t-38 157.5v153q0 52 9 89.5t29 61.5t53 35.5t80 11.5q57 0 104 -15t86 -43v237h116v-719h-107zM412 382q-27 24 -62.5 38.5t-79.5 14.5q-58 0 -80.5 -24t-22.5 -81v-132q0 -53 20.5 -80.5t73.5 -27.5
q54 0 91.5 22t59.5 58v212z" />
    <glyph glyph-name="e" unicode="e" horiz-adv-x="556" 
d="M493 2q-9 -3 -27.5 -6.5t-42.5 -6.5t-52 -5t-55 -2q-71 0 -121 12t-82 38.5t-47 68.5t-15 102v116q0 60 11 102t38 68.5t71.5 38.5t112.5 12q67 0 110.5 -12t68 -38.5t34 -68.5t9.5 -102v-103h-343v-13q0 -65 36 -94.5t123 -29.5q26 0 53.5 2t51 5t41 7t25.5 7v-98z
M402 324q0 33 -5.5 56.5t-19 38t-36 21.5t-57.5 7q-68 0 -94.5 -28.5t-26.5 -94.5v-23h239v23z" />
    <glyph glyph-name="f" unicode="f" horiz-adv-x="337" 
d="M66 0v440h-51v86h51v48q0 81 41.5 117t126.5 37q51 0 82 -11v-87q-24 9 -60 9q-38 0 -57 -16.5t-19 -58.5v-38h136v-86h-136v-440h-114z" />
    <glyph glyph-name="g" unicode="g" horiz-adv-x="586" 
d="M404 99q-35 -39 -83.5 -61.5t-108.5 -22.5q-87 0 -124 50t-37 158v119q0 51 9.5 88.5t33.5 61.5t65 36t104 12q53 0 92.5 -5.5t69.5 -15t53 -21.5t42 -24v-496q0 -59 -16 -100.5t-48.5 -67.5t-80.5 -38t-111 -12q-57 0 -98.5 7t-56.5 14v106q18 -8 55.5 -14.5t92.5 -6.5
q72 0 109.5 28t37.5 94v111zM404 412q-20 13 -49.5 20.5t-84.5 7.5q-58 0 -79.5 -25.5t-21.5 -89.5v-93q0 -60 19 -88.5t70 -28.5q45 0 82 21t64 53v223z" />
    <glyph glyph-name="h" unicode="h" horiz-adv-x="609" 
d="M429 0v361q0 39 -21.5 56t-65.5 17q-52 0 -90 -17.5t-68 -52.5v-364h-116v719h116v-257q38 38 88.5 58t115.5 20q81 0 119 -35t38 -108v-397h-116z" />
    <glyph glyph-name="i" unicode="i" horiz-adv-x="257" 
d="M70 0v526h116v-526h-116zM70 590v129h116v-129h-116z" />
    <glyph glyph-name="j" unicode="j" horiz-adv-x="271" 
d="M89 526h113v-547q0 -52 -10 -93t-34 -69t-63 -42.5t-97 -14.5q-35 0 -62.5 6.5t-49.5 17.5v104q20 -9 43.5 -15t55.5 -6q54 0 79 28.5t25 87.5v543zM89 590v129h113v-129h-113z" />
    <glyph glyph-name="k" unicode="k" horiz-adv-x="550" 
d="M395 0l-211 256v-256h-116v719h116v-424l201 231h146l-230 -246l243 -280h-149z" />
    <glyph glyph-name="l" unicode="l" horiz-adv-x="253" 
d="M68 0v719h116v-719h-116z" />
    <glyph glyph-name="m" unicode="m" horiz-adv-x="905" 
d="M728 0v362q0 38 -20 54t-60 16q-46 0 -80 -14.5t-63 -49.5v-368h-112v363q0 37 -20 53t-59 16q-43 0 -75 -17t-59 -52v-363h-114v526h104l3 -79q31 45 74.5 69t112.5 24q107 0 134 -87q32 45 80 66t121 21q146 0 146 -143v-397h-113z" />
    <glyph glyph-name="n" unicode="n" horiz-adv-x="607" 
d="M427 0v361q0 38 -21.5 54.5t-65.5 16.5q-52 0 -90 -17t-68 -52v-363h-116v526h107l3 -79q32 45 82 69t128 24q81 0 119 -35t38 -108v-397h-116z" />
    <glyph glyph-name="o" unicode="o" horiz-adv-x="579" 
d="M528 188q0 -56 -14.5 -95.5t-44 -64t-74.5 -35.5t-106 -11q-60 0 -105 11t-74.5 35.5t-44 64t-14.5 95.5v146q0 112 58.5 159t179.5 47t180 -47t59 -159v-146zM415 330q0 58 -32 83t-94 25q-65 0 -94.5 -26.5t-29.5 -81.5v-138q0 -58 31.5 -83.5t92.5 -25.5q62 0 94 25.5
t32 83.5v138z" />
    <glyph glyph-name="p" unicode="p" horiz-adv-x="594" 
d="M66 -228v754h107l3 -80q30 48 81 71t120 23q90 0 128 -48.5t38 -156.5v-153q0 -52 -9 -89.5t-29.5 -62t-53 -36.5t-79.5 -12q-57 0 -104 16t-86 45v-271h-116zM427 323q0 54 -20 82t-74 28t-91 -21.5t-60 -57.5v-214q27 -24 62.5 -38.5t79.5 -14.5q59 0 81 24.5t22 81.5
v130z" />
    <glyph glyph-name="q" unicode="q" horiz-adv-x="594" 
d="M412 -228v293q-36 -38 -86.5 -60.5t-110.5 -22.5q-89 0 -126.5 49.5t-37.5 157.5v153q0 51 9.5 88.5t34 61.5t66 36t105.5 12q54 0 94 -5.5t71 -15t54 -21.5t43 -24v-702h-116zM412 411q-19 11 -49 18.5t-90 7.5t-83 -25.5t-23 -80.5v-132q0 -53 20 -80.5t73 -27.5
q45 0 84.5 21t67.5 53v246z" />
    <glyph glyph-name="r" unicode="r" horiz-adv-x="404" 
d="M66 0v526h108l3 -78q34 48 80.5 69t121.5 23v-111h-15q-54 0 -99 -14t-83 -56v-359h-116z" />
    <glyph glyph-name="s" unicode="s" horiz-adv-x="530" 
d="M380 153q0 27 -11.5 37t-40.5 16q-26 5 -53 8.5t-54 6.5t-53.5 8t-50.5 13q-37 13 -58 39.5t-21 77.5v25q0 41 12.5 70.5t41.5 48.5t77.5 28t119.5 9q56 0 98.5 -6t80.5 -16v-96q-42 11 -84 16.5t-95 5.5q-41 0 -67.5 -2.5t-42 -9.5t-21.5 -20t-6 -34v-9q0 -14 3 -23
t12 -15t24.5 -10t40.5 -8q44 -7 89.5 -10t86.5 -15q48 -14 68 -43t20 -83v-32q0 -45 -19 -74t-53.5 -45.5t-82.5 -22.5t-106 -6q-64 0 -107.5 6t-78.5 16v99q32 -9 77.5 -16t107.5 -7q43 0 71.5 2.5t45 9t23 17t6.5 27.5v17z" />
    <glyph glyph-name="t" unicode="t" horiz-adv-x="341" 
d="M320 -7q-17 -6 -38 -8.5t-55 -2.5q-76 0 -116.5 36.5t-40.5 117.5v304h-55v86h55v129h114v-129h136v-86h-136v-295q0 -37 16.5 -53t58.5 -16q38 0 61 8v-91z" />
    <glyph glyph-name="u" unicode="u" horiz-adv-x="580" 
d="M412 526h113v-364q0 -96 -60 -138t-174 -42q-113 0 -174.5 42t-61.5 138v364h115v-357q0 -48 28.5 -65t92.5 -17q65 0 93 17.5t28 64.5v357z" />
    <glyph glyph-name="v" unicode="v" horiz-adv-x="571" 
d="M205 0l-190 526h128l139 -421l151 421h123l-201 -526h-150z" />
    <glyph glyph-name="w" unicode="w" horiz-adv-x="850" 
d="M524 0l-101 383l-111 -383h-152l-143 526h129l97 -414l121 414h121l113 -414l110 414h125l-153 -526h-156z" />
    <glyph glyph-name="x" unicode="x" horiz-adv-x="580" 
d="M432 0l-139 195l-143 -195h-138l214 275l-191 251h140l122 -174l125 174h137l-195 -251l204 -275h-136z" />
    <glyph glyph-name="y" unicode="y" horiz-adv-x="595" 
d="M143 -228l88 214l-216 540h131l148 -407l161 407h125l-310 -754h-127z" />
    <glyph glyph-name="z" unicode="z" horiz-adv-x="523" 
d="M37 0v99l295 332h-278v95h429v-82l-298 -346h305v-98h-453z" />
    <glyph glyph-name="braceleft" unicode="{" horiz-adv-x="364" 
d="M298 -140q-56 0 -90 9.5t-52.5 29.5t-24.5 49.5t-6 70.5q0 35 4.5 77t4.5 92q0 45 -20 66.5t-68 21.5v78q48 0 68 22.5t20 67.5q0 46 -4.5 89t-4.5 78q0 40 6 69.5t24.5 49.5t52.5 30t90 10h37v-75h-30q-24 0 -39.5 -3t-24 -12t-12 -24t-3.5 -39q0 -50 3.5 -96.5
t3.5 -97.5q0 -52 -29.5 -77t-76.5 -30q47 -5 76.5 -32.5t29.5 -75.5q0 -57 -3.5 -102t-3.5 -92q0 -24 3.5 -39.5t12 -24.5t24 -12.5t39.5 -3.5h30v-74h-37z" />
    <glyph glyph-name="bar" unicode="|" horiz-adv-x="264" 
d="M85 -134v922h93v-922h-93z" />
    <glyph glyph-name="braceright" unicode="}" horiz-adv-x="366" 
d="M28 -140v74h30q24 0 39.5 3.5t24.5 12.5t12.5 24.5t3.5 39.5q0 47 -3.5 92t-3.5 102q0 48 29 75.5t76 32.5q-47 5 -76 30t-29 77q0 51 3.5 97.5t3.5 96.5q0 24 -3.5 39t-12.5 24t-24.5 12t-39.5 3h-30v75h36q56 0 90.5 -10t53 -30t24.5 -49.5t6 -69.5q0 -35 -4.5 -78
t-4.5 -89q0 -45 20 -67.5t68 -22.5v-78q-48 0 -68 -21.5t-20 -66.5q0 -50 4.5 -92t4.5 -77q0 -41 -6 -70.5t-24.5 -49.5t-53 -29.5t-90.5 -9.5h-36z" />
    <glyph glyph-name="asciitilde" unicode="~" horiz-adv-x="634" 
d="M51 345q55 66 143 66q39 0 70 -10.5t59 -23.5t55.5 -23.5t60.5 -10.5q41 0 75 16.5t67 59.5v-95q-32 -36 -68.5 -50.5t-81.5 -14.5q-36 0 -65.5 10.5t-57 23t-55.5 23t-61 10.5q-41 0 -74 -17t-67 -59v95z" />
    <glyph glyph-name="uni00A0" unicode="&#xa0;" horiz-adv-x="253" 
 />
    <glyph glyph-name="exclamdown" unicode="&#xa1;" horiz-adv-x="248" 
d="M185.004 710v-155.99h-121.992v155.99h121.992zM155.006 496.013q9.99902 -65.9951 16.999 -121.992q6.99902 -55.9971 11.499 -107.493q4.5 -51.4971 6.5 -102.494q1.99902 -50.9971 1.99902 -105.993q0 -34.998 -5.99902 -57.9971h-125.992q-3 12 -4 26.499t-1 31.498
q0 54.9961 2.5 105.493t6.99902 102.494q4.5 51.9961 11.5 107.993q6.99902 55.9971 15.999 121.992h62.9961z" />
    <glyph glyph-name="cent" unicode="&#xa2;" horiz-adv-x="471" 
d="M334 633q35 -2 59 -7.5t37 -10.5v-109q-21 9 -52.5 16t-79.5 7q-37 0 -62 -6t-40.5 -20.5t-22 -38t-6.5 -58.5v-105q0 -33 6.5 -55.5t22 -37t40.5 -20.5t62 -6q51 0 82.5 7t51.5 16v-108q-13 -5 -38 -10.5t-60 -7.5v-79h-93v79q-101 9 -145.5 60.5t-44.5 158.5v116
q0 54 11 93t34 65t59 40.5t86 19.5v78h93v-77z" />
    <glyph glyph-name="sterling" unicode="&#xa3;" horiz-adv-x="548" 
d="M274 270q4 -15 6.5 -32t2.5 -37t-3 -43t-13 -44q26 -19 60 -28.5t69 -9.5q30 0 61 7.5t56 29.5v-94q-26 -21 -61 -29t-67 -8q-43 0 -85 14.5t-73 40.5q-22 -27 -48.5 -41t-64.5 -14q-20 0 -39 3.5t-36 14.5v93q12 -5 24.5 -6.5t26.5 -1.5q30 0 47.5 11t27.5 28.5t13 38.5
t3 41t-3.5 36t-9.5 30h-128v76h87q-15 18 -28.5 36.5t-24.5 40.5t-17.5 48.5t-6.5 59.5q0 60 22.5 98.5t59.5 60.5t84 30t95 8q53 0 94.5 -8t72.5 -20v-117q-35 11 -76 20.5t-88 9.5q-69 0 -108 -25t-39 -84q0 -25 7.5 -45t19 -38t25 -36t26.5 -39h222v-76h-193z" />
    <glyph glyph-name="currency" unicode="&#xa4;" horiz-adv-x="589" 
d="M482 112l-67 70q-54 -37 -121 -37q-68 0 -120 37q-17 -17 -33.5 -35t-33.5 -35q-16 15 -30.5 30.5t-30.5 31.5l70 65q-18 27 -28 57t-10 65q0 34 10 64.5t28 56.5l-69 65l61 61l64 -69q26 18 57 28.5t65 10.5t65 -10.5t57 -28.5l65 69l60 -61q-17 -17 -34 -32.5
t-34 -32.5q18 -26 28.5 -56.5t10.5 -64.5q0 -35 -10.5 -65.5t-28.5 -56.5l69 -65zM446 361q0 32 -12 59.5t-32.5 48t-48 32.5t-59.5 12t-59 -12t-47.5 -32.5t-32 -48t-11.5 -59.5t11.5 -59.5t32 -47.5t47.5 -32t59 -12t59.5 12t48 32t32.5 47.5t12 59.5z" />
    <glyph glyph-name="yen" unicode="&#xa5;" horiz-adv-x="596" 
d="M353 89v-89h-126v89h-138v76h138v68h-138v73h129l-207 404h134l148 -309l163 309h128l-222 -404h127v-73h-136v-68h136v-76h-136z" />
    <glyph glyph-name="brokenbar" unicode="&#xa6;" horiz-adv-x="396" 
d="M150 -134v398h93v-398h-93zM150 425v363h93v-363h-93z" />
    <glyph glyph-name="section" unicode="&#xa7;" horiz-adv-x="498" 
d="M450 304q0 -43 -17 -70t-41 -42q21 -14 36 -39t15 -64v-31q0 -48 -14.5 -79.5t-42 -49.5t-69 -25.5t-95.5 -7.5q-48 0 -83.5 5.5t-66.5 16.5v98q35 -11 70.5 -16.5t80.5 -5.5q69 0 95 14.5t26 54.5v10q0 32 -21.5 45.5t-54.5 19.5t-72 10t-73 17q-42 16 -56 48.5
t-14 79.5v22q0 47 18 75t44 43q-24 17 -39.5 40t-15.5 63v26q0 49 14 81.5t41 51t67 26t93 7.5q47 0 82.5 -6t66.5 -17v-98q-36 11 -71.5 16.5t-80.5 5.5q-66 0 -90 -15.5t-24 -53.5v-10q0 -33 15 -44.5t51 -16.5q64 -10 107.5 -18.5t70 -24.5t37.5 -44.5t11 -77.5v-20z
M148 301q0 -23 8.5 -36.5t23.5 -20.5t35 -9t43 -2q58 0 77.5 18t19.5 55v16q0 42 -28.5 54.5t-79.5 12.5q-59 0 -79 -18.5t-20 -52.5v-17z" />
    <glyph glyph-name="dieresis" unicode="&#xa8;" horiz-adv-x="473" 
d="M70 590v129h116v-129h-116zM301 590v129h116v-129h-116z" />
    <glyph glyph-name="ordfeminine" unicode="&#xaa;" horiz-adv-x="317" 
d="M214 390l-2 30q-17 -20 -42.5 -29.5t-54.5 -9.5q-48 0 -65 18t-17 49v43q0 36 21 50.5t77 14.5q28 0 46 -3t31 -6v14q0 24 -15 31.5t-53 7.5q-22 0 -42.5 -2t-39.5 -8v61q15 4 38.5 6.5t57.5 2.5q61 0 91.5 -18.5t30.5 -73.5v-178h-62zM208 504q-11 3 -25.5 5t-32.5 2
q-23 0 -35 -5.5t-12 -25.5v-13q0 -17 8 -23.5t31 -6.5q21 0 37.5 7t28.5 19v41z" />
    <glyph glyph-name="guillemotleft" unicode="&#xab;" horiz-adv-x="462" 
d="M30 292v89l170 151v-96l-115 -99l115 -100v-96zM261 292v89l170 151v-96l-115 -99l115 -100v-96z" />
    <glyph glyph-name="logicalnot" unicode="&#xac;" horiz-adv-x="657" 
d="M496 0v419h-458v107h564v-526h-106z" />
    <glyph glyph-name="macron" unicode="&#xaf;" horiz-adv-x="448" 
d="M53 592v81h339v-81h-339z" />
    <glyph glyph-name="degree" unicode="&#xb0;" horiz-adv-x="402" 
d="M200 380q-42 0 -72 13.5t-48.5 36.5t-27.5 54t-9 66q0 36 9 66.5t27.5 53.5t48.5 36t72 13t72 -13t49 -36t28 -53.5t9 -66.5q0 -35 -9 -66t-28 -54t-49 -36.5t-72 -13.5zM200 445q48 0 68 31t20 74q0 44 -20 74.5t-68 30.5t-68 -30.5t-20 -74.5q0 -43 20 -74t68 -31z" />
    <glyph glyph-name="plusminus" unicode="&#xb1;" horiz-adv-x="603" 
d="M257 117v208h-206v85h206v207h86v-207h207v-85h-207v-208h-86zM52 -9v85h499v-85h-499z" />
    <glyph glyph-name="uni00B2" unicode="&#xb2;" horiz-adv-x="325" 
d="M43 365v100q0 35 12.5 54.5t31 30.5t40 16t40 10t31 13.5t12.5 25.5v7q0 20 -13 28.5t-46 8.5q-26 0 -49 -3.5t-46 -10.5v69q23 7 46.5 11t48.5 4q29 0 53.5 -4t42.5 -15.5t28 -31t10 -49.5v-22q0 -29 -12 -45.5t-30.5 -26t-40 -14.5t-40 -11t-30.5 -15.5t-12 -27.5v-35
h160v-67h-237z" />
    <glyph glyph-name="uni00B3" unicode="&#xb3;" horiz-adv-x="318" 
d="M36 437q23 -5 47 -8t52 -3q37 0 52.5 10t15.5 39q0 21 -10.5 31t-36.5 10h-72v58h72q23 0 34.5 9.5t11.5 32.5q0 26 -14.5 35t-51.5 9q-25 0 -47.5 -3.5t-45.5 -9.5v68q45 14 95 14q28 0 52.5 -4t43 -15t29 -30.5t10.5 -49.5q0 -28 -10 -50t-38 -30q31 -9 43 -31t12 -54
q0 -35 -10.5 -56.5t-29.5 -33t-45 -15.5t-57 -4q-26 0 -52 3t-50 9v69z" />
    <glyph glyph-name="acute" unicode="&#xb4;" horiz-adv-x="301" 
d="M41 580l86 186h118l-124 -186h-80z" />
    <glyph glyph-name="mu" unicode="&#xb5;" horiz-adv-x="595" 
d="M428 526h114v-344q0 -52 -8 -89.5t-27.5 -62t-51.5 -36.5t-79 -12q-57 0 -104 16t-86 44v-270h-116v754h116v-386q27 -24 62.5 -38.5t78.5 -14.5q59 0 80 27.5t21 89.5v322z" />
    <glyph glyph-name="paragraph" unicode="&#xb6;" horiz-adv-x="566" 
d="M409 -166v792h-144v-792h-88v589h-11q-60 0 -88 39.5t-28 106.5t30 104t92 37h370v-84h-46v-792h-87z" />
    <glyph glyph-name="periodcentered" unicode="&#xb7;" horiz-adv-x="264" 
d="M69 270v162h126v-162h-126z" />
    <glyph glyph-name="cedilla" unicode="&#xb8;" horiz-adv-x="238" 
d="M72 -36h112l-7 -79q-10 -119 -114 -125z" />
    <glyph glyph-name="uni00B9" unicode="&#xb9;" horiz-adv-x="197" 
d="M68 365v283h-36v72h114v-355h-78z" />
    <glyph glyph-name="ordmasculine" unicode="&#xba;" horiz-adv-x="320" 
d="M281 484q0 -57 -29.5 -80t-91.5 -23t-91.5 23t-29.5 80v73q0 57 29.5 80t91.5 23t91.5 -23t29.5 -80v-73zM212 553q0 44 -52 44q-51 0 -51 -44v-65q0 -45 51 -45q52 0 52 45v65z" />
    <glyph glyph-name="guillemotright" unicode="&#xbb;" horiz-adv-x="462" 
d="M30 237l115 100l-115 99v96l170 -151v-90l-170 -150v96zM261 237l115 100l-115 99v96l170 -151v-90l-170 -150v96z" />
    <glyph glyph-name="onequarter" unicode="&#xbc;" horiz-adv-x="680" 
d="M104 365v283h-36v72h114v-355h-78zM56 -21l412 753h83l-413 -753h-82zM526 -10v64h-169v67l100 224h78l-103 -230h97v130h68v-130h29v-61h-29v-64h-71z" />
    <glyph glyph-name="onehalf" unicode="&#xbd;" horiz-adv-x="686" 
d="M104 365v283h-36v72h114v-355h-78zM56 -21l412 753h83l-413 -753h-82zM390 -10v100q0 35 12.5 54.5t31 30.5t40 16t40 10t31 13.5t12.5 25.5v7q0 20 -13 28.5t-46 8.5q-26 0 -49 -3.5t-46 -10.5v69q23 7 46.5 11t48.5 4q29 0 53.5 -4t42.5 -15.5t28 -31t10 -49.5v-22
q0 -29 -12 -45.5t-30.5 -26t-40 -14.5t-40 -11t-30.5 -15.5t-12 -27.5v-35h160v-67h-237z" />
    <glyph glyph-name="threequarters" unicode="&#xbe;" horiz-adv-x="712" 
d="M53 437q23 -5 47 -8t52 -3q37 0 52.5 10t15.5 39q0 21 -10.5 31t-36.5 10h-72v58h72q23 0 34.5 9.5t11.5 32.5q0 26 -14.5 35t-51.5 9q-25 0 -47.5 -3.5t-45.5 -9.5v68q45 14 95 14q28 0 52.5 -4t43 -15t29 -30.5t10.5 -49.5q0 -28 -10 -50t-38 -30q31 -9 43 -31t12 -54
q0 -35 -10.5 -56.5t-29.5 -33t-45 -15.5t-57 -4q-26 0 -52 3t-50 9v69zM108 -21l412 753h83l-413 -753h-82zM558 -10v64h-169v67l100 224h78l-103 -230h97v130h68v-130h29v-61h-29v-64h-71z" />
    <glyph glyph-name="questiondown" unicode="&#xbf;" horiz-adv-x="431" 
d="M298.008 483.014v-49.9971q0 -36.9971 -10.999 -59.4961t-27.998 -36.498t-35.998 -23.498q-18.999 -9.5 -35.998 -21.499t-27.998 -28.998t-10.999 -46.9971v-32.998q0 -53.9971 29.998 -74.4951q29.998 -20.499 98.9932 -20.499q41.998 0 73.9961 5.99902
q31.998 6 59.9961 16.999v-107.993q-31.998 -10.999 -66.9961 -15.999q-34.998 -4.99902 -69.9951 -4.99902q-114.993 0 -178.489 41.4971t-63.4961 135.491v61.9971q0 40.9971 11.999 66.9951q11.999 25.999 29.998 41.998t39.498 26.998q21.498 10.999 39.4971 21.999
q17.999 10.999 29.998 26.498q12 15.499 12 40.4971v36.998h102.993zM309.007 710v-157.99h-122.992v157.99h122.992z" />
    <glyph glyph-name="Agrave" unicode="&#xc0;" horiz-adv-x="610" 
d="M422 154h-237l-43 -154h-127l208 710h175l197 -710h-133zM211 252h188l-90 357zM297 764l-124 186h119l85 -186h-80z" />
    <glyph glyph-name="Aacute" unicode="&#xc1;" horiz-adv-x="610" 
d="M422 154h-237l-43 -154h-127l208 710h175l197 -710h-133zM211 252h188l-90 357zM233 764l86 186h118l-124 -186h-80z" />
    <glyph glyph-name="Acircumflex" unicode="&#xc2;" horiz-adv-x="610" 
d="M422 154h-237l-43 -154h-127l208 710h175l197 -710h-133zM211 252h188l-90 357zM410 763l-100 121l-100 -121h-96l151 176h90l150 -176h-95z" />
    <glyph glyph-name="Atilde" unicode="&#xc3;" horiz-adv-x="610" 
d="M422 154h-237l-43 -154h-127l208 710h175l197 -710h-133zM211 252h188l-90 357zM484 809q-14 -18 -36.5 -31.5t-54.5 -13.5q-26 0 -47 7.5t-40.5 17t-38 17t-37.5 7.5q-29 0 -51 -12.5t-42 -38.5v78q14 18 36 32t54 14q25 0 46 -7.5t40.5 -17t38.5 -17t40 -7.5
q28 0 50 12.5t42 38.5v-79z" />
    <glyph glyph-name="Adieresis" unicode="&#xc4;" horiz-adv-x="610" 
d="M422 154h-237l-43 -154h-127l208 710h175l197 -710h-133zM211 252h188l-90 357zM135 774v129h116v-129h-116zM366 774v129h116v-129h-116z" />
    <glyph glyph-name="Aring" unicode="&#xc5;" horiz-adv-x="610" 
d="M422 154h-237l-43 -154h-127l208 710h175l197 -710h-133zM211 252h188l-90 357zM419 847q0 -51 -25 -76.5t-85 -25.5q-110 0 -110 102q0 50 27 76.5t83 26.5q60 0 85 -26.5t25 -76.5zM369 847q0 29 -14 44t-46 15q-58 0 -58 -59q0 -57 58 -57q32 0 46 14t14 43z" />
    <glyph glyph-name="AE" unicode="&#xc6;" horiz-adv-x="863" 
d="M183 154l-45 -154h-123q52 179 103.5 355t102.5 355h595v-109h-294v-179h272v-102h-272v-212h300v-108h-426v154h-213zM396 601h-86l-100 -349h186v349z" />
    <glyph glyph-name="Ccedilla" unicode="&#xc7;" horiz-adv-x="560" 
d="M512 7q-17 -8 -61.5 -16.5t-107.5 -8.5q-74 0 -128 14.5t-89.5 47.5t-53 85t-17.5 127v198q0 75 17.5 127t53 85t89.5 47.5t128 14.5q62 0 105 -9t61 -17v-120q-24 8 -68 16t-103 8q-45 0 -75 -8t-48 -26.5t-25.5 -48t-7.5 -72.5v-193q0 -42 7.5 -71.5t25.5 -48t48 -27
t75 -8.5q59 0 105 7.5t69 15.5v-119zM268 -36h112l-7 -79q-10 -119 -114 -125z" />
    <glyph glyph-name="Egrave" unicode="&#xc8;" horiz-adv-x="574" 
d="M70 0v710h456v-109h-330v-179h309v-102h-309v-212h336v-108h-462zM279 764l-124 186h119l85 -186h-80z" />
    <glyph glyph-name="Eacute" unicode="&#xc9;" horiz-adv-x="574" 
d="M70 0v710h456v-109h-330v-179h309v-102h-309v-212h336v-108h-462zM215 764l86 186h118l-124 -186h-80z" />
    <glyph glyph-name="Ecircumflex" unicode="&#xca;" horiz-adv-x="574" 
d="M70 0v710h456v-109h-330v-179h309v-102h-309v-212h336v-108h-462zM402 763l-100 121l-100 -121h-96l151 176h90l150 -176h-95z" />
    <glyph glyph-name="Edieresis" unicode="&#xcb;" horiz-adv-x="574" 
d="M70 0v710h456v-109h-330v-179h309v-102h-309v-212h336v-108h-462zM127 774v129h116v-129h-116zM358 774v129h116v-129h-116z" />
    <glyph glyph-name="Igrave" unicode="&#xcc;" horiz-adv-x="275" 
d="M74 0v710h126v-710h-126zM117 764l-124 186h119l85 -186h-80z" />
    <glyph glyph-name="Iacute" unicode="&#xcd;" horiz-adv-x="275" 
d="M74 0v710h126v-710h-126zM82 764l86 186h118l-124 -186h-80z" />
    <glyph glyph-name="Icircumflex" unicode="&#xce;" horiz-adv-x="284" 
d="M82 0v710h126v-710h-126zM247 763l-100 121l-100 -121h-96l151 176h90l150 -176h-95z" />
    <glyph glyph-name="Idieresis" unicode="&#xcf;" horiz-adv-x="284" 
d="M78 0v710h126v-710h-126zM-31 774v129h116v-129h-116zM200 774v129h116v-129h-116z" />
    <glyph glyph-name="Eth" unicode="&#xd0;" horiz-adv-x="635" 
d="M68 0v320h-50v102h50v288h262q57 0 103.5 -11.5t78.5 -39t49.5 -72.5t17.5 -112v-240q0 -66 -17.5 -111t-49.5 -72.5t-78.5 -39.5t-103.5 -12h-262zM453 471q0 38 -7.5 63t-23 40t-38.5 21t-54 6h-136v-179h149v-102h-149v-212h136q30 0 53 6t38.5 21t23.5 40.5t8 63.5
v232z" />
    <glyph glyph-name="Ntilde" unicode="&#xd1;" horiz-adv-x="679" 
d="M500 0l-314 529v-529h-118v710h151l272 -472v472h120v-710h-111zM513 809q-14 -18 -36.5 -31.5t-54.5 -13.5q-26 0 -47 7.5t-40.5 17t-38 17t-37.5 7.5q-29 0 -51 -12.5t-42 -38.5v78q14 18 36 32t54 14q25 0 46 -7.5t40.5 -17t38.5 -17t40 -7.5q28 0 50 12.5t42 38.5
v-79z" />
    <glyph glyph-name="Ograve" unicode="&#xd2;" horiz-adv-x="677" 
d="M620 256q0 -75 -17 -127t-52 -85t-88 -47.5t-125 -14.5t-125 14.5t-88 47.5t-52 85t-17 127v198q0 75 17 127t52 85t88 47.5t125 14.5t125 -14.5t88 -47.5t52 -85t17 -127v-198zM497 456q0 84 -38 119.5t-121 35.5t-120 -35t-37 -119v-206q0 -83 37 -118t120 -35
q79 0 119 34t40 121v203zM330 764l-124 186h119l85 -186h-80z" />
    <glyph glyph-name="Oacute" unicode="&#xd3;" horiz-adv-x="677" 
d="M620 256q0 -75 -17 -127t-52 -85t-88 -47.5t-125 -14.5t-125 14.5t-88 47.5t-52 85t-17 127v198q0 75 17 127t52 85t88 47.5t125 14.5t125 -14.5t88 -47.5t52 -85t17 -127v-198zM497 456q0 84 -38 119.5t-121 35.5t-120 -35t-37 -119v-206q0 -83 37 -118t120 -35
q79 0 119 34t40 121v203zM266 764l86 186h118l-124 -186h-80z" />
    <glyph glyph-name="Ocircumflex" unicode="&#xd4;" horiz-adv-x="677" 
d="M620 256q0 -75 -17 -127t-52 -85t-88 -47.5t-125 -14.5t-125 14.5t-88 47.5t-52 85t-17 127v198q0 75 17 127t52 85t88 47.5t125 14.5t125 -14.5t88 -47.5t52 -85t17 -127v-198zM497 456q0 84 -38 119.5t-121 35.5t-120 -35t-37 -119v-206q0 -83 37 -118t120 -35
q79 0 119 34t40 121v203zM439 763l-100 121l-100 -121h-96l151 176h90l150 -176h-95z" />
    <glyph glyph-name="Otilde" unicode="&#xd5;" horiz-adv-x="677" 
d="M620 256q0 -75 -17 -127t-52 -85t-88 -47.5t-125 -14.5t-125 14.5t-88 47.5t-52 85t-17 127v198q0 75 17 127t52 85t88 47.5t125 14.5t125 -14.5t88 -47.5t52 -85t17 -127v-198zM497 456q0 84 -38 119.5t-121 35.5t-120 -35t-37 -119v-206q0 -83 37 -118t120 -35
q79 0 119 34t40 121v203zM512 809q-14 -18 -36.5 -31.5t-54.5 -13.5q-26 0 -47 7.5t-40.5 17t-38 17t-37.5 7.5q-29 0 -51 -12.5t-42 -38.5v78q14 18 36 32t54 14q25 0 46 -7.5t40.5 -17t38.5 -17t40 -7.5q28 0 50 12.5t42 38.5v-79z" />
    <glyph glyph-name="Odieresis" unicode="&#xd6;" horiz-adv-x="677" 
d="M620 256q0 -75 -17 -127t-52 -85t-88 -47.5t-125 -14.5t-125 14.5t-88 47.5t-52 85t-17 127v198q0 75 17 127t52 85t88 47.5t125 14.5t125 -14.5t88 -47.5t52 -85t17 -127v-198zM497 456q0 84 -38 119.5t-121 35.5t-120 -35t-37 -119v-206q0 -83 37 -118t120 -35
q79 0 119 34t40 121v203zM165 774v129h116v-129h-116zM396 774v129h116v-129h-116z" />
    <glyph glyph-name="multiply" unicode="&#xd7;" horiz-adv-x="615" 
d="M452 160l-146 146l-146 -145l-60 60l145 146l-146 146l61 60l146 -146l146 146l61 -59l-146 -147l147 -147z" />
    <glyph glyph-name="Oslash" unicode="&#xd8;" horiz-adv-x="677" 
d="M55 -75l66 123q-65 64 -65 208v198q0 75 17 127t52 85t88 47.5t125 14.5q82 0 140 -20l42 77h100l-66 -122q33 -32 49.5 -83.5t16.5 -125.5v-198q0 -75 -17 -127t-52 -85t-88 -47.5t-125 -14.5q-83 0 -143 20l-42 -77h-98zM497 461q0 44 -11 77l-235 -432q33 -13 87 -13
q79 0 119 34t40 121v213zM181 246q0 -43 9 -71l232 428q-33 13 -84 13q-83 0 -120 -35t-37 -119v-216z" />
    <glyph glyph-name="Ugrave" unicode="&#xd9;" horiz-adv-x="661" 
d="M476 710h125v-469q0 -71 -12.5 -120t-43.5 -80t-83.5 -45t-131.5 -14q-80 0 -132 14t-83 45t-43.5 80t-12.5 120v469h128v-470q0 -40 6.5 -67t23 -43.5t44 -23.5t70.5 -7q40 0 68 7t45 23.5t24.5 43.5t7.5 68v469zM322 764l-124 186h119l85 -186h-80z" />
    <glyph glyph-name="Uacute" unicode="&#xda;" horiz-adv-x="661" 
d="M476 710h125v-469q0 -71 -12.5 -120t-43.5 -80t-83.5 -45t-131.5 -14q-80 0 -132 14t-83 45t-43.5 80t-12.5 120v469h128v-470q0 -40 6.5 -67t23 -43.5t44 -23.5t70.5 -7q40 0 68 7t45 23.5t24.5 43.5t7.5 68v469zM258 764l86 186h118l-124 -186h-80z" />
    <glyph glyph-name="Ucircumflex" unicode="&#xdb;" horiz-adv-x="661" 
d="M476 710h125v-469q0 -71 -12.5 -120t-43.5 -80t-83.5 -45t-131.5 -14q-80 0 -132 14t-83 45t-43.5 80t-12.5 120v469h128v-470q0 -40 6.5 -67t23 -43.5t44 -23.5t70.5 -7q40 0 68 7t45 23.5t24.5 43.5t7.5 68v469zM431 763l-100 121l-100 -121h-96l151 176h90l150 -176
h-95z" />
    <glyph glyph-name="Udieresis" unicode="&#xdc;" horiz-adv-x="661" 
d="M476 710h125v-469q0 -71 -12.5 -120t-43.5 -80t-83.5 -45t-131.5 -14q-80 0 -132 14t-83 45t-43.5 80t-12.5 120v469h128v-470q0 -40 6.5 -67t23 -43.5t44 -23.5t70.5 -7q40 0 68 7t45 23.5t24.5 43.5t7.5 68v469zM157 774v129h116v-129h-116zM388 774v129h116v-129h-116
z" />
    <glyph glyph-name="Yacute" unicode="&#xdd;" horiz-adv-x="590" 
d="M223 0v283l-215 427h133l148 -307l165 307h127l-233 -427v-283h-125zM223 764l86 186h118l-124 -186h-80z" />
    <glyph glyph-name="Thorn" unicode="&#xde;" horiz-adv-x="584" 
d="M196 117v-117h-126v710h126v-127h168q53 0 90.5 -13t61 -40t34 -70t10.5 -103q0 -119 -45 -179.5t-151 -60.5h-168zM344 226q51 0 73.5 30.5t22.5 98.5t-22.5 95.5t-73.5 27.5h-148v-252h148z" />
    <glyph glyph-name="germandbls" unicode="&#xdf;" horiz-adv-x="714" 
d="M319 100q24 -12 52 -17.5t72 -5.5q38 0 63 5t39.5 16t20.5 28.5t6 43.5q0 18 -3.5 30.5t-10.5 21t-18.5 14.5t-27.5 12q-32 11 -57 19.5t-45 20.5q-26 17 -41 42.5t-15 72.5v156q0 46 -21.5 60.5t-63.5 14.5q-38 0 -61.5 -16.5t-23.5 -59.5v-558h-116v561q0 47 15.5 79
t42.5 51.5t63.5 28t78.5 8.5t78.5 -8.5t64 -28t43 -51.5t15.5 -79v-153q0 -29 21.5 -42t52.5 -24q26 -9 51.5 -18.5t48.5 -27.5q26 -21 32.5 -50.5t6.5 -76.5q0 -53 -12.5 -89t-39 -57.5t-67.5 -31t-99 -9.5q-51 0 -84.5 4.5t-60.5 16.5v97z" />
    <glyph glyph-name="agrave" unicode="&#xe0;" 
d="M413 0l-3 72q-32 -43 -83.5 -66.5t-120.5 -23.5q-50 0 -82 9.5t-50.5 27t-26 42.5t-7.5 55v87q0 36 9.5 60.5t32 40t59.5 22t92 6.5q62 0 104 -8t70 -17v38q0 28 -8 47t-26 30.5t-47 16t-71 4.5q-96 0 -166 -21v100q31 8 75.5 13t112.5 5q63 0 108.5 -8t75 -29
t43.5 -56.5t14 -90.5v-356h-105zM407 237q-25 8 -61.5 14.5t-84.5 6.5q-55 0 -81.5 -13.5t-26.5 -59.5v-39q0 -39 19 -54.5t76 -15.5t95.5 20.5t63.5 49.5v91zM278 580l-124 186h119l85 -186h-80z" />
    <glyph glyph-name="aacute" unicode="&#xe1;" 
d="M413 0l-3 72q-32 -43 -83.5 -66.5t-120.5 -23.5q-50 0 -82 9.5t-50.5 27t-26 42.5t-7.5 55v87q0 36 9.5 60.5t32 40t59.5 22t92 6.5q62 0 104 -8t70 -17v38q0 28 -8 47t-26 30.5t-47 16t-71 4.5q-96 0 -166 -21v100q31 8 75.5 13t112.5 5q63 0 108.5 -8t75 -29
t43.5 -56.5t14 -90.5v-356h-105zM407 237q-25 8 -61.5 14.5t-84.5 6.5q-55 0 -81.5 -13.5t-26.5 -59.5v-39q0 -39 19 -54.5t76 -15.5t95.5 20.5t63.5 49.5v91zM224 580l86 186h118l-124 -186h-80z" />
    <glyph glyph-name="acircumflex" unicode="&#xe2;" 
d="M413 0l-3 72q-32 -43 -83.5 -66.5t-120.5 -23.5q-50 0 -82 9.5t-50.5 27t-26 42.5t-7.5 55v87q0 36 9.5 60.5t32 40t59.5 22t92 6.5q62 0 104 -8t70 -17v38q0 28 -8 47t-26 30.5t-47 16t-71 4.5q-96 0 -166 -21v100q31 8 75.5 13t112.5 5q63 0 108.5 -8t75 -29
t43.5 -56.5t14 -90.5v-356h-105zM407 237q-25 8 -61.5 14.5t-84.5 6.5q-55 0 -81.5 -13.5t-26.5 -59.5v-39q0 -39 19 -54.5t76 -15.5t95.5 20.5t63.5 49.5v91zM397 579l-100 121l-100 -121h-96l151 176h90l150 -176h-95z" />
    <glyph glyph-name="atilde" unicode="&#xe3;" 
d="M413 0l-3 72q-32 -43 -83.5 -66.5t-120.5 -23.5q-50 0 -82 9.5t-50.5 27t-26 42.5t-7.5 55v87q0 36 9.5 60.5t32 40t59.5 22t92 6.5q62 0 104 -8t70 -17v38q0 28 -8 47t-26 30.5t-47 16t-71 4.5q-96 0 -166 -21v100q31 8 75.5 13t112.5 5q63 0 108.5 -8t75 -29
t43.5 -56.5t14 -90.5v-356h-105zM407 237q-25 8 -61.5 14.5t-84.5 6.5q-55 0 -81.5 -13.5t-26.5 -59.5v-39q0 -39 19 -54.5t76 -15.5t95.5 20.5t63.5 49.5v91zM460 625q-14 -18 -36.5 -31.5t-54.5 -13.5q-26 0 -47 7.5t-40.5 17t-38 17t-37.5 7.5q-29 0 -51 -12.5t-42 -38.5
v78q14 18 36 32t54 14q25 0 46 -7.5t40.5 -17t38.5 -17t40 -7.5q28 0 50 12.5t42 38.5v-79z" />
    <glyph glyph-name="adieresis" unicode="&#xe4;" 
d="M413 0l-3 72q-32 -43 -83.5 -66.5t-120.5 -23.5q-50 0 -82 9.5t-50.5 27t-26 42.5t-7.5 55v87q0 36 9.5 60.5t32 40t59.5 22t92 6.5q62 0 104 -8t70 -17v38q0 28 -8 47t-26 30.5t-47 16t-71 4.5q-96 0 -166 -21v100q31 8 75.5 13t112.5 5q63 0 108.5 -8t75 -29
t43.5 -56.5t14 -90.5v-356h-105zM407 237q-25 8 -61.5 14.5t-84.5 6.5q-55 0 -81.5 -13.5t-26.5 -59.5v-39q0 -39 19 -54.5t76 -15.5t95.5 20.5t63.5 49.5v91zM123 590v129h116v-129h-116zM354 590v129h116v-129h-116z" />
    <glyph glyph-name="aring" unicode="&#xe5;" 
d="M413 0l-3 72q-32 -43 -83.5 -66.5t-120.5 -23.5q-50 0 -82 9.5t-50.5 27t-26 42.5t-7.5 55v87q0 36 9.5 60.5t32 40t59.5 22t92 6.5q62 0 104 -8t70 -17v38q0 28 -8 47t-26 30.5t-47 16t-71 4.5q-96 0 -166 -21v100q31 8 75.5 13t112.5 5q63 0 108.5 -8t75 -29
t43.5 -56.5t14 -90.5v-356h-105zM407 237q-25 8 -61.5 14.5t-84.5 6.5q-55 0 -81.5 -13.5t-26.5 -59.5v-39q0 -39 19 -54.5t76 -15.5t95.5 20.5t63.5 49.5v91zM406 663q0 -51 -25 -76.5t-85 -25.5q-110 0 -110 102q0 50 27 76.5t83 26.5q60 0 85 -26.5t25 -76.5zM356 663
q0 29 -14 44t-46 15q-58 0 -58 -59q0 -57 58 -57q32 0 46 14t14 43z" />
    <glyph glyph-name="ae" unicode="&#xe6;" horiz-adv-x="912" 
d="M849 2q-19 -7 -65 -13.5t-112 -6.5q-102 0 -157 24.5t-76 84.5q-40 -52 -96.5 -80.5t-137.5 -28.5q-49 0 -81 9.5t-50.5 27t-26 42.5t-7.5 55v87q0 36 9.5 60.5t32 40t59.5 22t92 6.5q62 0 103.5 -8t69.5 -17v38q0 30 -8.5 49.5t-27 30t-47 14.5t-68.5 4
q-57 0 -94.5 -5.5t-71.5 -15.5v100q27 8 71.5 13t116.5 5q62 0 106.5 -13.5t76.5 -56.5q21 37 63.5 53.5t116.5 16.5q67 0 110.5 -12.5t68 -39t34 -68.5t9.5 -101v-103h-343v-13q0 -66 36 -94.5t124 -28.5q60 0 107.5 7t62.5 14v-99zM406 237q-24 8 -60 14.5t-82 6.5h-3
q-58 0 -83 -14.5t-25 -58.5v-38q0 -40 19 -56t76 -16t95 21t63 50v91zM758 324q0 65 -24.5 94t-93.5 29t-95 -29t-26 -94v-24h239v24z" />
    <glyph glyph-name="ccedilla" unicode="&#xe7;" horiz-adv-x="471" 
d="M432 2q-17 -6 -53 -13t-88 -7q-63 0 -108.5 12t-75 38.5t-43 68.5t-13.5 102v116q0 60 13.5 102t43 68.5t75 38.5t108.5 12q52 0 87 -6.5t52 -13.5v-109q-21 9 -52.5 16t-79.5 7q-37 0 -62 -6t-40.5 -20.5t-22 -38t-6.5 -58.5v-105q0 -33 6.5 -55.5t22 -36.5t40.5 -20.5
t62 -6.5q51 0 82.5 7t51.5 16v-108zM204 -36h112l-7 -79q-10 -119 -114 -125z" />
    <glyph glyph-name="egrave" unicode="&#xe8;" horiz-adv-x="556" 
d="M493 2q-9 -3 -27.5 -6.5t-42.5 -6.5t-52 -5t-55 -2q-71 0 -121 12t-82 38.5t-47 68.5t-15 102v116q0 60 11 102t38 68.5t71.5 38.5t112.5 12q67 0 110.5 -12t68 -38.5t34 -68.5t9.5 -102v-103h-343v-13q0 -65 36 -94.5t123 -29.5q26 0 53.5 2t51 5t41 7t25.5 7v-98z
M402 324q0 33 -5.5 56.5t-19 38t-36 21.5t-57.5 7q-68 0 -94.5 -28.5t-26.5 -94.5v-23h239v23zM270 580l-124 186h119l85 -186h-80z" />
    <glyph glyph-name="eacute" unicode="&#xe9;" horiz-adv-x="556" 
d="M493 2q-9 -3 -27.5 -6.5t-42.5 -6.5t-52 -5t-55 -2q-71 0 -121 12t-82 38.5t-47 68.5t-15 102v116q0 60 11 102t38 68.5t71.5 38.5t112.5 12q67 0 110.5 -12t68 -38.5t34 -68.5t9.5 -102v-103h-343v-13q0 -65 36 -94.5t123 -29.5q26 0 53.5 2t51 5t41 7t25.5 7v-98z
M402 324q0 33 -5.5 56.5t-19 38t-36 21.5t-57.5 7q-68 0 -94.5 -28.5t-26.5 -94.5v-23h239v23zM206 580l86 186h118l-124 -186h-80z" />
    <glyph glyph-name="ecircumflex" unicode="&#xea;" horiz-adv-x="556" 
d="M493 2q-9 -3 -27.5 -6.5t-42.5 -6.5t-52 -5t-55 -2q-71 0 -121 12t-82 38.5t-47 68.5t-15 102v116q0 60 11 102t38 68.5t71.5 38.5t112.5 12q67 0 110.5 -12t68 -38.5t34 -68.5t9.5 -102v-103h-343v-13q0 -65 36 -94.5t123 -29.5q26 0 53.5 2t51 5t41 7t25.5 7v-98z
M402 324q0 33 -5.5 56.5t-19 38t-36 21.5t-57.5 7q-68 0 -94.5 -28.5t-26.5 -94.5v-23h239v23zM378 579l-100 121l-100 -121h-96l151 176h90l150 -176h-95z" />
    <glyph glyph-name="edieresis" unicode="&#xeb;" horiz-adv-x="556" 
d="M493 2q-9 -3 -27.5 -6.5t-42.5 -6.5t-52 -5t-55 -2q-71 0 -121 12t-82 38.5t-47 68.5t-15 102v116q0 60 11 102t38 68.5t71.5 38.5t112.5 12q67 0 110.5 -12t68 -38.5t34 -68.5t9.5 -102v-103h-343v-13q0 -65 36 -94.5t123 -29.5q26 0 53.5 2t51 5t41 7t25.5 7v-98z
M402 324q0 33 -5.5 56.5t-19 38t-36 21.5t-57.5 7q-68 0 -94.5 -28.5t-26.5 -94.5v-23h239v23zM114 590v129h116v-129h-116zM345 590v129h116v-129h-116z" />
    <glyph glyph-name="igrave" unicode="&#xec;" horiz-adv-x="277" 
d="M90 0v526h116v-526h-116zM125 580l-124 186h119l85 -186h-80z" />
    <glyph glyph-name="iacute" unicode="&#xed;" horiz-adv-x="276" 
d="M70 0v526h116v-526h-116zM76 580l86 186h118l-124 -186h-80z" />
    <glyph glyph-name="icircumflex" unicode="&#xee;" horiz-adv-x="366" 
d="M125 0v526h116v-526h-116zM285 579l-100 121l-100 -121h-96l151 176h90l150 -176h-95z" />
    <glyph glyph-name="idieresis" unicode="&#xef;" horiz-adv-x="328" 
d="M106 0v526h116v-526h-116zM-8 590v129h116v-129h-116zM223 590v129h116v-129h-116z" />
    <glyph glyph-name="eth" unicode="&#xf0;" horiz-adv-x="576" 
d="M429 615q48 -74 72 -162t24 -182v-81q0 -56 -14 -95.5t-43 -64.5t-73.5 -36.5t-105.5 -11.5t-105.5 11.5t-74 36.5t-44 64.5t-14.5 95.5v100q0 56 14 90.5t40.5 53t65 25t88.5 6.5q49 0 86.5 -12t58.5 -51q-8 49 -24 92.5t-39 82.5l-163 -69v72l126 54q-20 26 -41.5 49.5
t-43.5 44.5h109q16 -14 30.5 -28t28.5 -30l135 58v-73zM411 272q-11 63 -44 85.5t-87 22.5q-55 0 -84 -21t-29 -81v-77q0 -60 30.5 -87t91.5 -27q62 0 92 26.5t30 87.5v71z" />
    <glyph glyph-name="ntilde" unicode="&#xf1;" horiz-adv-x="607" 
d="M427 0v361q0 38 -21.5 54.5t-65.5 16.5q-52 0 -90 -17t-68 -52v-363h-116v526h107l3 -79q32 45 82 69t128 24q81 0 119 -35t38 -108v-397h-116zM487 625q-14 -18 -36.5 -31.5t-54.5 -13.5q-26 0 -47 7.5t-40.5 17t-38 17t-37.5 7.5q-29 0 -51 -12.5t-42 -38.5v78
q14 18 36 32t54 14q25 0 46 -7.5t40.5 -17t38.5 -17t40 -7.5q28 0 50 12.5t42 38.5v-79z" />
    <glyph glyph-name="ograve" unicode="&#xf2;" horiz-adv-x="579" 
d="M528 188q0 -56 -14.5 -95.5t-44 -64t-74.5 -35.5t-106 -11q-60 0 -105 11t-74.5 35.5t-44 64t-14.5 95.5v146q0 112 58.5 159t179.5 47t180 -47t59 -159v-146zM415 330q0 58 -32 83t-94 25q-65 0 -94.5 -26.5t-29.5 -81.5v-138q0 -58 31.5 -83.5t92.5 -25.5q62 0 94 25.5
t32 83.5v138zM281 580l-124 186h119l85 -186h-80z" />
    <glyph glyph-name="oacute" unicode="&#xf3;" horiz-adv-x="579" 
d="M528 188q0 -56 -14.5 -95.5t-44 -64t-74.5 -35.5t-106 -11q-60 0 -105 11t-74.5 35.5t-44 64t-14.5 95.5v146q0 112 58.5 159t179.5 47t180 -47t59 -159v-146zM415 330q0 58 -32 83t-94 25q-65 0 -94.5 -26.5t-29.5 -81.5v-138q0 -58 31.5 -83.5t92.5 -25.5q62 0 94 25.5
t32 83.5v138zM217 580l86 186h118l-124 -186h-80z" />
    <glyph glyph-name="ocircumflex" unicode="&#xf4;" horiz-adv-x="579" 
d="M528 188q0 -56 -14.5 -95.5t-44 -64t-74.5 -35.5t-106 -11q-60 0 -105 11t-74.5 35.5t-44 64t-14.5 95.5v146q0 112 58.5 159t179.5 47t180 -47t59 -159v-146zM415 330q0 58 -32 83t-94 25q-65 0 -94.5 -26.5t-29.5 -81.5v-138q0 -58 31.5 -83.5t92.5 -25.5q62 0 94 25.5
t32 83.5v138zM390 579l-100 121l-100 -121h-96l151 176h90l150 -176h-95z" />
    <glyph glyph-name="otilde" unicode="&#xf5;" horiz-adv-x="579" 
d="M528 188q0 -56 -14.5 -95.5t-44 -64t-74.5 -35.5t-106 -11q-60 0 -105 11t-74.5 35.5t-44 64t-14.5 95.5v146q0 112 58.5 159t179.5 47t180 -47t59 -159v-146zM415 330q0 58 -32 83t-94 25q-65 0 -94.5 -26.5t-29.5 -81.5v-138q0 -58 31.5 -83.5t92.5 -25.5q62 0 94 25.5
t32 83.5v138zM463 625q-14 -18 -36.5 -31.5t-54.5 -13.5q-26 0 -47 7.5t-40.5 17t-38 17t-37.5 7.5q-29 0 -51 -12.5t-42 -38.5v78q14 18 36 32t54 14q25 0 46 -7.5t40.5 -17t38.5 -17t40 -7.5q28 0 50 12.5t42 38.5v-79z" />
    <glyph glyph-name="odieresis" unicode="&#xf6;" horiz-adv-x="579" 
d="M528 188q0 -56 -14.5 -95.5t-44 -64t-74.5 -35.5t-106 -11q-60 0 -105 11t-74.5 35.5t-44 64t-14.5 95.5v146q0 112 58.5 159t179.5 47t180 -47t59 -159v-146zM415 330q0 58 -32 83t-94 25q-65 0 -94.5 -26.5t-29.5 -81.5v-138q0 -58 31.5 -83.5t92.5 -25.5q62 0 94 25.5
t32 83.5v138zM116 590v129h116v-129h-116zM347 590v129h116v-129h-116z" />
    <glyph glyph-name="divide" unicode="&#xf7;" horiz-adv-x="603" 
d="M51 325v85h499v-85h-499zM238 480v162h126v-162h-126zM238 93v162h126v-162h-126z" />
    <glyph glyph-name="oslash" unicode="&#xf8;" horiz-adv-x="579" 
d="M528 188q0 -56 -14.5 -95.5t-44 -64t-74.5 -35.5t-106 -11q-56 0 -102 11l-38 -68h-98l58 104q-58 49 -58 159v146q0 112 58.5 159t179.5 47q59 0 99 -10l40 71h100l-60 -107q60 -48 60 -160v-146zM415 335q0 28 -8 50l-169 -302q25 -5 51 -5q62 0 94 25.5t32 83.5v148z
M165 187q0 -27 6 -46l166 297q-23 5 -48 5q-65 0 -94.5 -26.5t-29.5 -81.5v-148z" />
    <glyph glyph-name="ugrave" unicode="&#xf9;" horiz-adv-x="580" 
d="M412 526h113v-364q0 -96 -60 -138t-174 -42q-113 0 -174.5 42t-61.5 138v364h115v-357q0 -48 28.5 -65t92.5 -17q65 0 93 17.5t28 64.5v357zM282 580l-124 186h119l85 -186h-80z" />
    <glyph glyph-name="uacute" unicode="&#xfa;" horiz-adv-x="580" 
d="M412 526h113v-364q0 -96 -60 -138t-174 -42q-113 0 -174.5 42t-61.5 138v364h115v-357q0 -48 28.5 -65t92.5 -17q65 0 93 17.5t28 64.5v357zM218 580l86 186h118l-124 -186h-80z" />
    <glyph glyph-name="ucircumflex" unicode="&#xfb;" horiz-adv-x="580" 
d="M412 526h113v-364q0 -96 -60 -138t-174 -42q-113 0 -174.5 42t-61.5 138v364h115v-357q0 -48 28.5 -65t92.5 -17q65 0 93 17.5t28 64.5v357zM390 579l-100 121l-100 -121h-96l151 176h90l150 -176h-95z" />
    <glyph glyph-name="udieresis" unicode="&#xfc;" horiz-adv-x="580" 
d="M412 526h113v-364q0 -96 -60 -138t-174 -42q-113 0 -174.5 42t-61.5 138v364h115v-357q0 -48 28.5 -65t92.5 -17q65 0 93 17.5t28 64.5v357zM116 590v129h116v-129h-116zM347 590v129h116v-129h-116z" />
    <glyph glyph-name="yacute" unicode="&#xfd;" horiz-adv-x="595" 
d="M143 -228l88 214l-216 540h131l148 -407l161 407h125l-310 -754h-127zM225 580l86 186h118l-124 -186h-80z" />
    <glyph glyph-name="thorn" unicode="&#xfe;" horiz-adv-x="596" 
d="M68 -228v947h116v-263q36 39 86 61.5t111 22.5q88 0 126 -49.5t38 -157.5v-153q0 -102 -37.5 -150t-128.5 -48q-113 0 -195 61v-271h-116zM429 306q0 64 -19.5 96t-72.5 32q-46 0 -85 -20.5t-68 -54.5v-216q30 -26 66.5 -40.5t79.5 -14.5q56 0 77.5 26.5t21.5 90.5v101z
" />
    <glyph glyph-name="ydieresis" unicode="&#xff;" horiz-adv-x="595" 
d="M143 -228l88 214l-216 540h131l148 -407l161 407h125l-310 -754h-127zM124 590v129h116v-129h-116zM355 590v129h116v-129h-116z" />
    <glyph glyph-name="Amacron" unicode="&#x100;" horiz-adv-x="610" 
d="M422 154h-237l-43 -154h-127l208 710h175l197 -710h-133zM211 252h188l-90 357zM139 776v81h339v-81h-339z" />
    <glyph glyph-name="amacron" unicode="&#x101;" 
d="M413 0l-3 72q-32 -43 -83.5 -66.5t-120.5 -23.5q-50 0 -82 9.5t-50.5 27t-26 42.5t-7.5 55v87q0 36 9.5 60.5t32 40t59.5 22t92 6.5q62 0 104 -8t70 -17v38q0 28 -8 47t-26 30.5t-47 16t-71 4.5q-96 0 -166 -21v100q31 8 75.5 13t112.5 5q63 0 108.5 -8t75 -29
t43.5 -56.5t14 -90.5v-356h-105zM407 237q-25 8 -61.5 14.5t-84.5 6.5q-55 0 -81.5 -13.5t-26.5 -59.5v-39q0 -39 19 -54.5t76 -15.5t95.5 20.5t63.5 49.5v91zM124 592v81h339v-81h-339z" />
    <glyph glyph-name="Abreve" unicode="&#x102;" horiz-adv-x="610" 
d="M422 154h-237l-43 -154h-127l208 710h175l197 -710h-133zM211 252h188l-90 357zM481 935q0 -45 -13.5 -78t-36.5 -55t-54 -33t-66 -11t-66.5 11t-54.5 33t-36.5 55t-13.5 78h76q2 -54 25 -79.5t70 -25.5t70 25.5t25 79.5h75z" />
    <glyph glyph-name="abreve" unicode="&#x103;" 
d="M413 0l-3 72q-32 -43 -83.5 -66.5t-120.5 -23.5q-50 0 -82 9.5t-50.5 27t-26 42.5t-7.5 55v87q0 36 9.5 60.5t32 40t59.5 22t92 6.5q62 0 104 -8t70 -17v38q0 28 -8 47t-26 30.5t-47 16t-71 4.5q-96 0 -166 -21v100q31 8 75.5 13t112.5 5q63 0 108.5 -8t75 -29
t43.5 -56.5t14 -90.5v-356h-105zM407 237q-25 8 -61.5 14.5t-84.5 6.5q-55 0 -81.5 -13.5t-26.5 -59.5v-39q0 -39 19 -54.5t76 -15.5t95.5 20.5t63.5 49.5v91zM472 751q0 -45 -13.5 -78t-36.5 -55t-54 -33t-66 -11t-66.5 11t-54.5 33t-36.5 55t-13.5 78h76q2 -54 25 -79.5
t70 -25.5t70 25.5t25 79.5h75z" />
    <glyph glyph-name="Aogonek" unicode="&#x104;" horiz-adv-x="610" 
d="M422 154h-237l-43 -154h-127l208 710h175l197 -710l-84 -37q-31 -14 -41.5 -27t-10.5 -31q0 -23 17.5 -36t61.5 -13q23 0 35 2t21 5v-96q-8 -3 -25.5 -5t-46.5 -2q-50 0 -81.5 8.5t-49 23t-23.5 33.5t-6 40q0 43 29 68t78 42l74 25h-81zM211 252h188l-90 357z" />
    <glyph glyph-name="aogonek" unicode="&#x105;" 
d="M517 -233q-8 -3 -25.5 -5t-46.5 -2q-50 0 -81.5 8.5t-49 23t-23.5 33.5t-6 40q0 43 29 68t78 42l74 25h-53l-3 72q-32 -43 -83.5 -66.5t-120.5 -23.5q-50 0 -82 9.5t-50.5 27t-26 42.5t-7.5 55v87q0 36 9.5 60.5t32 40t59.5 22t92 6.5q62 0 104 -8t70 -17v38q0 28 -8 47
t-26 30.5t-47 16t-71 4.5q-96 0 -166 -21v100q31 8 75.5 13t112.5 5q63 0 108.5 -8t75 -29t43.5 -56.5t14 -90.5v-356l-84 -37q-31 -14 -41.5 -27t-10.5 -31q0 -23 17.5 -36t61.5 -13q23 0 35 2t21 5v-96zM407 237q-25 8 -61.5 14.5t-84.5 6.5q-55 0 -81.5 -13.5
t-26.5 -59.5v-39q0 -39 19 -54.5t76 -15.5t95.5 20.5t63.5 49.5v91z" />
    <glyph glyph-name="Cacute" unicode="&#x106;" horiz-adv-x="560" 
d="M512 7q-17 -8 -61.5 -16.5t-107.5 -8.5q-74 0 -128 14.5t-89.5 47.5t-53 85t-17.5 127v198q0 75 17.5 127t53 85t89.5 47.5t128 14.5q62 0 105 -9t61 -17v-120q-24 8 -68 16t-103 8q-45 0 -75 -8t-48 -26.5t-25.5 -48t-7.5 -72.5v-193q0 -42 7.5 -71.5t25.5 -48t48 -27
t75 -8.5q59 0 105 7.5t69 15.5v-119zM238 764l86 186h118l-124 -186h-80z" />
    <glyph glyph-name="cacute" unicode="&#x107;" horiz-adv-x="471" 
d="M432 2q-17 -6 -53 -13t-88 -7q-63 0 -108.5 12t-75 38.5t-43 68.5t-13.5 102v116q0 60 13.5 102t43 68.5t75 38.5t108.5 12q52 0 87 -6.5t52 -13.5v-109q-21 9 -52.5 16t-79.5 7q-37 0 -62 -6t-40.5 -20.5t-22 -38t-6.5 -58.5v-105q0 -33 6.5 -55.5t22 -36.5t40.5 -20.5
t62 -6.5q51 0 82.5 7t51.5 16v-108zM193 580l86 186h118l-124 -186h-80z" />
    <glyph glyph-name="Ccircumflex" unicode="&#x108;" horiz-adv-x="560" 
d="M512 7q-17 -8 -61.5 -16.5t-107.5 -8.5q-74 0 -128 14.5t-89.5 47.5t-53 85t-17.5 127v198q0 75 17.5 127t53 85t89.5 47.5t128 14.5q62 0 105 -9t61 -17v-120q-24 8 -68 16t-103 8q-45 0 -75 -8t-48 -26.5t-25.5 -48t-7.5 -72.5v-193q0 -42 7.5 -71.5t25.5 -48t48 -27
t75 -8.5q59 0 105 7.5t69 15.5v-119zM400 763l-100 121l-100 -121h-96l151 176h90l150 -176h-95z" />
    <glyph glyph-name="ccircumflex" unicode="&#x109;" horiz-adv-x="471" 
d="M432 2q-17 -6 -53 -13t-88 -7q-63 0 -108.5 12t-75 38.5t-43 68.5t-13.5 102v116q0 60 13.5 102t43 68.5t75 38.5t108.5 12q52 0 87 -6.5t52 -13.5v-109q-21 9 -52.5 16t-79.5 7q-37 0 -62 -6t-40.5 -20.5t-22 -38t-6.5 -58.5v-105q0 -33 6.5 -55.5t22 -36.5t40.5 -20.5
t62 -6.5q51 0 82.5 7t51.5 16v-108zM361 579l-100 121l-100 -121h-96l151 176h90l150 -176h-95z" />
    <glyph glyph-name="Cdotaccent" unicode="&#x10a;" horiz-adv-x="560" 
d="M512 7q-17 -8 -61.5 -16.5t-107.5 -8.5q-74 0 -128 14.5t-89.5 47.5t-53 85t-17.5 127v198q0 75 17.5 127t53 85t89.5 47.5t128 14.5q62 0 105 -9t61 -17v-120q-24 8 -68 16t-103 8q-45 0 -75 -8t-48 -26.5t-25.5 -48t-7.5 -72.5v-193q0 -42 7.5 -71.5t25.5 -48t48 -27
t75 -8.5q59 0 105 7.5t69 15.5v-119zM250 774v129h116v-129h-116z" />
    <glyph glyph-name="cdotaccent" unicode="&#x10b;" horiz-adv-x="471" 
d="M432 2q-17 -6 -53 -13t-88 -7q-63 0 -108.5 12t-75 38.5t-43 68.5t-13.5 102v116q0 60 13.5 102t43 68.5t75 38.5t108.5 12q52 0 87 -6.5t52 -13.5v-109q-21 9 -52.5 16t-79.5 7q-37 0 -62 -6t-40.5 -20.5t-22 -38t-6.5 -58.5v-105q0 -33 6.5 -55.5t22 -36.5t40.5 -20.5
t62 -6.5q51 0 82.5 7t51.5 16v-108zM207 590v129h116v-129h-116z" />
    <glyph glyph-name="Ccaron" unicode="&#x10c;" horiz-adv-x="560" 
d="M512 7q-17 -8 -61.5 -16.5t-107.5 -8.5q-74 0 -128 14.5t-89.5 47.5t-53 85t-17.5 127v198q0 75 17.5 127t53 85t89.5 47.5t128 14.5q62 0 105 -9t61 -17v-120q-24 8 -68 16t-103 8q-45 0 -75 -8t-48 -26.5t-25.5 -48t-7.5 -72.5v-193q0 -42 7.5 -71.5t25.5 -48t48 -27
t75 -8.5q59 0 105 7.5t69 15.5v-119zM344 763h-90l-150 176h96l99 -122l100 122h96z" />
    <glyph glyph-name="ccaron" unicode="&#x10d;" horiz-adv-x="471" 
d="M432 2q-17 -6 -53 -13t-88 -7q-63 0 -108.5 12t-75 38.5t-43 68.5t-13.5 102v116q0 60 13.5 102t43 68.5t75 38.5t108.5 12q52 0 87 -6.5t52 -13.5v-109q-21 9 -52.5 16t-79.5 7q-37 0 -62 -6t-40.5 -20.5t-22 -38t-6.5 -58.5v-105q0 -33 6.5 -55.5t22 -36.5t40.5 -20.5
t62 -6.5q51 0 82.5 7t51.5 16v-108zM301 579h-90l-150 176h96l99 -122l100 122h96z" />
    <glyph glyph-name="Dcaron" unicode="&#x10e;" horiz-adv-x="636" 
d="M70 0v710h261q58 0 104 -11.5t78 -39t49.5 -72.5t17.5 -112v-240q0 -66 -17.5 -111t-49.5 -72.5t-78 -39.5t-104 -12h-261zM454 468q0 39 -7.5 65t-23 41t-38.5 21t-54 6h-135v-493h135q32 0 55 6.5t38 21.5t22.5 41t7.5 65v226zM350 763h-90l-150 176h96l99 -122
l100 122h96z" />
    <glyph glyph-name="dcaron" unicode="&#x10f;" horiz-adv-x="718" 
d="M421 0l-3 77q-30 -49 -80.5 -72t-120.5 -23q-90 0 -128 49.5t-38 157.5v153q0 52 9 89.5t29 61.5t53 35.5t80 11.5q57 0 104 -15t86 -43v237h116v-719h-107zM412 382q-27 24 -62.5 38.5t-79.5 14.5q-58 0 -80.5 -24t-22.5 -81v-132q0 -53 20.5 -80.5t73.5 -27.5
q54 0 91.5 22t59.5 58v212zM593 719h125l-10 -142q-5 -76 -37 -118.5t-89 -46.5z" />
    <glyph glyph-name="Dcroat" unicode="&#x110;" horiz-adv-x="635" 
d="M68 0v320h-50v102h50v288h262q57 0 103.5 -11.5t78.5 -39t49.5 -72.5t17.5 -112v-240q0 -66 -17.5 -111t-49.5 -72.5t-78.5 -39.5t-103.5 -12h-262zM453 471q0 38 -7.5 63t-23 40t-38.5 21t-54 6h-136v-179h149v-102h-149v-212h136q30 0 53 6t38.5 21t23.5 40.5t8 63.5
v232z" />
    <glyph glyph-name="dcroat" unicode="&#x111;" horiz-adv-x="596" 
d="M421 0l-3 77q-30 -49 -80.5 -72t-120.5 -23q-90 0 -128 49.5t-38 157.5v153q0 52 9 89.5t29 61.5t53 35.5t80 11.5q57 0 104 -15t86 -43v90h-155v81h155v66h116v-66h68v-81h-68v-572h-107zM412 382q-27 24 -62.5 38.5t-79.5 14.5q-58 0 -80.5 -24t-22.5 -81v-132
q0 -53 20.5 -80.5t73.5 -27.5q54 0 91.5 22t59.5 58v212z" />
    <glyph glyph-name="Emacron" unicode="&#x112;" horiz-adv-x="574" 
d="M70 0v710h456v-109h-330v-179h309v-102h-309v-212h336v-108h-462zM127 776v81h339v-81h-339z" />
    <glyph glyph-name="emacron" unicode="&#x113;" horiz-adv-x="556" 
d="M493 2q-9 -3 -27.5 -6.5t-42.5 -6.5t-52 -5t-55 -2q-71 0 -121 12t-82 38.5t-47 68.5t-15 102v116q0 60 11 102t38 68.5t71.5 38.5t112.5 12q67 0 110.5 -12t68 -38.5t34 -68.5t9.5 -102v-103h-343v-13q0 -65 36 -94.5t123 -29.5q26 0 53.5 2t51 5t41 7t25.5 7v-98z
M402 324q0 33 -5.5 56.5t-19 38t-36 21.5t-57.5 7q-68 0 -94.5 -28.5t-26.5 -94.5v-23h239v23zM108 592v81h339v-81h-339z" />
    <glyph glyph-name="Ebreve" unicode="&#x114;" horiz-adv-x="574" 
d="M70 0v710h456v-109h-330v-179h309v-102h-309v-212h336v-108h-462zM471 935q0 -45 -13.5 -78t-36.5 -55t-54 -33t-66 -11t-66.5 11t-54.5 33t-36.5 55t-13.5 78h76q2 -54 25 -79.5t70 -25.5t70 25.5t25 79.5h75z" />
    <glyph glyph-name="ebreve" unicode="&#x115;" horiz-adv-x="556" 
d="M493 2q-9 -3 -27.5 -6.5t-42.5 -6.5t-52 -5t-55 -2q-71 0 -121 12t-82 38.5t-47 68.5t-15 102v116q0 60 11 102t38 68.5t71.5 38.5t112.5 12q67 0 110.5 -12t68 -38.5t34 -68.5t9.5 -102v-103h-343v-13q0 -65 36 -94.5t123 -29.5q26 0 53.5 2t51 5t41 7t25.5 7v-98z
M402 324q0 33 -5.5 56.5t-19 38t-36 21.5t-57.5 7q-68 0 -94.5 -28.5t-26.5 -94.5v-23h239v23zM448 751q0 -45 -13.5 -78t-36.5 -55t-54 -33t-66 -11t-66.5 11t-54.5 33t-36.5 55t-13.5 78h76q2 -54 25 -79.5t70 -25.5t70 25.5t25 79.5h75z" />
    <glyph glyph-name="Edotaccent" unicode="&#x116;" horiz-adv-x="574" 
d="M70 0v710h456v-109h-330v-179h309v-102h-309v-212h336v-108h-462zM244 774v129h116v-129h-116z" />
    <glyph glyph-name="edotaccent" unicode="&#x117;" horiz-adv-x="556" 
d="M493 2q-9 -3 -27.5 -6.5t-42.5 -6.5t-52 -5t-55 -2q-71 0 -121 12t-82 38.5t-47 68.5t-15 102v116q0 60 11 102t38 68.5t71.5 38.5t112.5 12q67 0 110.5 -12t68 -38.5t34 -68.5t9.5 -102v-103h-343v-13q0 -65 36 -94.5t123 -29.5q26 0 53.5 2t51 5t41 7t25.5 7v-98z
M402 324q0 33 -5.5 56.5t-19 38t-36 21.5t-57.5 7q-68 0 -94.5 -28.5t-26.5 -94.5v-23h239v23zM220 590v129h116v-129h-116z" />
    <glyph glyph-name="Eogonek" unicode="&#x118;" horiz-adv-x="574" 
d="M531 -233q-8 -3 -25.5 -5t-46.5 -2q-50 0 -81.5 8.5t-49 23t-23.5 33.5t-6 40q0 43 29 68t78 42l74 25h-410v710h456v-109h-330v-179h309v-102h-309v-212h336v-108l-84 -37q-31 -14 -41.5 -27t-10.5 -31q0 -23 17.5 -36t61.5 -13q23 0 35 2t21 5v-96z" />
    <glyph glyph-name="eogonek" unicode="&#x119;" horiz-adv-x="556" 
d="M485 -233q-8 -3 -25.5 -5t-46.5 -2q-50 0 -81.5 8.5t-49 23t-23.5 33.5t-6 40q0 43 29 68t78 42l30 11q-18 -2 -37 -3t-37 -1q-71 0 -121 12t-82 38.5t-47 68.5t-15 102v116q0 60 11 102t38 68.5t71.5 38.5t112.5 12q67 0 110.5 -12t68 -38.5t34 -68.5t9.5 -102v-103
h-343v-13q0 -65 36 -94.5t123 -29.5q26 0 53.5 2t51 5t41 7t25.5 7v-98q-50 -21 -78.5 -35.5t-42.5 -25t-18 -19t-4 -17.5q0 -23 17.5 -36t61.5 -13q23 0 35 2t21 5v-96zM402 324q0 33 -5.5 56.5t-19 38t-36 21.5t-57.5 7q-68 0 -94.5 -28.5t-26.5 -94.5v-23h239v23z" />
    <glyph glyph-name="Ecaron" unicode="&#x11a;" horiz-adv-x="574" 
d="M70 0v710h456v-109h-330v-179h309v-102h-309v-212h336v-108h-462zM341 763h-90l-150 176h96l99 -122l100 122h96z" />
    <glyph glyph-name="ecaron" unicode="&#x11b;" horiz-adv-x="556" 
d="M493 2q-9 -3 -27.5 -6.5t-42.5 -6.5t-52 -5t-55 -2q-71 0 -121 12t-82 38.5t-47 68.5t-15 102v116q0 60 11 102t38 68.5t71.5 38.5t112.5 12q67 0 110.5 -12t68 -38.5t34 -68.5t9.5 -102v-103h-343v-13q0 -65 36 -94.5t123 -29.5q26 0 53.5 2t51 5t41 7t25.5 7v-98z
M402 324q0 33 -5.5 56.5t-19 38t-36 21.5t-57.5 7q-68 0 -94.5 -28.5t-26.5 -94.5v-23h239v23zM322 579h-90l-150 176h96l99 -122l100 122h96z" />
    <glyph glyph-name="Gcircumflex" unicode="&#x11c;" horiz-adv-x="610" 
d="M432 389h118v-389q-29 -9 -88 -13.5t-134 -4.5q-68 0 -119.5 14.5t-85.5 47.5t-51 85t-17 127v198q0 75 19 127t56.5 85t93 47.5t129.5 14.5q66 0 112.5 -9t65.5 -17v-117q-24 8 -69 15t-102 7q-42 0 -75 -7.5t-56.5 -25.5t-36 -48.5t-12.5 -75.5v-194q0 -88 39 -123
t112 -35q35 0 59.5 1.5t41.5 6.5v283zM425 763l-100 121l-100 -121h-96l151 176h90l150 -176h-95z" />
    <glyph glyph-name="gcircumflex" unicode="&#x11d;" horiz-adv-x="586" 
d="M404 99q-35 -39 -83.5 -61.5t-108.5 -22.5q-87 0 -124 50t-37 158v119q0 51 9.5 88.5t33.5 61.5t65 36t104 12q53 0 92.5 -5.5t69.5 -15t53 -21.5t42 -24v-496q0 -59 -16 -100.5t-48.5 -67.5t-80.5 -38t-111 -12q-57 0 -98.5 7t-56.5 14v106q18 -8 55.5 -14.5t92.5 -6.5
q72 0 109.5 28t37.5 94v111zM404 412q-20 13 -49.5 20.5t-84.5 7.5q-58 0 -79.5 -25.5t-21.5 -89.5v-93q0 -60 19 -88.5t70 -28.5q45 0 82 21t64 53v223zM393 579l-100 121l-100 -121h-96l151 176h90l150 -176h-95z" />
    <glyph glyph-name="Gbreve" unicode="&#x11e;" horiz-adv-x="610" 
d="M432 389h118v-389q-29 -9 -88 -13.5t-134 -4.5q-68 0 -119.5 14.5t-85.5 47.5t-51 85t-17 127v198q0 75 19 127t56.5 85t93 47.5t129.5 14.5q66 0 112.5 -9t65.5 -17v-117q-24 8 -69 15t-102 7q-42 0 -75 -7.5t-56.5 -25.5t-36 -48.5t-12.5 -75.5v-194q0 -88 39 -123
t112 -35q35 0 59.5 1.5t41.5 6.5v283zM491 935q0 -45 -13.5 -78t-36.5 -55t-54 -33t-66 -11t-66.5 11t-54.5 33t-36.5 55t-13.5 78h76q2 -54 25 -79.5t70 -25.5t70 25.5t25 79.5h75z" />
    <glyph glyph-name="gbreve" unicode="&#x11f;" horiz-adv-x="586" 
d="M404 99q-35 -39 -83.5 -61.5t-108.5 -22.5q-87 0 -124 50t-37 158v119q0 51 9.5 88.5t33.5 61.5t65 36t104 12q53 0 92.5 -5.5t69.5 -15t53 -21.5t42 -24v-496q0 -59 -16 -100.5t-48.5 -67.5t-80.5 -38t-111 -12q-57 0 -98.5 7t-56.5 14v106q18 -8 55.5 -14.5t92.5 -6.5
q72 0 109.5 28t37.5 94v111zM404 412q-20 13 -49.5 20.5t-84.5 7.5q-58 0 -79.5 -25.5t-21.5 -89.5v-93q0 -60 19 -88.5t70 -28.5q45 0 82 21t64 53v223zM463 751q0 -45 -13.5 -78t-36.5 -55t-54 -33t-66 -11t-66.5 11t-54.5 33t-36.5 55t-13.5 78h76q2 -54 25 -79.5
t70 -25.5t70 25.5t25 79.5h75z" />
    <glyph glyph-name="Gdotaccent" unicode="&#x120;" horiz-adv-x="610" 
d="M432 389h118v-389q-29 -9 -88 -13.5t-134 -4.5q-68 0 -119.5 14.5t-85.5 47.5t-51 85t-17 127v198q0 75 19 127t56.5 85t93 47.5t129.5 14.5q66 0 112.5 -9t65.5 -17v-117q-24 8 -69 15t-102 7q-42 0 -75 -7.5t-56.5 -25.5t-36 -48.5t-12.5 -75.5v-194q0 -88 39 -123
t112 -35q35 0 59.5 1.5t41.5 6.5v283zM267 774v129h116v-129h-116z" />
    <glyph glyph-name="gdotaccent" unicode="&#x121;" horiz-adv-x="586" 
d="M404 99q-35 -39 -83.5 -61.5t-108.5 -22.5q-87 0 -124 50t-37 158v119q0 51 9.5 88.5t33.5 61.5t65 36t104 12q53 0 92.5 -5.5t69.5 -15t53 -21.5t42 -24v-496q0 -59 -16 -100.5t-48.5 -67.5t-80.5 -38t-111 -12q-57 0 -98.5 7t-56.5 14v106q18 -8 55.5 -14.5t92.5 -6.5
q72 0 109.5 28t37.5 94v111zM404 412q-20 13 -49.5 20.5t-84.5 7.5q-58 0 -79.5 -25.5t-21.5 -89.5v-93q0 -60 19 -88.5t70 -28.5q45 0 82 21t64 53v223zM235 590v129h116v-129h-116z" />
    <glyph glyph-name="uni0122" unicode="&#x122;" horiz-adv-x="610" 
d="M432 389h118v-389q-29 -9 -88 -13.5t-134 -4.5q-68 0 -119.5 14.5t-85.5 47.5t-51 85t-17 127v198q0 75 19 127t56.5 85t93 47.5t129.5 14.5q66 0 112.5 -9t65.5 -17v-117q-24 8 -69 15t-102 7q-42 0 -75 -7.5t-56.5 -25.5t-36 -48.5t-12.5 -75.5v-194q0 -88 39 -123
t112 -35q35 0 59.5 1.5t41.5 6.5v283zM273 -36h112l-7 -79q-10 -119 -114 -125z" />
    <glyph glyph-name="uni0123" unicode="&#x123;" horiz-adv-x="586" 
d="M404 99q-35 -39 -83.5 -61.5t-108.5 -22.5q-87 0 -124 50t-37 158v119q0 51 9.5 88.5t33.5 61.5t65 36t104 12q53 0 92.5 -5.5t69.5 -15t53 -21.5t42 -24v-496q0 -59 -16 -100.5t-48.5 -67.5t-80.5 -38t-111 -12q-57 0 -98.5 7t-56.5 14v106q18 -8 55.5 -14.5t92.5 -6.5
q72 0 109.5 28t37.5 94v111zM404 412q-20 13 -49.5 20.5t-84.5 7.5q-58 0 -79.5 -25.5t-21.5 -89.5v-93q0 -60 19 -88.5t70 -28.5q45 0 82 21t64 53v223zM344.004 593.998h-111.992l6.99902 78.9951q9.99902 118.992 113.993 124.992z" />
    <glyph glyph-name="Hcircumflex" unicode="&#x124;" horiz-adv-x="667" 
d="M471 0v307h-275v-307h-126v710h126v-299h275v299h126v-710h-126zM434 763l-100 121l-100 -121h-96l151 176h90l150 -176h-95z" />
    <glyph glyph-name="hcircumflex" unicode="&#x125;" horiz-adv-x="609" 
d="M429 0v361q0 39 -21.5 56t-65.5 17q-52 0 -90 -17.5t-68 -52.5v-364h-116v719h116v-257q38 38 88.5 58t115.5 20q81 0 119 -35t38 -108v-397h-116zM364 763l-100 121l-100 -121h-96l151 176h90l150 -176h-95z" />
    <glyph glyph-name="Hbar" unicode="&#x126;" horiz-adv-x="667" 
d="M471 0v307h-275v-307h-126v710h126v-115h275v115h126v-710h-126zM471 411v103h-275v-103h275z" />
    <glyph glyph-name="hbar" unicode="&#x127;" horiz-adv-x="609" 
d="M184 569v-107q38 38 88.5 58t115.5 20q81 0 119 -35t38 -108v-397h-116v361q0 39 -21.5 56t-65.5 17q-52 0 -90 -17.5t-68 -52.5v-364h-116v569h-68v81h68v69h116v-69h155v-81h-155z" />
    <glyph glyph-name="Itilde" unicode="&#x128;" horiz-adv-x="275" 
d="M74 0v710h126v-710h-126zM312 809q-14 -18 -36.5 -31.5t-54.5 -13.5q-26 0 -47 7.5t-40.5 17t-38 17t-37.5 7.5q-29 0 -51 -12.5t-42 -38.5v78q14 18 36 32t54 14q25 0 46 -7.5t40.5 -17t38.5 -17t40 -7.5q28 0 50 12.5t42 38.5v-79z" />
    <glyph glyph-name="itilde" unicode="&#x129;" horiz-adv-x="326" 
d="M105 0v526h116v-526h-116zM338 625q-14 -18 -36.5 -31.5t-54.5 -13.5q-26 0 -47 7.5t-40.5 17t-38 17t-37.5 7.5q-29 0 -51 -12.5t-42 -38.5v78q14 18 36 32t54 14q25 0 46 -7.5t40.5 -17t38.5 -17t40 -7.5q28 0 50 12.5t42 38.5v-79z" />
    <glyph glyph-name="Imacron" unicode="&#x12a;" horiz-adv-x="275" 
d="M74 0v710h126v-710h-126zM-31 776v81h339v-81h-339z" />
    <glyph glyph-name="imacron" unicode="&#x12b;" horiz-adv-x="326" 
d="M105 0v526h116v-526h-116zM-5 592v81h339v-81h-339z" />
    <glyph glyph-name="Ibreve" unicode="&#x12c;" horiz-adv-x="275" 
d="M74 0v710h126v-710h-126zM309 935q0 -45 -13.5 -78t-36.5 -55t-54 -33t-66 -11t-66.5 11t-54.5 33t-36.5 55t-13.5 78h76q2 -54 25 -79.5t70 -25.5t70 25.5t25 79.5h75z" />
    <glyph glyph-name="ibreve" unicode="&#x12d;" horiz-adv-x="320" 
d="M102 0v526h116v-526h-116zM332 751q0 -45 -13.5 -78t-36.5 -55t-54 -33t-66 -11t-66.5 11t-54.5 33t-36.5 55t-13.5 78h76q2 -54 25 -79.5t70 -25.5t70 25.5t25 79.5h75z" />
    <glyph glyph-name="Iogonek" unicode="&#x12e;" horiz-adv-x="275" 
d="M199 -233q-8 -3 -25.5 -5t-46.5 -2q-50 0 -81.5 8.5t-49 23t-23.5 33.5t-6 40q0 43 29 68t78 42l74 25h-74v710h126v-710l-84 -37q-31 -14 -41.5 -27t-10.5 -31q0 -23 17.5 -36t61.5 -13q23 0 35 2t21 5v-96z" />
    <glyph glyph-name="iogonek" unicode="&#x12f;" horiz-adv-x="257" 
d="M185 -233q-8 -3 -25.5 -5t-46.5 -2q-50 0 -81.5 8.5t-49 23t-23.5 33.5t-6 40q0 43 29 68t78 42l74 25h-64v526h116v-526l-84 -37q-31 -14 -41.5 -27t-10.5 -31q0 -23 17.5 -36t61.5 -13q23 0 35 2t21 5v-96zM70 590v129h116v-129h-116z" />
    <glyph glyph-name="Idotaccent" unicode="&#x130;" horiz-adv-x="275" 
d="M74 0v710h126v-710h-126zM79 774v129h116v-129h-116z" />
    <glyph glyph-name="dotlessi" unicode="&#x131;" horiz-adv-x="257" 
d="M70 0v526h116v-526h-116z" />
    <glyph glyph-name="IJ" unicode="&#x132;" horiz-adv-x="753" 
d="M74 0v710h126v-710h-126zM567 710h126v-454q0 -75 -15 -127t-47 -85t-82.5 -47.5t-120.5 -14.5q-54 0 -89 8.5t-49 16.5v118q21 -10 53.5 -17.5t87.5 -7.5q70 0 103 36t33 122v452z" />
    <glyph glyph-name="ij" unicode="&#x133;" horiz-adv-x="528" 
d="M70 0v526h116v-526h-116zM70 590v129h116v-129h-116zM346 526h113v-547q0 -52 -10 -93t-34 -69t-63 -42.5t-97 -14.5q-35 0 -62.5 6.5t-49.5 17.5v104q20 -9 43.5 -15t55.5 -6q54 0 79 28.5t25 87.5v543zM346 590v129h113v-129h-113z" />
    <glyph glyph-name="Jcircumflex" unicode="&#x134;" horiz-adv-x="478" 
d="M292 710h126v-454q0 -75 -15 -127t-47 -85t-82.5 -47.5t-120.5 -14.5q-54 0 -89 8.5t-49 16.5v118q21 -10 53.5 -17.5t87.5 -7.5q70 0 103 36t33 122v452zM430 763l-100 121l-100 -121h-96l151 176h90l150 -176h-95z" />
    <glyph glyph-name="jcircumflex" unicode="&#x135;" horiz-adv-x="340" 
d="M136 526h113v-547q0 -52 -10 -93t-34 -69t-63 -42.5t-97 -14.5q-35 0 -62.5 6.5t-49.5 17.5v104q20 -9 43.5 -15t55.5 -6q54 0 79 28.5t25 87.5v543zM274 579l-100 121l-100 -121h-96l151 176h90l150 -176h-95z" />
    <glyph glyph-name="uni0136" unicode="&#x136;" horiz-adv-x="626" 
d="M460 0l-266 360v-360h-124v710h124v-309l254 309h153l-278 -322l296 -388h-159zM261 -36h112l-7 -79q-10 -119 -114 -125z" />
    <glyph glyph-name="uni0137" unicode="&#x137;" horiz-adv-x="550" 
d="M395 0l-211 256v-256h-116v719h116v-424l201 231h146l-230 -246l243 -280h-149zM223 -36h112l-7 -79q-10 -119 -114 -125z" />
    <glyph glyph-name="Lacute" unicode="&#x139;" horiz-adv-x="482" 
d="M70 0v710h126v-602h261v-108h-387zM76 764l86 186h118l-124 -186h-80z" />
    <glyph glyph-name="lacute" unicode="&#x13a;" horiz-adv-x="253" 
d="M68 0v719h116v-719h-116zM73 764l86 186h118l-124 -186h-80z" />
    <glyph glyph-name="uni013B" unicode="&#x13b;" horiz-adv-x="482" 
d="M70 0v710h126v-602h261v-108h-387zM209 -36h112l-7 -79q-10 -119 -114 -125z" />
    <glyph glyph-name="uni013C" unicode="&#x13c;" horiz-adv-x="253" 
d="M68 0v719h116v-719h-116zM75 -36h112l-7 -79q-10 -119 -114 -125z" />
    <glyph glyph-name="Lcaron" unicode="&#x13d;" horiz-adv-x="482" 
d="M70 0v710h126v-602h261v-108h-387zM276 719h125l-10 -142q-5 -76 -37 -118.5t-89 -46.5z" />
    <glyph glyph-name="lcaron" unicode="&#x13e;" horiz-adv-x="378" 
d="M68 0v719h116v-719h-116zM253 719h125l-10 -142q-5 -76 -37 -118.5t-89 -46.5z" />
    <glyph glyph-name="Ldot" unicode="&#x13f;" horiz-adv-x="482" 
d="M70 0v710h126v-602h261v-108h-387zM267 311v129h116v-129h-116z" />
    <glyph glyph-name="ldot" unicode="&#x140;" horiz-adv-x="353" 
d="M68 0v719h116v-719h-116zM237 301v129h116v-129h-116z" />
    <glyph glyph-name="Lslash" unicode="&#x141;" horiz-adv-x="482" 
d="M70 0v710h126v-328l131 85v-91l-131 -86v-182h261v-108h-387z" />
    <glyph glyph-name="lslash" unicode="&#x142;" horiz-adv-x="295" 
d="M90 0v284l-71 -35v87l71 36v347h115v-291l72 37v-88l-72 -37v-340h-115z" />
    <glyph glyph-name="Nacute" unicode="&#x143;" horiz-adv-x="679" 
d="M500 0l-314 529v-529h-118v710h151l272 -472v472h120v-710h-111zM267 764l86 186h118l-124 -186h-80z" />
    <glyph glyph-name="nacute" unicode="&#x144;" horiz-adv-x="607" 
d="M427 0v361q0 38 -21.5 54.5t-65.5 16.5q-52 0 -90 -17t-68 -52v-363h-116v526h107l3 -79q32 45 82 69t128 24q81 0 119 -35t38 -108v-397h-116zM231 580l86 186h118l-124 -186h-80z" />
    <glyph glyph-name="uni0145" unicode="&#x145;" horiz-adv-x="679" 
d="M500 0l-314 529v-529h-118v710h151l272 -472v472h120v-710h-111zM288 -36h112l-7 -79q-10 -119 -114 -125z" />
    <glyph glyph-name="uni0146" unicode="&#x146;" horiz-adv-x="607" 
d="M427 0v361q0 38 -21.5 54.5t-65.5 16.5q-52 0 -90 -17t-68 -52v-363h-116v526h107l3 -79q32 45 82 69t128 24q81 0 119 -35t38 -108v-397h-116zM252 -36h112l-7 -79q-10 -119 -114 -125z" />
    <glyph glyph-name="Ncaron" unicode="&#x147;" horiz-adv-x="679" 
d="M500 0l-314 529v-529h-118v710h151l272 -472v472h120v-710h-111zM384 763h-90l-150 176h96l99 -122l100 122h96z" />
    <glyph glyph-name="ncaron" unicode="&#x148;" horiz-adv-x="607" 
d="M427 0v361q0 38 -21.5 54.5t-65.5 16.5q-52 0 -90 -17t-68 -52v-363h-116v526h107l3 -79q32 45 82 69t128 24q81 0 119 -35t38 -108v-397h-116zM348 579h-90l-150 176h96l99 -122l100 122h96z" />
    <glyph glyph-name="Eng" unicode="&#x14a;" horiz-adv-x="679" 
d="M491 15l-305 514v-529h-118v710h151l272 -472v472h120v-731q0 -52 -10 -93t-34 -69t-63 -42.5t-97 -14.5q-35 0 -62.5 6.5t-49.5 17.5v104q20 -9 43.5 -15t55.5 -6q54 0 75.5 28.5t21.5 87.5v32z" />
    <glyph glyph-name="eng" unicode="&#x14b;" horiz-adv-x="607" 
d="M427 361q0 38 -21.5 54.5t-65.5 16.5q-52 0 -90 -17t-68 -52v-363h-116v526h107l3 -79q32 45 82 69t128 24q81 0 119 -35t38 -108v-418q0 -52 -10 -93t-34 -69t-63 -42.5t-97 -14.5q-35 0 -62.5 6.5t-49.5 17.5v104q20 -9 43.5 -15t55.5 -6q54 0 77.5 28.5t23.5 87.5v378
z" />
    <glyph glyph-name="Omacron" unicode="&#x14c;" horiz-adv-x="677" 
d="M620 256q0 -75 -17 -127t-52 -85t-88 -47.5t-125 -14.5t-125 14.5t-88 47.5t-52 85t-17 127v198q0 75 17 127t52 85t88 47.5t125 14.5t125 -14.5t88 -47.5t52 -85t17 -127v-198zM497 456q0 84 -38 119.5t-121 35.5t-120 -35t-37 -119v-206q0 -83 37 -118t120 -35
q79 0 119 34t40 121v203zM169 776v81h339v-81h-339z" />
    <glyph glyph-name="omacron" unicode="&#x14d;" horiz-adv-x="579" 
d="M528 188q0 -56 -14.5 -95.5t-44 -64t-74.5 -35.5t-106 -11q-60 0 -105 11t-74.5 35.5t-44 64t-14.5 95.5v146q0 112 58.5 159t179.5 47t180 -47t59 -159v-146zM415 330q0 58 -32 83t-94 25q-65 0 -94.5 -26.5t-29.5 -81.5v-138q0 -58 31.5 -83.5t92.5 -25.5q62 0 94 25.5
t32 83.5v138zM120 592v81h339v-81h-339z" />
    <glyph glyph-name="Obreve" unicode="&#x14e;" horiz-adv-x="677" 
d="M620 256q0 -75 -17 -127t-52 -85t-88 -47.5t-125 -14.5t-125 14.5t-88 47.5t-52 85t-17 127v198q0 75 17 127t52 85t88 47.5t125 14.5t125 -14.5t88 -47.5t52 -85t17 -127v-198zM497 456q0 84 -38 119.5t-121 35.5t-120 -35t-37 -119v-206q0 -83 37 -118t120 -35
q79 0 119 34t40 121v203zM509 935q0 -45 -13.5 -78t-36.5 -55t-54 -33t-66 -11t-66.5 11t-54.5 33t-36.5 55t-13.5 78h76q2 -54 25 -79.5t70 -25.5t70 25.5t25 79.5h75z" />
    <glyph glyph-name="obreve" unicode="&#x14f;" horiz-adv-x="579" 
d="M528 188q0 -56 -14.5 -95.5t-44 -64t-74.5 -35.5t-106 -11q-60 0 -105 11t-74.5 35.5t-44 64t-14.5 95.5v146q0 112 58.5 159t179.5 47t180 -47t59 -159v-146zM415 330q0 58 -32 83t-94 25q-65 0 -94.5 -26.5t-29.5 -81.5v-138q0 -58 31.5 -83.5t92.5 -25.5q62 0 94 25.5
t32 83.5v138zM460 751q0 -45 -13.5 -78t-36.5 -55t-54 -33t-66 -11t-66.5 11t-54.5 33t-36.5 55t-13.5 78h76q2 -54 25 -79.5t70 -25.5t70 25.5t25 79.5h75z" />
    <glyph glyph-name="Ohungarumlaut" unicode="&#x150;" horiz-adv-x="677" 
d="M620 256q0 -75 -17 -127t-52 -85t-88 -47.5t-125 -14.5t-125 14.5t-88 47.5t-52 85t-17 127v198q0 75 17 127t52 85t88 47.5t125 14.5t125 -14.5t88 -47.5t52 -85t17 -127v-198zM497 456q0 84 -38 119.5t-121 35.5t-120 -35t-37 -119v-206q0 -83 37 -118t120 -35
q79 0 119 34t40 121v203zM170 764l86 186h118l-124 -186h-80zM363 764l85 186h118l-124 -186h-79z" />
    <glyph glyph-name="ohungarumlaut" unicode="&#x151;" horiz-adv-x="579" 
d="M528 188q0 -56 -14.5 -95.5t-44 -64t-74.5 -35.5t-106 -11q-60 0 -105 11t-74.5 35.5t-44 64t-14.5 95.5v146q0 112 58.5 159t179.5 47t180 -47t59 -159v-146zM415 330q0 58 -32 83t-94 25q-65 0 -94.5 -26.5t-29.5 -81.5v-138q0 -58 31.5 -83.5t92.5 -25.5q62 0 94 25.5
t32 83.5v138zM121 580l86 186h118l-124 -186h-80zM314 580l85 186h118l-124 -186h-79z" />
    <glyph glyph-name="OE" unicode="&#x152;" horiz-adv-x="899" 
d="M337 0q-72 0 -125 12t-88 41t-52 78.5t-17 124.5v198q0 75 17 124.5t52 78.5t88 41t125 12h515v-109h-294v-179h273v-102h-273v-212h300v-108h-521zM432 601h-95q-84 0 -120.5 -34.5t-36.5 -115.5v-191q0 -87 39.5 -119.5t117.5 -32.5h95v493z" />
    <glyph glyph-name="oe" unicode="&#x153;" horiz-adv-x="918" 
d="M855 2q-8 -3 -26 -6.5t-42 -6.5t-52 -5t-57 -2q-80 0 -129.5 17.5t-75.5 57.5q-23 -40 -68.5 -57.5t-115.5 -17.5q-60 0 -105 11.5t-74.5 36.5t-44 64.5t-14.5 95.5v143q0 111 57.5 158t176.5 47q68 0 112.5 -15.5t69.5 -52.5q22 37 64.5 53.5t114.5 16.5
q67 0 110.5 -12.5t68 -39t34 -68.5t9.5 -101v-103h-343v-17q0 -63 36.5 -91t123.5 -28q29 0 56.5 2t50 5.5t39 7t24.5 6.5v-99zM764 324q0 33 -5.5 56.5t-19 38t-36 21.5t-57.5 7q-69 0 -95 -28.5t-26 -94.5v-23h239v23zM414 328q0 58 -31.5 83t-93.5 25q-65 0 -94 -26.5
t-29 -81.5v-134q0 -58 31 -84t92 -26q62 0 93.5 26t31.5 84v134z" />
    <glyph glyph-name="Racute" unicode="&#x154;" horiz-adv-x="631" 
d="M455 0v210q0 49 -19 71t-61 22h-183v-303h-122v710h320q49 0 83 -12.5t55 -34.5t30 -52.5t9 -66.5v-40q0 -38 -6 -63.5t-16.5 -41.5t-25.5 -25.5t-33 -16.5q18 -5 35 -14t30.5 -25.5t21.5 -42t8 -64.5v-211h-126zM449 495q0 54 -16.5 80.5t-68.5 26.5h-172v-198h181
q40 0 58 22.5t18 68.5zM243 764l86 186h118l-124 -186h-80z" />
    <glyph glyph-name="racute" unicode="&#x155;" horiz-adv-x="404" 
d="M66 0v526h108l3 -78q34 48 80.5 69t121.5 23v-111h-15q-54 0 -99 -14t-83 -56v-359h-116zM130 580l86 186h118l-124 -186h-80z" />
    <glyph glyph-name="uni0156" unicode="&#x156;" horiz-adv-x="631" 
d="M455 0v210q0 49 -19 71t-61 22h-183v-303h-122v710h320q49 0 83 -12.5t55 -34.5t30 -52.5t9 -66.5v-40q0 -38 -6 -63.5t-16.5 -41.5t-25.5 -25.5t-33 -16.5q18 -5 35 -14t30.5 -25.5t21.5 -42t8 -64.5v-211h-126zM449 495q0 54 -16.5 80.5t-68.5 26.5h-172v-198h181
q40 0 58 22.5t18 68.5zM264 -36h112l-7 -79q-10 -119 -114 -125z" />
    <glyph glyph-name="uni0157" unicode="&#x157;" horiz-adv-x="404" 
d="M66 0v526h108l3 -78q34 48 80.5 69t121.5 23v-111h-15q-54 0 -99 -14t-83 -56v-359h-116zM71 -36h112l-7 -79q-10 -119 -114 -125z" />
    <glyph glyph-name="Rcaron" unicode="&#x158;" horiz-adv-x="631" 
d="M455 0v210q0 49 -19 71t-61 22h-183v-303h-122v710h320q49 0 83 -12.5t55 -34.5t30 -52.5t9 -66.5v-40q0 -38 -6 -63.5t-16.5 -41.5t-25.5 -25.5t-33 -16.5q18 -5 35 -14t30.5 -25.5t21.5 -42t8 -64.5v-211h-126zM449 495q0 54 -16.5 80.5t-68.5 26.5h-172v-198h181
q40 0 58 22.5t18 68.5zM350 763h-90l-150 176h96l99 -122l100 122h96z" />
    <glyph glyph-name="rcaron" unicode="&#x159;" horiz-adv-x="404" 
d="M66 0v526h108l3 -78q34 48 80.5 69t121.5 23v-111h-15q-54 0 -99 -14t-83 -56v-359h-116zM248 579h-90l-150 176h96l99 -122l100 122h96z" />
    <glyph glyph-name="Sacute" unicode="&#x15a;" 
d="M408 209q0 29 -8.5 47t-35.5 29q-17 7 -41.5 11.5t-53 8.5t-59 9t-58.5 14q-57 17 -80.5 56.5t-23.5 109.5v19q0 65 15.5 106.5t49 65.5t85 33.5t123.5 9.5q45 0 87.5 -6t83.5 -20v-117q-42 13 -84.5 19.5t-92.5 6.5q-44 0 -72.5 -5t-45 -15.5t-23 -26t-6.5 -37.5v-24
q0 -20 3.5 -32.5t11.5 -21.5t22.5 -15t37.5 -12q46 -13 95 -18t90 -19q22 -8 40.5 -20t32 -31.5t20.5 -48.5t7 -71v-33q0 -58 -18 -96.5t-53.5 -61t-88 -32t-122.5 -9.5q-54 0 -100 5.5t-86 19.5v115q41 -11 87 -18t102 -7q46 0 76.5 4.5t49 15t26 28t7.5 42.5v22zM214 764
l86 186h118l-124 -186h-80z" />
    <glyph glyph-name="sacute" unicode="&#x15b;" horiz-adv-x="530" 
d="M380 153q0 27 -11.5 37t-40.5 16q-26 5 -53 8.5t-54 6.5t-53.5 8t-50.5 13q-37 13 -58 39.5t-21 77.5v25q0 41 12.5 70.5t41.5 48.5t77.5 28t119.5 9q56 0 98.5 -6t80.5 -16v-96q-42 11 -84 16.5t-95 5.5q-41 0 -67.5 -2.5t-42 -9.5t-21.5 -20t-6 -34v-9q0 -14 3 -23
t12 -15t24.5 -10t40.5 -8q44 -7 89.5 -10t86.5 -15q48 -14 68 -43t20 -83v-32q0 -45 -19 -74t-53.5 -45.5t-82.5 -22.5t-106 -6q-64 0 -107.5 6t-78.5 16v99q32 -9 77.5 -16t107.5 -7q43 0 71.5 2.5t45 9t23 17t6.5 27.5v17zM193 580l86 186h118l-124 -186h-80z" />
    <glyph glyph-name="Scircumflex" unicode="&#x15c;" 
d="M408 209q0 29 -8.5 47t-35.5 29q-17 7 -41.5 11.5t-53 8.5t-59 9t-58.5 14q-57 17 -80.5 56.5t-23.5 109.5v19q0 65 15.5 106.5t49 65.5t85 33.5t123.5 9.5q45 0 87.5 -6t83.5 -20v-117q-42 13 -84.5 19.5t-92.5 6.5q-44 0 -72.5 -5t-45 -15.5t-23 -26t-6.5 -37.5v-24
q0 -20 3.5 -32.5t11.5 -21.5t22.5 -15t37.5 -12q46 -13 95 -18t90 -19q22 -8 40.5 -20t32 -31.5t20.5 -48.5t7 -71v-33q0 -58 -18 -96.5t-53.5 -61t-88 -32t-122.5 -9.5q-54 0 -100 5.5t-86 19.5v115q41 -11 87 -18t102 -7q46 0 76.5 4.5t49 15t26 28t7.5 42.5v22zM387 763
l-100 121l-100 -121h-96l151 176h90l150 -176h-95z" />
    <glyph glyph-name="scircumflex" unicode="&#x15d;" horiz-adv-x="530" 
d="M380 153q0 27 -11.5 37t-40.5 16q-26 5 -53 8.5t-54 6.5t-53.5 8t-50.5 13q-37 13 -58 39.5t-21 77.5v25q0 41 12.5 70.5t41.5 48.5t77.5 28t119.5 9q56 0 98.5 -6t80.5 -16v-96q-42 11 -84 16.5t-95 5.5q-41 0 -67.5 -2.5t-42 -9.5t-21.5 -20t-6 -34v-9q0 -14 3 -23
t12 -15t24.5 -10t40.5 -8q44 -7 89.5 -10t86.5 -15q48 -14 68 -43t20 -83v-32q0 -45 -19 -74t-53.5 -45.5t-82.5 -22.5t-106 -6q-64 0 -107.5 6t-78.5 16v99q32 -9 77.5 -16t107.5 -7q43 0 71.5 2.5t45 9t23 17t6.5 27.5v17zM365 579l-100 121l-100 -121h-96l151 176h90
l150 -176h-95z" />
    <glyph glyph-name="Scedilla" unicode="&#x15e;" 
d="M408 209q0 29 -8.5 47t-35.5 29q-17 7 -41.5 11.5t-53 8.5t-59 9t-58.5 14q-57 17 -80.5 56.5t-23.5 109.5v19q0 65 15.5 106.5t49 65.5t85 33.5t123.5 9.5q45 0 87.5 -6t83.5 -20v-117q-42 13 -84.5 19.5t-92.5 6.5q-44 0 -72.5 -5t-45 -15.5t-23 -26t-6.5 -37.5v-24
q0 -20 3.5 -32.5t11.5 -21.5t22.5 -15t37.5 -12q46 -13 95 -18t90 -19q22 -8 40.5 -20t32 -31.5t20.5 -48.5t7 -71v-33q0 -58 -18 -96.5t-53.5 -61t-88 -32t-122.5 -9.5q-54 0 -100 5.5t-86 19.5v115q41 -11 87 -18t102 -7q46 0 76.5 4.5t49 15t26 28t7.5 42.5v22zM235 -36
h112l-7 -79q-10 -119 -114 -125z" />
    <glyph glyph-name="scedilla" unicode="&#x15f;" horiz-adv-x="530" 
d="M380 153q0 27 -11.5 37t-40.5 16q-26 5 -53 8.5t-54 6.5t-53.5 8t-50.5 13q-37 13 -58 39.5t-21 77.5v25q0 41 12.5 70.5t41.5 48.5t77.5 28t119.5 9q56 0 98.5 -6t80.5 -16v-96q-42 11 -84 16.5t-95 5.5q-41 0 -67.5 -2.5t-42 -9.5t-21.5 -20t-6 -34v-9q0 -14 3 -23
t12 -15t24.5 -10t40.5 -8q44 -7 89.5 -10t86.5 -15q48 -14 68 -43t20 -83v-32q0 -45 -19 -74t-53.5 -45.5t-82.5 -22.5t-106 -6q-64 0 -107.5 6t-78.5 16v99q32 -9 77.5 -16t107.5 -7q43 0 71.5 2.5t45 9t23 17t6.5 27.5v17zM213 -36h112l-7 -79q-10 -119 -114 -125z" />
    <glyph glyph-name="Scaron" unicode="&#x160;" 
d="M408 209q0 29 -8.5 47t-35.5 29q-17 7 -41.5 11.5t-53 8.5t-59 9t-58.5 14q-57 17 -80.5 56.5t-23.5 109.5v19q0 65 15.5 106.5t49 65.5t85 33.5t123.5 9.5q45 0 87.5 -6t83.5 -20v-117q-42 13 -84.5 19.5t-92.5 6.5q-44 0 -72.5 -5t-45 -15.5t-23 -26t-6.5 -37.5v-24
q0 -20 3.5 -32.5t11.5 -21.5t22.5 -15t37.5 -12q46 -13 95 -18t90 -19q22 -8 40.5 -20t32 -31.5t20.5 -48.5t7 -71v-33q0 -58 -18 -96.5t-53.5 -61t-88 -32t-122.5 -9.5q-54 0 -100 5.5t-86 19.5v115q41 -11 87 -18t102 -7q46 0 76.5 4.5t49 15t26 28t7.5 42.5v22zM341 763
h-90l-150 176h96l99 -122l100 122h96z" />
    <glyph glyph-name="scaron" unicode="&#x161;" horiz-adv-x="530" 
d="M380 153q0 27 -11.5 37t-40.5 16q-26 5 -53 8.5t-54 6.5t-53.5 8t-50.5 13q-37 13 -58 39.5t-21 77.5v25q0 41 12.5 70.5t41.5 48.5t77.5 28t119.5 9q56 0 98.5 -6t80.5 -16v-96q-42 11 -84 16.5t-95 5.5q-41 0 -67.5 -2.5t-42 -9.5t-21.5 -20t-6 -34v-9q0 -14 3 -23
t12 -15t24.5 -10t40.5 -8q44 -7 89.5 -10t86.5 -15q48 -14 68 -43t20 -83v-32q0 -45 -19 -74t-53.5 -45.5t-82.5 -22.5t-106 -6q-64 0 -107.5 6t-78.5 16v99q32 -9 77.5 -16t107.5 -7q43 0 71.5 2.5t45 9t23 17t6.5 27.5v17zM309 579h-90l-150 176h96l99 -122l100 122h96z
" />
    <glyph glyph-name="uni0162" unicode="&#x162;" horiz-adv-x="532" 
d="M202 0v601h-181v109h490v-109h-183v-601h-126zM207 -36h112l-7 -79q-10 -119 -114 -125z" />
    <glyph glyph-name="uni0163" unicode="&#x163;" horiz-adv-x="341" 
d="M320 -7q-17 -6 -38 -8.5t-55 -2.5q-76 0 -116.5 36.5t-40.5 117.5v304h-55v86h55v129h114v-129h136v-86h-136v-295q0 -37 16.5 -53t58.5 -16q38 0 61 8v-91zM139 -36h112l-7 -79q-10 -119 -114 -125z" />
    <glyph glyph-name="Tcaron" unicode="&#x164;" horiz-adv-x="532" 
d="M202 0v601h-181v109h490v-109h-183v-601h-126zM310 763h-90l-150 176h96l99 -122l100 122h96z" />
    <glyph glyph-name="tcaron" unicode="&#x165;" horiz-adv-x="474" 
d="M320 -7q-17 -6 -38 -8.5t-55 -2.5q-76 0 -116.5 36.5t-40.5 117.5v304h-55v86h55v129h114v-129h136v-86h-136v-295q0 -37 16.5 -53t58.5 -16q38 0 61 8v-91zM349 719h125l-10 -142q-5 -76 -37 -118.5t-89 -46.5z" />
    <glyph glyph-name="Tbar" unicode="&#x166;" horiz-adv-x="532" 
d="M202 0v251h-97v91h97v259h-181v109h490v-109h-183v-259h99v-91h-99v-251h-126z" />
    <glyph glyph-name="tbar" unicode="&#x167;" horiz-adv-x="341" 
d="M184 193v-48q0 -37 16.5 -53t58.5 -16q38 0 61 8v-91q-17 -6 -38 -8.5t-55 -2.5q-76 0 -116.5 36.5t-40.5 117.5v57h-51v91h51v156h-55v86h55v129h114v-129h136v-86h-136v-156h117v-91h-117z" />
    <glyph glyph-name="Utilde" unicode="&#x168;" horiz-adv-x="661" 
d="M476 710h125v-469q0 -71 -12.5 -120t-43.5 -80t-83.5 -45t-131.5 -14q-80 0 -132 14t-83 45t-43.5 80t-12.5 120v469h128v-470q0 -40 6.5 -67t23 -43.5t44 -23.5t70.5 -7q40 0 68 7t45 23.5t24.5 43.5t7.5 68v469zM504 809q-14 -18 -36.5 -31.5t-54.5 -13.5
q-26 0 -47 7.5t-40.5 17t-38 17t-37.5 7.5q-29 0 -51 -12.5t-42 -38.5v78q14 18 36 32t54 14q25 0 46 -7.5t40.5 -17t38.5 -17t40 -7.5q28 0 50 12.5t42 38.5v-79z" />
    <glyph glyph-name="utilde" unicode="&#x169;" horiz-adv-x="580" 
d="M412 526h113v-364q0 -96 -60 -138t-174 -42q-113 0 -174.5 42t-61.5 138v364h115v-357q0 -48 28.5 -65t92.5 -17q65 0 93 17.5t28 64.5v357zM463 625q-14 -18 -36.5 -31.5t-54.5 -13.5q-26 0 -47 7.5t-40.5 17t-38 17t-37.5 7.5q-29 0 -51 -12.5t-42 -38.5v78
q14 18 36 32t54 14q25 0 46 -7.5t40.5 -17t38.5 -17t40 -7.5q28 0 50 12.5t42 38.5v-79z" />
    <glyph glyph-name="Umacron" unicode="&#x16a;" horiz-adv-x="661" 
d="M476 710h125v-469q0 -71 -12.5 -120t-43.5 -80t-83.5 -45t-131.5 -14q-80 0 -132 14t-83 45t-43.5 80t-12.5 120v469h128v-470q0 -40 6.5 -67t23 -43.5t44 -23.5t70.5 -7q40 0 68 7t45 23.5t24.5 43.5t7.5 68v469zM161 776v81h339v-81h-339z" />
    <glyph glyph-name="umacron" unicode="&#x16b;" horiz-adv-x="580" 
d="M412 526h113v-364q0 -96 -60 -138t-174 -42q-113 0 -174.5 42t-61.5 138v364h115v-357q0 -48 28.5 -65t92.5 -17q65 0 93 17.5t28 64.5v357zM120 592v81h339v-81h-339z" />
    <glyph glyph-name="Ubreve" unicode="&#x16c;" horiz-adv-x="661" 
d="M476 710h125v-469q0 -71 -12.5 -120t-43.5 -80t-83.5 -45t-131.5 -14q-80 0 -132 14t-83 45t-43.5 80t-12.5 120v469h128v-470q0 -40 6.5 -67t23 -43.5t44 -23.5t70.5 -7q40 0 68 7t45 23.5t24.5 43.5t7.5 68v469zM501 935q0 -45 -13.5 -78t-36.5 -55t-54 -33t-66 -11
t-66.5 11t-54.5 33t-36.5 55t-13.5 78h76q2 -54 25 -79.5t70 -25.5t70 25.5t25 79.5h75z" />
    <glyph glyph-name="ubreve" unicode="&#x16d;" horiz-adv-x="580" 
d="M412 526h113v-364q0 -96 -60 -138t-174 -42q-113 0 -174.5 42t-61.5 138v364h115v-357q0 -48 28.5 -65t92.5 -17q65 0 93 17.5t28 64.5v357zM460 751q0 -45 -13.5 -78t-36.5 -55t-54 -33t-66 -11t-66.5 11t-54.5 33t-36.5 55t-13.5 78h76q2 -54 25 -79.5t70 -25.5
t70 25.5t25 79.5h75z" />
    <glyph glyph-name="Uring" unicode="&#x16e;" horiz-adv-x="661" 
d="M476 710h125v-469q0 -71 -12.5 -120t-43.5 -80t-83.5 -45t-131.5 -14q-80 0 -132 14t-83 45t-43.5 80t-12.5 120v469h128v-470q0 -40 6.5 -67t23 -43.5t44 -23.5t70.5 -7q40 0 68 7t45 23.5t24.5 43.5t7.5 68v469zM440 847q0 -51 -25 -76.5t-85 -25.5q-110 0 -110 102
q0 50 27 76.5t83 26.5q60 0 85 -26.5t25 -76.5zM390 847q0 29 -14 44t-46 15q-58 0 -58 -59q0 -57 58 -57q32 0 46 14t14 43z" />
    <glyph glyph-name="uring" unicode="&#x16f;" horiz-adv-x="580" 
d="M412 526h113v-364q0 -96 -60 -138t-174 -42q-113 0 -174.5 42t-61.5 138v364h115v-357q0 -48 28.5 -65t92.5 -17q65 0 93 17.5t28 64.5v357zM400 663q0 -51 -25 -76.5t-85 -25.5q-110 0 -110 102q0 50 27 76.5t83 26.5q60 0 85 -26.5t25 -76.5zM350 663q0 29 -14 44
t-46 15q-58 0 -58 -59q0 -57 58 -57q32 0 46 14t14 43z" />
    <glyph glyph-name="Uhungarumlaut" unicode="&#x170;" horiz-adv-x="661" 
d="M476 710h125v-469q0 -71 -12.5 -120t-43.5 -80t-83.5 -45t-131.5 -14q-80 0 -132 14t-83 45t-43.5 80t-12.5 120v469h128v-470q0 -40 6.5 -67t23 -43.5t44 -23.5t70.5 -7q40 0 68 7t45 23.5t24.5 43.5t7.5 68v469zM162 764l86 186h118l-124 -186h-80zM355 764l85 186h118
l-124 -186h-79z" />
    <glyph glyph-name="uhungarumlaut" unicode="&#x171;" horiz-adv-x="580" 
d="M412 526h113v-364q0 -96 -60 -138t-174 -42q-113 0 -174.5 42t-61.5 138v364h115v-357q0 -48 28.5 -65t92.5 -17q65 0 93 17.5t28 64.5v357zM122 580l86 186h118l-124 -186h-80zM315 580l85 186h118l-124 -186h-79z" />
    <glyph glyph-name="Uogonek" unicode="&#x172;" horiz-adv-x="661" 
d="M446 -233q-8 -3 -25.5 -5t-46.5 -2q-50 0 -81.5 8.5t-49 23t-23.5 33.5t-6 40q0 43 29 68t78 42l20 7q-84 0 -138.5 14t-86.5 45t-44.5 80t-12.5 120v469h128v-470q0 -40 6.5 -67t23 -43.5t44 -23.5t70.5 -7q40 0 68 7t45 23.5t24.5 43.5t7.5 68v469h125v-469
q0 -60 -9.5 -101.5t-31 -70.5t-56 -48t-85.5 -33q-38 -11 -60 -22t-32.5 -21.5t-13 -20.5t-2.5 -19q0 -23 17.5 -36t61.5 -13q23 0 35 2t21 5v-96z" />
    <glyph glyph-name="uogonek" unicode="&#x173;" horiz-adv-x="580" 
d="M384 -233q-8 -3 -25.5 -5t-46.5 -2q-50 0 -81.5 8.5t-49 23t-23.5 33.5t-6 40q0 43 29 68t78 42l21 7q-109 2 -167 44t-58 136v364h115v-357q0 -48 28.5 -65t92.5 -17q65 0 93 17.5t28 64.5v357h113v-364q0 -41 -11.5 -69.5t-34 -49t-55 -34t-73.5 -24.5
q-36 -10 -56.5 -20t-30.5 -20.5t-12.5 -20.5t-2.5 -19q0 -23 17.5 -36t61.5 -13q23 0 35 2t21 5v-96z" />
    <glyph glyph-name="Wcircumflex" unicode="&#x174;" horiz-adv-x="838" 
d="M520 0l-101 509l-112 -509h-146l-144 710h132l90 -540l122 540h121l110 -540l107 540h121l-154 -710h-146zM519 763l-100 121l-100 -121h-96l151 176h90l150 -176h-95z" />
    <glyph glyph-name="wcircumflex" unicode="&#x175;" horiz-adv-x="850" 
d="M524 0l-101 383l-111 -383h-152l-143 526h129l97 -414l121 414h121l113 -414l110 414h125l-153 -526h-156zM525 579l-100 121l-100 -121h-96l151 176h90l150 -176h-95z" />
    <glyph glyph-name="Ycircumflex" unicode="&#x176;" horiz-adv-x="590" 
d="M223 0v283l-215 427h133l148 -307l165 307h127l-233 -427v-283h-125zM395 763l-100 121l-100 -121h-96l151 176h90l150 -176h-95z" />
    <glyph glyph-name="ycircumflex" unicode="&#x177;" horiz-adv-x="595" 
d="M143 -228l88 214l-216 540h131l148 -407l161 407h125l-310 -754h-127zM398 579l-100 121l-100 -121h-96l151 176h90l150 -176h-95z" />
    <glyph glyph-name="Ydieresis" unicode="&#x178;" horiz-adv-x="590" 
d="M223 0v283l-215 427h133l148 -307l165 307h127l-233 -427v-283h-125zM121 774v129h116v-129h-116zM352 774v129h116v-129h-116z" />
    <glyph glyph-name="Zacute" unicode="&#x179;" horiz-adv-x="541" 
d="M37 0v119l322 482h-311v109h460v-88l-335 -514h335v-108h-471zM198 764l86 186h118l-124 -186h-80z" />
    <glyph glyph-name="zacute" unicode="&#x17a;" horiz-adv-x="523" 
d="M37 0v99l295 332h-278v95h429v-82l-298 -346h305v-98h-453zM189 580l86 186h118l-124 -186h-80z" />
    <glyph glyph-name="Zdotaccent" unicode="&#x17b;" horiz-adv-x="541" 
d="M37 0v119l322 482h-311v109h460v-88l-335 -514h335v-108h-471zM222 774v129h116v-129h-116z" />
    <glyph glyph-name="zdotaccent" unicode="&#x17c;" horiz-adv-x="523" 
d="M37 0v99l295 332h-278v95h429v-82l-298 -346h305v-98h-453zM213 590v129h116v-129h-116z" />
    <glyph glyph-name="Zcaron" unicode="&#x17d;" horiz-adv-x="541" 
d="M37 0v119l322 482h-311v109h460v-88l-335 -514h335v-108h-471zM325 763h-90l-150 176h96l99 -122l100 122h96z" />
    <glyph glyph-name="zcaron" unicode="&#x17e;" horiz-adv-x="523" 
d="M37 0v99l295 332h-278v95h429v-82l-298 -346h305v-98h-453zM312 579h-90l-150 176h96l99 -122l100 122h96z" />
    <glyph glyph-name="florin" unicode="&#x192;" horiz-adv-x="486" 
d="M333 502h94v-89h-107l-54 -379q-8 -52 -26 -86t-46.5 -53.5t-66.5 -27t-86 -7.5h-29v100h26q50 0 73.5 20.5t30.5 68.5l51 364h-79v89h93l6 38q9 54 27 89t45.5 55t66 27.5t87.5 7.5h26v-100h-31q-47 0 -69 -20t-27 -59z" />
    <glyph glyph-name="uni0218" unicode="&#x218;" 
d="M408 209q0 29 -8.5 47t-35.5 29q-17 7 -41.5 11.5t-53 8.5t-59 9t-58.5 14q-57 17 -80.5 56.5t-23.5 109.5v19q0 65 15.5 106.5t49 65.5t85 33.5t123.5 9.5q45 0 87.5 -6t83.5 -20v-117q-42 13 -84.5 19.5t-92.5 6.5q-44 0 -72.5 -5t-45 -15.5t-23 -26t-6.5 -37.5v-24
q0 -20 3.5 -32.5t11.5 -21.5t22.5 -15t37.5 -12q46 -13 95 -18t90 -19q22 -8 40.5 -20t32 -31.5t20.5 -48.5t7 -71v-33q0 -58 -18 -96.5t-53.5 -61t-88 -32t-122.5 -9.5q-54 0 -100 5.5t-86 19.5v115q41 -11 87 -18t102 -7q46 0 76.5 4.5t49 15t26 28t7.5 42.5v22zM235 -36
h112l-7 -79q-10 -119 -114 -125z" />
    <glyph glyph-name="uni0219" unicode="&#x219;" horiz-adv-x="530" 
d="M380 153q0 27 -11.5 37t-40.5 16q-26 5 -53 8.5t-54 6.5t-53.5 8t-50.5 13q-37 13 -58 39.5t-21 77.5v25q0 41 12.5 70.5t41.5 48.5t77.5 28t119.5 9q56 0 98.5 -6t80.5 -16v-96q-42 11 -84 16.5t-95 5.5q-41 0 -67.5 -2.5t-42 -9.5t-21.5 -20t-6 -34v-9q0 -14 3 -23
t12 -15t24.5 -10t40.5 -8q44 -7 89.5 -10t86.5 -15q48 -14 68 -43t20 -83v-32q0 -45 -19 -74t-53.5 -45.5t-82.5 -22.5t-106 -6q-64 0 -107.5 6t-78.5 16v99q32 -9 77.5 -16t107.5 -7q43 0 71.5 2.5t45 9t23 17t6.5 27.5v17zM213 -36h112l-7 -79q-10 -119 -114 -125z" />
    <glyph glyph-name="uni021A" unicode="&#x21a;" horiz-adv-x="532" 
d="M202 0v601h-181v109h490v-109h-183v-601h-126zM207 -36h112l-7 -79q-10 -119 -114 -125z" />
    <glyph glyph-name="uni021B" unicode="&#x21b;" horiz-adv-x="341" 
d="M320 -7q-17 -6 -38 -8.5t-55 -2.5q-76 0 -116.5 36.5t-40.5 117.5v304h-55v86h55v129h114v-129h136v-86h-136v-295q0 -37 16.5 -53t58.5 -16q38 0 61 8v-91zM139 -36h112l-7 -79q-10 -119 -114 -125z" />
    <glyph glyph-name="uni0237" unicode="&#x237;" horiz-adv-x="271" 
d="M89 526h113v-547q0 -52 -10 -93t-34 -69t-63 -42.5t-97 -14.5q-35 0 -62.5 6.5t-49.5 17.5v104q20 -9 43.5 -15t55.5 -6q54 0 79 28.5t25 87.5v543z" />
    <glyph glyph-name="circumflex" unicode="&#x2c6;" horiz-adv-x="513" 
d="M361 579l-100 121l-100 -121h-96l151 176h90l150 -176h-95z" />
    <glyph glyph-name="caron" unicode="&#x2c7;" horiz-adv-x="513" 
d="M305 579h-90l-150 176h96l99 -122l100 122h96z" />
    <glyph glyph-name="breve" unicode="&#x2d8;" horiz-adv-x="470" 
d="M413 751q0 -45 -13.5 -78t-36.5 -55t-54 -33t-66 -11t-66.5 11t-54.5 33t-36.5 55t-13.5 78h76q2 -54 25 -79.5t70 -25.5t70 25.5t25 79.5h75z" />
    <glyph glyph-name="dotaccent" unicode="&#x2d9;" horiz-adv-x="242" 
d="M70 590v129h116v-129h-116z" />
    <glyph glyph-name="ring" unicode="&#x2da;" horiz-adv-x="348" 
d="M292 663q0 -51 -25 -76.5t-85 -25.5q-110 0 -110 102q0 50 27 76.5t83 26.5q60 0 85 -26.5t25 -76.5zM242 663q0 29 -14 44t-46 15q-58 0 -58 -59q0 -57 58 -57q32 0 46 14t14 43z" />
    <glyph glyph-name="ogonek" unicode="&#x2db;" horiz-adv-x="290" 
d="M253 -233q-8 -3 -25.5 -5t-46.5 -2q-50 0 -81.5 8.5t-49 23t-23.5 33.5t-6 40q0 43 29 68t78 42l74 25h52l-84 -37q-31 -14 -41.5 -27t-10.5 -31q0 -23 17.5 -36t61.5 -13q23 0 35 2t21 5v-96z" />
    <glyph glyph-name="tilde" unicode="&#x2dc;" horiz-adv-x="448" 
d="M392 625q-14 -18 -36.5 -31.5t-54.5 -13.5q-26 0 -47 7.5t-40.5 17t-38 17t-37.5 7.5q-29 0 -51 -12.5t-42 -38.5v78q14 18 36 32t54 14q25 0 46 -7.5t40.5 -17t38.5 -17t40 -7.5q28 0 50 12.5t42 38.5v-79z" />
    <glyph glyph-name="hungarumlaut" unicode="&#x2dd;" horiz-adv-x="493" 
d="M41 580l86 186h118l-124 -186h-80zM234 580l85 186h118l-124 -186h-79z" />
    <glyph glyph-name="pi" unicode="&#x3c0;" horiz-adv-x="593" 
d="M416 0v417h-241v-417h-116v526h475v-526h-118z" />
    <glyph glyph-name="Wgrave" unicode="&#x1e80;" horiz-adv-x="838" 
d="M520 0l-101 509l-112 -509h-146l-144 710h132l90 -540l122 540h121l110 -540l107 540h121l-154 -710h-146zM411 764l-124 186h119l85 -186h-80z" />
    <glyph glyph-name="wgrave" unicode="&#x1e81;" horiz-adv-x="850" 
d="M524 0l-101 383l-111 -383h-152l-143 526h129l97 -414l121 414h121l113 -414l110 414h125l-153 -526h-156zM417 580l-124 186h119l85 -186h-80z" />
    <glyph glyph-name="Wacute" unicode="&#x1e82;" horiz-adv-x="838" 
d="M520 0l-101 509l-112 -509h-146l-144 710h132l90 -540l122 540h121l110 -540l107 540h121l-154 -710h-146zM347 764l86 186h118l-124 -186h-80z" />
    <glyph glyph-name="wacute" unicode="&#x1e83;" horiz-adv-x="850" 
d="M524 0l-101 383l-111 -383h-152l-143 526h129l97 -414l121 414h121l113 -414l110 414h125l-153 -526h-156zM353 580l86 186h118l-124 -186h-80z" />
    <glyph glyph-name="Wdieresis" unicode="&#x1e84;" horiz-adv-x="838" 
d="M520 0l-101 509l-112 -509h-146l-144 710h132l90 -540l122 540h121l110 -540l107 540h121l-154 -710h-146zM245 774v129h116v-129h-116zM476 774v129h116v-129h-116z" />
    <glyph glyph-name="wdieresis" unicode="&#x1e85;" horiz-adv-x="850" 
d="M524 0l-101 383l-111 -383h-152l-143 526h129l97 -414l121 414h121l113 -414l110 414h125l-153 -526h-156zM251 590v129h116v-129h-116zM482 590v129h116v-129h-116z" />
    <glyph glyph-name="Ygrave" unicode="&#x1ef2;" horiz-adv-x="590" 
d="M223 0v283l-215 427h133l148 -307l165 307h127l-233 -427v-283h-125zM287 764l-124 186h119l85 -186h-80z" />
    <glyph glyph-name="ygrave" unicode="&#x1ef3;" horiz-adv-x="595" 
d="M143 -228l88 214l-216 540h131l148 -407l161 407h125l-310 -754h-127zM289 580l-124 186h119l85 -186h-80z" />
    <glyph glyph-name="endash" unicode="&#x2013;" horiz-adv-x="535" 
d="M32 283v91h471v-91h-471z" />
    <glyph glyph-name="emdash" unicode="&#x2014;" horiz-adv-x="732" 
d="M32 283v91h667v-91h-667z" />
    <glyph glyph-name="quoteleft" unicode="&#x2018;" horiz-adv-x="229" 
d="M182 412q-58 4 -89.5 46.5t-36.5 118.5l-10 142h125z" />
    <glyph glyph-name="quoteright" unicode="&#x2019;" horiz-adv-x="229" 
d="M57 719h125l-10 -142q-5 -76 -37 -118.5t-89 -46.5z" />
    <glyph glyph-name="quotesinglbase" unicode="&#x201a;" horiz-adv-x="229" 
d="M57 162h125l-10 -143q-5 -75 -37 -117.5t-89 -46.5z" />
    <glyph glyph-name="quotedblleft" unicode="&#x201c;" horiz-adv-x="458" 
d="M182 412q-58 4 -89.5 46.5t-36.5 118.5l-10 142h125zM411 412q-58 4 -89.5 46.5t-36.5 118.5l-10 142h125z" />
    <glyph glyph-name="quotedblright" unicode="&#x201d;" horiz-adv-x="458" 
d="M57 719h125l-10 -142q-5 -76 -37 -118.5t-89 -46.5zM286 719h125l-10 -142q-5 -76 -37 -118.5t-89 -46.5z" />
    <glyph glyph-name="quotedblbase" unicode="&#x201e;" horiz-adv-x="458" 
d="M57 162h125l-10 -143q-5 -75 -37 -117.5t-89 -46.5zM286 162h125l-10 -143q-5 -75 -37 -117.5t-89 -46.5z" />
    <glyph glyph-name="dagger" unicode="&#x2020;" horiz-adv-x="459" 
d="M184 0v478h-129v73h129v159h93v-159h127v-73h-127v-478h-93z" />
    <glyph glyph-name="daggerdbl" unicode="&#x2021;" horiz-adv-x="459" 
d="M183 0v159h-128v72h128v247h-128v73h128v159h93v-159h127v-73h-127v-247h127v-72h-127v-159h-93z" />
    <glyph glyph-name="bullet" unicode="&#x2022;" horiz-adv-x="389" 
d="M334 367q0 -29 -9 -54t-27 -43.5t-44 -29t-60 -10.5q-67 0 -103 39t-36 98q0 60 36 98.5t103 38.5q69 0 104.5 -38.5t35.5 -98.5z" />
    <glyph glyph-name="ellipsis" unicode="&#x2026;" horiz-adv-x="991" 
d="M84 0v162h126v-162h-126zM432 0v162h126v-162h-126zM780 0v162h126v-162h-126z" />
    <glyph glyph-name="perthousand" unicode="&#x2030;" horiz-adv-x="1017" 
d="M311 487q0 -75 -31.5 -103t-97.5 -28t-97.5 28t-31.5 103v110q0 75 31.5 103.5t97.5 28.5t97.5 -28.5t31.5 -103.5v-110zM235 596q0 35 -13.5 47.5t-39.5 12.5q-27 0 -40.5 -12.5t-13.5 -48.5v-106q0 -36 13.5 -48.5t40.5 -12.5q26 0 39.5 12t13.5 48v108zM107 -21
l412 753h83l-413 -753h-82zM659 112q0 -75 -31.5 -103t-97.5 -28t-97.5 28t-31.5 103v110q0 75 31.5 103.5t97.5 28.5t97.5 -28.5t31.5 -103.5v-110zM583 221q0 35 -13.5 47.5t-39.5 12.5q-27 0 -40.5 -12.5t-13.5 -48.5v-106q0 -36 13.5 -48.5t40.5 -12.5q26 0 39.5 12
t13.5 48v108zM963 112q0 -75 -31.5 -103t-97.5 -28t-97.5 28t-31.5 103v110q0 75 31.5 103.5t97.5 28.5t97.5 -28.5t31.5 -103.5v-110zM887 221q0 35 -13.5 47.5t-39.5 12.5q-27 0 -40.5 -12.5t-13.5 -48.5v-106q0 -36 13.5 -48.5t40.5 -12.5q26 0 39.5 12t13.5 48v108z" />
    <glyph glyph-name="guilsinglleft" unicode="&#x2039;" horiz-adv-x="231" 
d="M30 292v89l170 151v-96l-115 -99l115 -100v-96z" />
    <glyph glyph-name="guilsinglright" unicode="&#x203a;" horiz-adv-x="231" 
d="M30 237l115 100l-115 99v96l170 -151v-90l-170 -150v96z" />
    <glyph glyph-name="fraction" unicode="&#x2044;" horiz-adv-x="182" 
d="M-157 -21l412 753h83l-413 -753h-82z" />
    <glyph glyph-name="uni2070" unicode="&#x2070;" horiz-adv-x="344" 
d="M301 487q0 -75 -31.5 -103t-97.5 -28t-97.5 28t-31.5 103v110q0 75 31.5 103.5t97.5 28.5t97.5 -28.5t31.5 -103.5v-110zM225 596q0 35 -13.5 47.5t-39.5 12.5q-27 0 -40.5 -12.5t-13.5 -48.5v-106q0 -36 13.5 -48.5t40.5 -12.5q26 0 39.5 12t13.5 48v108z" />
    <glyph glyph-name="uni2074" unicode="&#x2074;" horiz-adv-x="326" 
d="M199 365v64h-169v67l100 224h78l-103 -230h97v130h68v-130h29v-61h-29v-64h-71z" />
    <glyph glyph-name="uni2075" unicode="&#x2075;" horiz-adv-x="324" 
d="M212 481q0 30 -10 41.5t-39 11.5q-17 0 -33.5 -4.5t-26.5 -15.5l-62 6l8 200h225v-68h-155l-4 -77q12 7 29.5 10.5t34.5 3.5q50 0 78 -19t28 -75v-30q0 -35 -10.5 -56t-30 -33t-46 -16t-58.5 -4q-28 0 -50 2.5t-43 9.5v70q22 -5 45.5 -8.5t51.5 -3.5q41 0 54.5 11
t13.5 44z" />
    <glyph glyph-name="uni2076" unicode="&#x2076;" horiz-adv-x="336" 
d="M267 645q-10 3 -29 6.5t-45 3.5q-38 0 -57 -12t-19 -52v-24q15 9 33.5 14.5t43.5 5.5q48 0 76.5 -25t28.5 -84q0 -68 -28 -95t-97 -27t-100 32.5t-31 104.5v99q0 75 34.5 106t107.5 31q31 0 53 -5t29 -8v-71zM117 495q0 -35 12 -51.5t48 -16.5q29 0 39.5 11t10.5 37
q0 25 -11.5 35.5t-40.5 10.5q-21 0 -34 -4t-24 -12v-10z" />
    <glyph glyph-name="uni2077" unicode="&#x2077;" horiz-adv-x="306" 
d="M62 365l142 288h-178v67h256v-55l-137 -300h-83z" />
    <glyph glyph-name="uni2078" unicode="&#x2078;" horiz-adv-x="339" 
d="M242 550q35 -8 48 -29.5t13 -55.5q0 -37 -10.5 -58.5t-28.5 -33t-42.5 -14.5t-53.5 -3t-54 3t-43 14.5t-28 33t-10 58.5q0 34 13 55.5t48 29.5q-32 6 -43 28.5t-11 51.5q0 33 10.5 52.5t28 30t40.5 13.5t49 3q25 0 48.5 -3t41 -13.5t28 -30t10.5 -52.5q0 -30 -11 -52
t-43 -28zM227 471q-1 26 -14 37.5t-45 11.5t-45.5 -11.5t-13.5 -37.5q0 -28 14.5 -38t44.5 -10t44.5 10t14.5 38zM225 615q0 28 -15 37.5t-42 9.5t-42.5 -9.5t-15.5 -37.5q0 -25 13.5 -35t44.5 -10t44 10t13 35z" />
    <glyph glyph-name="uni2079" unicode="&#x2079;" horiz-adv-x="332" 
d="M214 515q-14 -8 -32.5 -13.5t-44.5 -5.5q-24 0 -43 5t-32.5 17.5t-21 33.5t-7.5 53q0 68 27.5 96t96.5 28t100 -33.5t31 -103.5v-99q0 -75 -34.5 -106t-107.5 -31q-30 0 -52.5 4.5t-30.5 7.5v72q12 -4 33.5 -7.5t49.5 -3.5q33 0 50.5 13.5t17.5 50.5v22zM214 588
q0 35 -12.5 53t-48.5 18q-28 0 -38.5 -12.5t-10.5 -38.5t11 -36.5t41 -10.5q23 0 35 4.5t23 12.5v10z" />
    <glyph glyph-name="uni2080" unicode="&#x2080;" horiz-adv-x="344" 
d="M301 112q0 -75 -31.5 -103t-97.5 -28t-97.5 28t-31.5 103v110q0 75 31.5 103.5t97.5 28.5t97.5 -28.5t31.5 -103.5v-110zM225 221q0 35 -13.5 47.5t-39.5 12.5q-27 0 -40.5 -12.5t-13.5 -48.5v-106q0 -36 13.5 -48.5t40.5 -12.5q26 0 39.5 12t13.5 48v108z" />
    <glyph glyph-name="uni2081" unicode="&#x2081;" horiz-adv-x="197" 
d="M68 -10v283h-36v72h114v-355h-78z" />
    <glyph glyph-name="uni2082" unicode="&#x2082;" horiz-adv-x="325" 
d="M43 -10v100q0 35 12.5 54.5t31 30.5t40 16t40 10t31 13.5t12.5 25.5v7q0 20 -13 28.5t-46 8.5q-26 0 -49 -3.5t-46 -10.5v69q23 7 46.5 11t48.5 4q29 0 53.5 -4t42.5 -15.5t28 -31t10 -49.5v-22q0 -29 -12 -45.5t-30.5 -26t-40 -14.5t-40 -11t-30.5 -15.5t-12 -27.5v-35
h160v-67h-237z" />
    <glyph glyph-name="uni2083" unicode="&#x2083;" horiz-adv-x="318" 
d="M36 62q23 -5 47 -8t52 -3q37 0 52.5 10t15.5 39q0 21 -10.5 31t-36.5 10h-72v58h72q23 0 34.5 9.5t11.5 32.5q0 26 -14.5 35t-51.5 9q-25 0 -47.5 -3.5t-45.5 -9.5v68q45 14 95 14q28 0 52.5 -4t43 -15t29 -30.5t10.5 -49.5q0 -28 -10 -50t-38 -30q31 -9 43 -31t12 -54
q0 -35 -10.5 -56.5t-29.5 -33t-45 -15.5t-57 -4q-26 0 -52 3t-50 9v69z" />
    <glyph glyph-name="uni2084" unicode="&#x2084;" horiz-adv-x="326" 
d="M199 -10v64h-169v67l100 224h78l-103 -230h97v130h68v-130h29v-61h-29v-64h-71z" />
    <glyph glyph-name="uni2085" unicode="&#x2085;" horiz-adv-x="324" 
d="M212 106q0 30 -10 41.5t-39 11.5q-17 0 -33.5 -4.5t-26.5 -15.5l-62 6l8 200h225v-68h-155l-4 -77q12 7 29.5 10.5t34.5 3.5q50 0 78 -19t28 -75v-30q0 -35 -10.5 -56t-30 -33t-46 -16t-58.5 -4q-28 0 -50 2.5t-43 9.5v70q22 -5 45.5 -8.5t51.5 -3.5q41 0 54.5 11
t13.5 44z" />
    <glyph glyph-name="uni2086" unicode="&#x2086;" horiz-adv-x="336" 
d="M267 270q-10 3 -29 6.5t-45 3.5q-38 0 -57 -12t-19 -52v-24q15 9 33.5 14.5t43.5 5.5q48 0 76.5 -25t28.5 -84q0 -68 -28 -95t-97 -27t-100 32.5t-31 104.5v99q0 75 34.5 106t107.5 31q31 0 53 -5t29 -8v-71zM117 120q0 -35 12 -51.5t48 -16.5q29 0 39.5 11t10.5 37
q0 25 -11.5 35.5t-40.5 10.5q-21 0 -34 -4t-24 -12v-10z" />
    <glyph glyph-name="uni2087" unicode="&#x2087;" horiz-adv-x="306" 
d="M62 -10l142 288h-178v67h256v-55l-137 -300h-83z" />
    <glyph glyph-name="uni2088" unicode="&#x2088;" horiz-adv-x="339" 
d="M242 175q35 -8 48 -29.5t13 -55.5q0 -37 -10.5 -58.5t-28.5 -33t-42.5 -14.5t-53.5 -3t-54 3t-43 14.5t-28 33t-10 58.5q0 34 13 55.5t48 29.5q-32 6 -43 28.5t-11 51.5q0 33 10.5 52.5t28 30t40.5 13.5t49 3q25 0 48.5 -3t41 -13.5t28 -30t10.5 -52.5q0 -30 -11 -52
t-43 -28zM227 96q-1 26 -14 37.5t-45 11.5t-45.5 -11.5t-13.5 -37.5q0 -28 14.5 -38t44.5 -10t44.5 10t14.5 38zM225 240q0 28 -15 37.5t-42 9.5t-42.5 -9.5t-15.5 -37.5q0 -25 13.5 -35t44.5 -10t44 10t13 35z" />
    <glyph glyph-name="uni2089" unicode="&#x2089;" horiz-adv-x="332" 
d="M214 140q-14 -8 -32.5 -13.5t-44.5 -5.5q-24 0 -43 5t-32.5 17.5t-21 33.5t-7.5 53q0 68 27.5 96t96.5 28t100 -33.5t31 -103.5v-99q0 -75 -34.5 -106t-107.5 -31q-30 0 -52.5 4.5t-30.5 7.5v72q12 -4 33.5 -7.5t49.5 -3.5q33 0 50.5 13.5t17.5 50.5v22zM214 213
q0 35 -12.5 53t-48.5 18q-28 0 -38.5 -12.5t-10.5 -38.5t11 -36.5t41 -10.5q23 0 35 4.5t23 12.5v10z" />
    <glyph glyph-name="Euro" unicode="&#x20ac;" horiz-adv-x="546" 
d="M200 315h166l-30 -71h-136q0 -43 8 -71t26 -44t47.5 -22t73.5 -6q34 0 58.5 1.5t42 4t29.5 6t20 7.5v-122q-10 -3 -23.5 -6t-33.5 -5.5t-49 -3.5t-70 -1q-69 0 -117.5 13.5t-79 44.5t-44 81t-13.5 123h-64l16 71h48v75h-64l16 70h48q0 75 15 126.5t46 83t79 45t114 13.5
q45 0 77 -1t55 -3.5t39.5 -6.5t31.5 -10l-48 -116q-11 4 -24 7.5t-30.5 5t-42 2.5t-58.5 1q-70 0 -99.5 -33.5t-29.5 -113.5h228l-30 -70h-198v-75z" />
    <glyph glyph-name="trademark" unicode="&#x2122;" horiz-adv-x="889" 
d="M143 275v358h-109v77h306v-77h-108v-358h-89zM743 275v314l-91 -314h-81l-94 314v-314h-80v435h130l87 -301l84 301h126v-435h-81z" />
    <glyph glyph-name="Omega" unicode="&#x2126;" horiz-adv-x="642" 
d="M374 0v110q27 22 46.5 46t32.5 53t19.5 64.5t6.5 82.5v123q0 38 -8.5 62.5t-27.5 39t-49 20.5t-73 6t-73 -6t-48.5 -20t-27 -38.5t-8.5 -61.5v-125q0 -47 6.5 -82.5t19 -64.5t32 -53t46.5 -46v-110h-225v109h117q-33 31 -56.5 59t-37.5 59.5t-20.5 69.5t-6.5 89v106
q0 75 17 121t52 71.5t88 34.5t125 9t125 -9t88 -34.5t52 -71.5t17 -121v-106q0 -51 -6.5 -89.5t-20.5 -70t-37 -59.5t-56 -58h116v-109h-225z" />
    <glyph glyph-name="onethird" unicode="&#x2153;" horiz-adv-x="691" 
d="M104 365v283h-36v72h114v-355h-78zM56 -21l412 753h83l-413 -753h-82zM393 62q23 -5 47 -8t52 -3q37 0 52.5 10t15.5 39q0 21 -10.5 31t-36.5 10h-72v58h72q23 0 34.5 9.5t11.5 32.5q0 26 -14.5 35t-51.5 9q-25 0 -47.5 -3.5t-45.5 -9.5v68q45 14 95 14q28 0 52.5 -4
t43 -15t29 -30.5t10.5 -49.5q0 -28 -10 -50t-38 -30q31 -9 43 -31t12 -54q0 -35 -10.5 -56.5t-29.5 -33t-45 -15.5t-57 -4q-26 0 -52 3t-50 9v69z" />
    <glyph glyph-name="twothirds" unicode="&#x2154;" horiz-adv-x="733" 
d="M53 365v100q0 35 12.5 54.5t31 30.5t40 16t40 10t31 13.5t12.5 25.5v7q0 20 -13 28.5t-46 8.5q-26 0 -49 -3.5t-46 -10.5v69q23 7 46.5 11t48.5 4q29 0 53.5 -4t42.5 -15.5t28 -31t10 -49.5v-22q0 -29 -12 -45.5t-30.5 -26t-40 -14.5t-40 -11t-30.5 -15.5t-12 -27.5v-35
h160v-67h-237zM118 -21l412 753h83l-413 -753h-82zM435 62q23 -5 47 -8t52 -3q37 0 52.5 10t15.5 39q0 21 -10.5 31t-36.5 10h-72v58h72q23 0 34.5 9.5t11.5 32.5q0 26 -14.5 35t-51.5 9q-25 0 -47.5 -3.5t-45.5 -9.5v68q45 14 95 14q28 0 52.5 -4t43 -15t29 -30.5
t10.5 -49.5q0 -28 -10 -50t-38 -30q31 -9 43 -31t12 -54q0 -35 -10.5 -56.5t-29.5 -33t-45 -15.5t-57 -4q-26 0 -52 3t-50 9v69z" />
    <glyph glyph-name="oneeighth" unicode="&#x215b;" horiz-adv-x="694" 
d="M104 365v283h-36v72h114v-355h-78zM56 -21l412 753h83l-413 -753h-82zM579 175q35 -8 48 -29.5t13 -55.5q0 -37 -10.5 -58.5t-28.5 -33t-42.5 -14.5t-53.5 -3t-54 3t-43 14.5t-28 33t-10 58.5q0 34 13 55.5t48 29.5q-32 6 -43 28.5t-11 51.5q0 33 10.5 52.5t28 30
t40.5 13.5t49 3q25 0 48.5 -3t41 -13.5t28 -30t10.5 -52.5q0 -30 -11 -52t-43 -28zM564 96q-1 26 -14 37.5t-45 11.5t-45.5 -11.5t-13.5 -37.5q0 -28 14.5 -38t44.5 -10t44.5 10t14.5 38zM562 240q0 28 -15 37.5t-42 9.5t-42.5 -9.5t-15.5 -37.5q0 -25 13.5 -35t44.5 -10
t44 10t13 35z" />
    <glyph glyph-name="threeeighths" unicode="&#x215c;" horiz-adv-x="736" 
d="M53 437q23 -5 47 -8t52 -3q37 0 52.5 10t15.5 39q0 21 -10.5 31t-36.5 10h-72v58h72q23 0 34.5 9.5t11.5 32.5q0 26 -14.5 35t-51.5 9q-25 0 -47.5 -3.5t-45.5 -9.5v68q45 14 95 14q28 0 52.5 -4t43 -15t29 -30.5t10.5 -49.5q0 -28 -10 -50t-38 -30q31 -9 43 -31t12 -54
q0 -35 -10.5 -56.5t-29.5 -33t-45 -15.5t-57 -4q-26 0 -52 3t-50 9v69zM108 -21l412 753h83l-413 -753h-82zM621 175q35 -8 48 -29.5t13 -55.5q0 -37 -10.5 -58.5t-28.5 -33t-42.5 -14.5t-53.5 -3t-54 3t-43 14.5t-28 33t-10 58.5q0 34 13 55.5t48 29.5q-32 6 -43 28.5
t-11 51.5q0 33 10.5 52.5t28 30t40.5 13.5t49 3q25 0 48.5 -3t41 -13.5t28 -30t10.5 -52.5q0 -30 -11 -52t-43 -28zM606 96q-1 26 -14 37.5t-45 11.5t-45.5 -11.5t-13.5 -37.5q0 -28 14.5 -38t44.5 -10t44.5 10t14.5 38zM604 240q0 28 -15 37.5t-42 9.5t-42.5 -9.5
t-15.5 -37.5q0 -25 13.5 -35t44.5 -10t44 10t13 35z" />
    <glyph glyph-name="fiveeighths" unicode="&#x215d;" horiz-adv-x="717" 
d="M224 481q0 30 -10 41.5t-39 11.5q-17 0 -33.5 -4.5t-26.5 -15.5l-62 6l8 200h225v-68h-155l-4 -77q12 7 29.5 10.5t34.5 3.5q50 0 78 -19t28 -75v-30q0 -35 -10.5 -56t-30 -33t-46 -16t-58.5 -4q-28 0 -50 2.5t-43 9.5v70q22 -5 45.5 -8.5t51.5 -3.5q41 0 54.5 11
t13.5 44zM99 -21l412 753h83l-413 -753h-82zM602 175q35 -8 48 -29.5t13 -55.5q0 -37 -10.5 -58.5t-28.5 -33t-42.5 -14.5t-53.5 -3t-54 3t-43 14.5t-28 33t-10 58.5q0 34 13 55.5t48 29.5q-32 6 -43 28.5t-11 51.5q0 33 10.5 52.5t28 30t40.5 13.5t49 3q25 0 48.5 -3
t41 -13.5t28 -30t10.5 -52.5q0 -30 -11 -52t-43 -28zM587 96q-1 26 -14 37.5t-45 11.5t-45.5 -11.5t-13.5 -37.5q0 -28 14.5 -38t44.5 -10t44.5 10t14.5 38zM585 240q0 28 -15 37.5t-42 9.5t-42.5 -9.5t-15.5 -37.5q0 -25 13.5 -35t44.5 -10t44 10t13 35z" />
    <glyph glyph-name="seveneighths" unicode="&#x215e;" horiz-adv-x="714" 
d="M89 365l142 288h-178v67h256v-55l-137 -300h-83zM76 -21l412 753h83l-413 -753h-82zM599 175q35 -8 48 -29.5t13 -55.5q0 -37 -10.5 -58.5t-28.5 -33t-42.5 -14.5t-53.5 -3t-54 3t-43 14.5t-28 33t-10 58.5q0 34 13 55.5t48 29.5q-32 6 -43 28.5t-11 51.5q0 33 10.5 52.5
t28 30t40.5 13.5t49 3q25 0 48.5 -3t41 -13.5t28 -30t10.5 -52.5q0 -30 -11 -52t-43 -28zM584 96q-1 26 -14 37.5t-45 11.5t-45.5 -11.5t-13.5 -37.5q0 -28 14.5 -38t44.5 -10t44.5 10t14.5 38zM582 240q0 28 -15 37.5t-42 9.5t-42.5 -9.5t-15.5 -37.5q0 -25 13.5 -35
t44.5 -10t44 10t13 35z" />
    <glyph glyph-name="partialdiff" unicode="&#x2202;" horiz-adv-x="506" 
d="M207 723q8 2 21 3.5t27 1.5q42 0 81 -17t68.5 -53t47.5 -92t18 -134q0 -88 -11 -169.5t-38.5 -143.5t-73.5 -99.5t-116 -37.5q-55 0 -92.5 16t-60.5 46t-33 74t-10 100q0 59 14.5 105t39.5 77.5t59.5 47.5t75.5 16q20 0 42.5 -4.5t43 -16t37.5 -30t27 -46.5q3 17 4 33.5
t1 45.5q0 45 -11 78.5t-29.5 56t-44 34t-54.5 11.5q-8 0 -16.5 -1t-16.5 -3v101zM363 257q-13 55 -44 81t-89 26q-45 0 -73.5 -37t-28.5 -110q0 -68 26.5 -101.5t76.5 -33.5q110 0 132 175z" />
    <glyph glyph-name="Delta" unicode="&#x2206;" horiz-adv-x="590" 
d="M377 710l197 -710h-559l209 710h153zM176 117h234l-112 436z" />
    <glyph glyph-name="product" unicode="&#x220f;" horiz-adv-x="524" 
d="M375 -228v855h-229v-855h-103v938h435v-938h-103z" />
    <glyph glyph-name="summation" unicode="&#x2211;" horiz-adv-x="430" 
d="M30 -195v71l193 381l-193 381v72h372v-98h-242l167 -355l-167 -355h242v-97h-372z" />
    <glyph glyph-name="minus" unicode="&#x2212;" horiz-adv-x="603" 
d="M51 325v85h499v-85h-499z" />
    <glyph glyph-name="radical" unicode="&#x221a;" horiz-adv-x="511" 
d="M188 0l-88 303h-68v80h154l55 -234l142 561h108l-193 -710h-110z" />
    <glyph glyph-name="infinity" unicode="&#x221e;" horiz-adv-x="657" 
d="M328 290q-21 -48 -58 -73.5t-96 -25.5q-31 0 -58 11t-47 32.5t-31.5 54t-11.5 75.5t11.5 76t32 55t47.5 33t57 11q59 0 94.5 -26t59.5 -74q25 48 60 74t95 26q30 0 57 -11t47 -33t31.5 -55t11.5 -76t-11.5 -75.5t-31.5 -54t-46.5 -32.5t-57.5 -11q-60 0 -96.5 25.5
t-58.5 73.5zM293 362q-19 42 -43 65t-61 23q-41 0 -62.5 -23t-21.5 -63q0 -89 84 -89q40 0 65 24.5t39 62.5zM365 362q13 -39 37.5 -63t65.5 -24q84 0 84 89q0 40 -22 63t-62 23q-38 0 -62 -22.5t-41 -65.5z" />
    <glyph glyph-name="integral" unicode="&#x222b;" horiz-adv-x="332" 
d="M116 599q0 63 29.5 96t101.5 33q23 0 39.5 -2.5t28.5 -7.5v-74q-11 4 -21 5.5t-25 1.5q-27 0 -40.5 -12t-13.5 -43v-710q0 -60 -30.5 -93t-102.5 -33q-45 0 -66 10v73q9 -4 18.5 -5t26.5 -1q28 0 41.5 12t13.5 43v707z" />
    <glyph glyph-name="approxequal" unicode="&#x2248;" horiz-adv-x="634" 
d="M52 236q55 66 143 66q39 0 70 -10.5t59 -23.5t55.5 -23.5t60.5 -10.5q41 0 75 16.5t67 59.5v-95q-32 -36 -68.5 -50.5t-81.5 -14.5q-36 0 -65.5 10.5t-57 23t-55.5 23t-61 10.5q-41 0 -74 -17t-67 -59v95zM52 455q55 66 143 66q39 0 70 -10.5t59 -23.5t55.5 -23.5
t60.5 -10.5q41 0 75 16.5t67 59.5v-95q-32 -36 -68.5 -50.5t-81.5 -14.5q-36 0 -65.5 10.5t-57 23t-55.5 23t-61 10.5q-41 0 -74 -17t-67 -59v95z" />
    <glyph glyph-name="notequal" unicode="&#x2260;" horiz-adv-x="603" 
d="M54 -21l135 241h-138v86h186l69 123h-255v85h302l123 218h73l-123 -218h124v-85h-172l-69 -123h241v-86h-289l-135 -241h-72z" />
    <glyph glyph-name="lessequal" unicode="&#x2264;" horiz-adv-x="603" 
d="M51 324v85l499 216v-95l-402 -163l402 -164v-95zM52 -9v85h499v-85h-499z" />
    <glyph glyph-name="greaterequal" unicode="&#x2265;" horiz-adv-x="603" 
d="M51 108v95l403 164l-403 163v95l499 -216v-85zM52 -9v85h499v-85h-499z" />
    <glyph glyph-name="lozenge" unicode="&#x25ca;" horiz-adv-x="562" 
d="M222 7l-184 348l184 347h127l175 -347l-175 -348h-127zM406 355l-121 237l-124 -237l123 -236z" />
    <glyph glyph-name="uniE000" unicode="&#xe000;" horiz-adv-x="584" 
d="M524 224q0 -69 -14.5 -115.5t-43.5 -74.5t-72.5 -40t-102.5 -12t-102.5 12t-72 40t-43 74.5t-14.5 115.5v128q0 69 14.5 115t43 74t72 40t102.5 12t102.5 -12t72.5 -40t43.5 -74t14.5 -115v-128zM409 349q0 40 -7.5 66t-22.5 41t-37 21t-51 6t-51 -6t-36.5 -21t-22 -41
t-7.5 -66v-124q0 -40 7.5 -65.5t22 -40.5t36.5 -21t51 -6t51 6t37 21t22.5 40.5t7.5 65.5v124z" />
    <glyph glyph-name="uniE001" unicode="&#xe001;" horiz-adv-x="312" 
d="M121 0v467h-83v108h199v-575h-116z" />
    <glyph glyph-name="uniE002" unicode="&#xe002;" horiz-adv-x="548" 
d="M59 0v155q0 48 13 78.5t35 49t50 27.5t58.5 13.5t60.5 7t56 8.5t38.5 19.5t12.5 46.5v19q0 35 -27.5 51t-98.5 16q-51 0 -95.5 -8t-77.5 -20v102q32 11 73 19.5t97 8.5q50 0 94 -7t76.5 -25t51.5 -49t19 -79v-29q0 -61 -23.5 -92.5t-61 -46.5t-83 -20t-88.5 -13
q-35 -7 -50 -24t-15 -59v-51h312v-98h-427z" />
    <glyph glyph-name="uniE003" unicode="&#xe003;" horiz-adv-x="535" 
d="M45 38q30 -8 73 -15t108 -7q40 0 67.5 5t44.5 17t25 32.5t8 52.5q0 49 -24 69t-79 20h-137v93h138q49 0 73 19.5t24 69.5q0 52 -31 73.5t-108 21.5q-51 0 -91.5 -8t-77.5 -19v105q33 11 75.5 18.5t95.5 7.5t97.5 -8.5t77 -29.5t50.5 -56t18 -89q0 -26 -4.5 -50t-15.5 -44
t-29 -34t-46 -20q57 -13 82.5 -50.5t25.5 -97.5q0 -62 -17 -102t-50 -63t-80.5 -31.5t-108.5 -8.5q-60 0 -106.5 7t-77.5 17v105z" />
    <glyph glyph-name="uniE004" unicode="&#xe004;" horiz-adv-x="546" 
d="M461 0v-73h-105v73h-322v98l216 477h115l-220 -477h214v258h102v-258h58v-98h-58z" />
    <glyph glyph-name="uniE005" unicode="&#xe005;" horiz-adv-x="546" 
d="M383 152q0 27 -4 45.5t-15 30t-31 16.5t-53 5q-92 0 -132 -43l-92 10l14 359h408v-101h-302l-8 -173q23 15 60 24.5t78 9.5q44 0 79 -7.5t59 -26.5t37 -52.5t13 -85.5v-55q0 -64 -19 -103t-54.5 -60.5t-84.5 -28.5t-109 -7q-55 0 -95 8.5t-67 21.5v101q32 -13 72.5 -21
t97.5 -8q44 0 73 5.5t45.5 18t23 34.5t6.5 55v28z" />
    <glyph glyph-name="uniE006" unicode="&#xe006;" horiz-adv-x="567" 
d="M59 414q0 69 15.5 117t47 78t80 43.5t113.5 13.5q58 0 96.5 -9t52.5 -15v-107q-21 8 -56.5 14t-88.5 6q-37 0 -65 -7t-46.5 -23.5t-28 -43.5t-9.5 -68v-71q29 36 69.5 50.5t93.5 14.5q42 0 76.5 -11.5t59.5 -35.5t38.5 -62.5t13.5 -92.5q0 -62 -12 -104.5t-39 -69
t-70 -38t-105 -11.5q-123 0 -179.5 60t-56.5 191v181zM170 253q0 -42 6 -73t20.5 -51t39.5 -30t64 -10q63 0 88 25.5t25 87.5q0 59 -26 86t-81 27q-50 0 -81.5 -13t-54.5 -49z" />
    <glyph glyph-name="uniE007" unicode="&#xe007;" horiz-adv-x="510" 
d="M103 -73l261 545h-339v103h461v-83l-254 -565h-129z" />
    <glyph glyph-name="uniE008" unicode="&#xe008;" horiz-adv-x="572" 
d="M400 340q71 -14 98.5 -54t27.5 -107t-18.5 -106t-50.5 -59.5t-77 -26t-97 -5.5q-53 0 -97.5 5.5t-77 26t-51 59.5t-18.5 106q0 68 28 107.5t100 53.5q-33 4 -55 16.5t-35 32t-18.5 45t-5.5 54.5q0 59 18.5 94.5t50 54t73.5 24.5t88 6t88 -6t73.5 -24.5t50 -54t18.5 -94.5
q0 -29 -5.5 -54.5t-18.5 -45t-34.5 -32t-54.5 -16.5zM412 189q0 55 -27.5 80.5t-101.5 25.5t-101.5 -25.5t-27.5 -80.5q0 -33 8.5 -53.5t24.5 -32t40 -15.5t56 -4q31 0 55.5 4t40.5 15.5t24.5 32t8.5 53.5zM408 465q0 31 -9 51t-25.5 31t-39.5 15.5t-51 4.5t-51 -4.5
t-39.5 -15.5t-25.5 -31t-9 -51q0 -51 30.5 -73.5t94.5 -22.5q65 0 95 22.5t30 73.5z" />
    <glyph glyph-name="uniE009" unicode="&#xe009;" horiz-adv-x="560" 
d="M390 222q-30 -36 -71 -50t-93 -14q-42 0 -76.5 8t-58.5 29t-37.5 58.5t-13.5 96.5q0 62 11.5 105t38 69.5t69.5 38.5t105 12q122 0 179 -60t57 -192v-172q0 -69 -15.5 -115t-47.5 -74.5t-80.5 -40.5t-113.5 -12q-57 0 -96 8t-52 16v108q20 -8 56 -14.5t87 -6.5q37 0 65 6
t47.5 21t29.5 40t10 62v73zM390 307q0 42 -6.5 72.5t-21.5 50.5t-40.5 30t-63.5 10q-63 0 -88 -26.5t-25 -88.5q0 -112 107 -112q51 0 82.5 14t55.5 50z" />
    <glyph glyph-name="uniF8FF" unicode="&#xf8ff;" horiz-adv-x="253" 
 />
    <glyph glyph-name="uniFB01" unicode="&#xfb01;" horiz-adv-x="594" 
d="M66 0v440h-51v86h51v48q0 81 41.5 117t126.5 37q51 0 82 -11v-87q-24 9 -60 9q-38 0 -57 -16.5t-19 -58.5v-38h136v-86h-136v-440h-114zM407 0v526h116v-526h-116zM407 590v129h116v-129h-116z" />
    <glyph glyph-name="uniFB02" unicode="&#xfb02;" horiz-adv-x="590" 
d="M66 0v440h-51v86h51v48q0 81 41.5 117t126.5 37q51 0 82 -11v-87q-24 9 -60 9q-38 0 -57 -16.5t-19 -58.5v-38h136v-86h-136v-440h-114zM405 0v719h116v-719h-116z" />
    <glyph glyph-name="glyph409" horiz-adv-x="253" 
 />
    </font>
</defs>
</svg>
