<?xml version="1.0" encoding="UTF-8" standalone="no"?>
<!-- Created with Inkscape (http://www.inkscape.org/) -->

<svg
   version="1.1"
   id="svg2"
   width="377.95334"
   height="193.564"
   viewBox="0 0 377.95334 193.564"
   xmlns="http://www.w3.org/2000/svg"
   xmlns:svg="http://www.w3.org/2000/svg">
  <defs
     id="defs6">
    <clipPath
       clipPathUnits="userSpaceOnUse"
       id="clipPath30">
      <path
         d="M 0,225.385 H 364.203 V 0 H 0 Z"
         id="path28" />
    </clipPath>
  </defs>
  <g
     id="g10"
     transform="matrix(1.3333333,0,0,-1.3333333,-53.855999,246.67919)">
    <g
       id="g12"
       transform="translate(40.4361,185.0094)">
      <path
         d="M 0,0 V -80.788 L 80.782,0 Z"
         style="fill:#00b8de;fill-opacity:1;fill-rule:nonzero;stroke:none"
         id="path14" />
    </g>
    <g
       id="g16"
       transform="translate(202.6368,185.0094)">
      <path
         d="M 0,0 -40.394,-40.396 -80.789,0 V -80.788 H 0 Z"
         style="fill:#00b8de;fill-opacity:1;fill-rule:nonzero;stroke:none"
         id="path18" />
    </g>
    <g
       id="g20"
       transform="translate(243.0303,185.0094)">
      <path
         d="M 0,0 -40.396,-40.394 H 0 V -80.788 L 80.783,0 Z"
         style="fill:#00b8de;fill-opacity:1;fill-rule:nonzero;stroke:none"
         id="path22" />
    </g>
    <g
       id="g24"
       style="fill:#ffffff;fill-opacity:1">
      <g
         id="g26"
         clip-path="url(#clipPath30)"
         style="fill:#ffffff;fill-opacity:1">
        <path
           d="M 44.546,89.593 H 40.392 V 68.9 h 4.154 z m 11.3,-5.025 c -1.216,0 -2.222,-0.309 -3.014,-0.927 -0.442,-0.346 -0.911,-0.913 -1.407,-1.698 v 2.231 H 47.679 V 68.9 h 3.869 v 8.283 c 0,0.946 0.126,1.722 0.378,2.33 0.484,1.152 1.378,1.727 2.681,1.727 1.061,0 1.779,-0.393 2.157,-1.18 0.206,-0.429 0.309,-1.048 0.309,-1.851 V 68.9 h 3.964 v 10.305 c 0,1.919 -0.484,3.292 -1.452,4.121 -0.97,0.828 -2.215,1.242 -3.739,1.242 M 63.04,73.786 c 0,-1.572 0.554,-2.866 1.666,-3.882 1.11,-1.016 2.831,-1.523 5.162,-1.523 2.285,0 3.973,0.479 5.066,1.439 1.092,0.959 1.64,2.197 1.64,3.713 0,1.15 -0.381,2.11 -1.141,2.878 -0.77,0.759 -1.924,1.324 -3.466,1.699 -2.312,0.524 -3.659,0.893 -4.04,1.108 -0.381,0.206 -0.571,0.539 -0.571,0.997 0,0.366 0.179,0.683 0.538,0.956 0.359,0.27 0.959,0.407 1.803,0.407 1.026,0 1.752,-0.273 2.178,-0.815 0.227,-0.299 0.367,-0.707 0.422,-1.221 h 3.87 c -0.173,1.872 -0.842,3.189 -2.008,3.951 -1.165,0.764 -2.673,1.144 -4.522,1.144 -1.951,0 -3.463,-0.506 -4.538,-1.522 -1.075,-1.016 -1.613,-2.231 -1.613,-3.645 0,-1.197 0.344,-2.114 1.032,-2.751 0.688,-0.645 1.873,-1.183 3.554,-1.613 2.336,-0.571 3.685,-0.974 4.048,-1.208 0.362,-0.235 0.543,-0.576 0.543,-1.025 0,-0.469 -0.224,-0.819 -0.674,-1.053 -0.45,-0.233 -1.057,-0.351 -1.821,-0.351 -1.301,0 -2.192,0.266 -2.674,0.8 -0.273,0.299 -0.45,0.805 -0.532,1.517 z m 16.338,7.427 v -9.42 c 0,-0.955 0.218,-1.663 0.651,-2.121 0.67,-0.721 1.919,-1.048 3.747,-0.983 l 1.833,0.07 v 2.991 c -0.127,-0.01 -0.255,-0.016 -0.387,-0.021 -0.132,-0.005 -0.256,-0.008 -0.374,-0.008 -0.787,0 -1.257,0.077 -1.411,0.233 -0.154,0.154 -0.231,0.545 -0.231,1.172 v 8.087 h 2.403 v 2.849 h -2.403 v 4.268 h -3.828 v -4.268 h -2.064 v -2.849 z m 12.209,8.507 h -3.923 v -3.692 h 3.923 z M 87.664,68.9 h 3.923 v 15.302 h -3.923 z m 7.584,12.313 v -9.42 c 0,-0.955 0.217,-1.663 0.652,-2.121 0.67,-0.721 1.919,-1.048 3.747,-0.983 l 1.832,0.07 v 2.991 c -0.126,-0.01 -0.256,-0.016 -0.386,-0.021 -0.132,-0.005 -0.256,-0.008 -0.374,-0.008 -0.787,0 -1.258,0.077 -1.411,0.233 -0.154,0.154 -0.231,0.545 -0.231,1.172 v 8.087 h 2.402 v 2.849 h -2.402 v 4.268 h -3.829 v -4.268 h -2.063 v -2.849 z m 7.907,2.989 v -9.223 c 0,-1.75 0.211,-3.075 0.636,-3.973 0.758,-1.628 2.23,-2.443 4.413,-2.443 0.757,0 1.419,0.104 1.983,0.308 0.565,0.206 1.148,0.59 1.754,1.152 0.197,0.178 0.369,0.384 0.514,0.617 0.144,0.235 0.235,0.375 0.271,0.422 V 68.9 h 3.76 v 15.302 h -3.923 v -8.325 c 0,-0.982 -0.127,-1.773 -0.379,-2.372 -0.486,-1.104 -1.387,-1.657 -2.701,-1.657 -1.027,0 -1.716,0.389 -2.067,1.166 -0.198,0.44 -0.297,1.095 -0.297,1.965 v 9.223 z m 16.947,-2.989 v -9.42 c 0,-0.955 0.217,-1.663 0.652,-2.121 0.669,-0.721 1.918,-1.048 3.747,-0.983 l 1.832,0.07 v 2.991 c -0.126,-0.01 -0.255,-0.016 -0.386,-0.021 -0.132,-0.005 -0.257,-0.008 -0.374,-0.008 -0.787,0 -1.258,0.077 -1.411,0.233 -0.154,0.154 -0.231,0.545 -0.231,1.172 v 8.087 h 2.402 v 2.849 h -2.402 v 4.268 h -3.829 v -4.268 h -2.063 v -2.849 z m 25.299,-7.891 -3.643,16.271 h -6.084 V 68.9 h 3.897 v 13.997 c 0,0.402 -0.005,0.966 -0.014,1.692 -0.01,0.725 -0.013,1.284 -0.013,1.677 L 143.308,68.9 h 4.065 l 3.791,17.366 c 0,-0.393 -0.005,-0.952 -0.014,-1.677 -0.008,-0.726 -0.013,-1.29 -0.013,-1.692 V 68.9 h 3.895 v 20.693 h -6.016 z m 16.685,16.398 h -3.923 v -3.692 h 3.923 z M 158.163,68.9 h 3.923 v 15.302 h -3.923 z m 15.091,15.668 c -1.216,0 -2.222,-0.309 -3.014,-0.927 -0.442,-0.346 -0.911,-0.913 -1.406,-1.698 v 2.231 h -3.747 V 68.9 h 3.87 v 8.283 c 0,0.946 0.125,1.722 0.377,2.33 0.484,1.152 1.378,1.727 2.682,1.727 1.06,0 1.778,-0.393 2.156,-1.18 0.206,-0.429 0.309,-1.048 0.309,-1.851 V 68.9 h 3.964 v 10.305 c 0,1.919 -0.484,3.292 -1.452,4.121 -0.97,0.828 -2.215,1.242 -3.739,1.242 m 14.452,-3.258 c 0.913,0 1.678,-0.275 2.295,-0.825 0.617,-0.55 0.961,-1.355 1.03,-2.417 h -6.666 c 0.141,0.995 0.485,1.785 1.032,2.368 0.546,0.583 1.316,0.874 2.309,0.874 m -10e-4,3.299 c -2.169,0 -3.932,-0.706 -5.292,-2.121 -1.358,-1.414 -2.039,-3.448 -2.039,-6.099 0,-2.829 0.754,-4.871 2.259,-6.127 1.506,-1.255 3.242,-1.881 5.213,-1.881 2.385,0 4.24,0.744 5.566,2.232 0.852,0.936 1.33,1.857 1.434,2.766 h -3.95 c -0.23,-0.45 -0.496,-0.801 -0.796,-1.054 -0.551,-0.468 -1.268,-0.701 -2.149,-0.701 -0.831,0 -1.542,0.191 -2.133,0.576 -0.97,0.616 -1.487,1.693 -1.546,3.228 h 10.777 c 0.018,1.322 -0.025,2.334 -0.128,3.037 -0.181,1.2 -0.572,2.254 -1.18,3.164 -0.672,1.031 -1.524,1.786 -2.556,2.264 -1.033,0.478 -2.193,0.716 -3.48,0.716 m 8.179,-10.823 c 0,-1.572 0.555,-2.866 1.666,-3.882 1.111,-1.016 2.832,-1.523 5.163,-1.523 2.285,0 3.975,0.479 5.066,1.439 1.093,0.959 1.64,2.197 1.64,3.713 0,1.15 -0.38,2.11 -1.14,2.878 -0.77,0.759 -1.925,1.324 -3.466,1.699 -2.312,0.524 -3.659,0.893 -4.04,1.108 -0.381,0.206 -0.573,0.539 -0.573,0.997 0,0.366 0.181,0.683 0.539,0.956 0.358,0.27 0.959,0.407 1.803,0.407 1.025,0 1.752,-0.273 2.179,-0.815 0.227,-0.299 0.367,-0.707 0.422,-1.221 h 3.869 c -0.173,1.872 -0.842,3.189 -2.007,3.951 -1.166,0.764 -2.674,1.144 -4.523,1.144 -1.951,0 -3.463,-0.506 -4.539,-1.522 -1.073,-1.016 -1.611,-2.231 -1.611,-3.645 0,-1.197 0.344,-2.114 1.032,-2.751 0.688,-0.645 1.872,-1.183 3.554,-1.613 2.335,-0.571 3.685,-0.974 4.048,-1.208 0.362,-0.235 0.543,-0.576 0.543,-1.025 0,-0.469 -0.225,-0.819 -0.675,-1.053 -0.449,-0.233 -1.057,-0.351 -1.821,-0.351 -1.3,0 -2.192,0.266 -2.673,0.8 -0.274,0.299 -0.451,0.805 -0.533,1.517 z m 15.065,1.235 h 7.575 v 3.79 h -7.575 z m 6.63,14.572 v -3.664 h 6.015 V 68.9 h 4.207 v 17.029 h 5.987 v 3.664 z m 22.189,-8.283 c 0.912,0 1.678,-0.275 2.294,-0.825 0.617,-0.55 0.961,-1.355 1.032,-2.417 h -6.666 c 0.14,0.995 0.483,1.785 1.03,2.368 0.547,0.583 1.316,0.874 2.31,0.874 m -0.001,3.299 c -2.169,0 -3.934,-0.706 -5.292,-2.121 -1.36,-1.414 -2.038,-3.448 -2.038,-6.099 0,-2.829 0.752,-4.871 2.256,-6.127 1.506,-1.255 3.245,-1.881 5.213,-1.881 2.387,0 4.242,0.744 5.568,2.232 0.851,0.936 1.329,1.857 1.433,2.766 h -3.949 c -0.23,-0.45 -0.497,-0.801 -0.797,-1.054 -0.552,-0.468 -1.266,-0.701 -2.147,-0.701 -0.832,0 -1.544,0.191 -2.135,0.576 -0.971,0.616 -1.487,1.693 -1.547,3.228 h 10.777 c 0.019,1.322 -0.023,2.334 -0.127,3.037 -0.18,1.2 -0.573,2.254 -1.178,3.164 -0.673,1.031 -1.527,1.786 -2.558,2.264 -1.031,0.478 -2.192,0.716 -3.479,0.716 m 0.257,5.855 -2.605,-4.198 h 2.795 l 4.128,4.198 z m 12.77,-0.871 h -3.868 V 68.9 h 3.868 z m 9.429,-8.283 c 0.913,0 1.677,-0.275 2.295,-0.825 0.617,-0.55 0.961,-1.355 1.03,-2.417 h -6.666 c 0.141,0.995 0.484,1.785 1.032,2.368 0.546,0.583 1.316,0.874 2.309,0.874 m -0.001,3.299 c -2.169,0 -3.933,-0.706 -5.292,-2.121 -1.359,-1.414 -2.039,-3.448 -2.039,-6.099 0,-2.829 0.754,-4.871 2.258,-6.127 1.506,-1.255 3.243,-1.881 5.213,-1.881 2.385,0 4.241,0.744 5.567,2.232 0.851,0.936 1.33,1.857 1.434,2.766 h -3.951 c -0.229,-0.45 -0.495,-0.801 -0.796,-1.054 -0.551,-0.468 -1.266,-0.701 -2.147,-0.701 -0.832,0 -1.543,0.191 -2.134,0.576 -0.971,0.616 -1.487,1.693 -1.547,3.228 h 10.777 c 0.019,1.322 -0.023,2.334 -0.127,3.037 -0.181,1.2 -0.573,2.254 -1.18,3.164 -0.672,1.031 -1.525,1.786 -2.556,2.264 -1.033,0.478 -2.192,0.716 -3.48,0.716 m 0.259,5.855 -2.607,-4.198 h 2.796 l 4.127,4.198 z m 21.748,-11.75 c -0.218,2.179 -0.918,3.701 -2.1,4.562 -1.184,0.861 -2.703,1.292 -4.559,1.292 -2.183,0 -3.895,-0.731 -5.137,-2.191 -1.242,-1.46 -1.863,-3.502 -1.863,-6.126 0,-2.328 0.563,-4.22 1.687,-5.68 1.123,-1.46 2.876,-2.19 5.259,-2.19 2.382,0 4.179,0.875 5.394,2.625 0.761,1.085 1.187,2.237 1.278,3.453 h -3.951 c -0.082,-0.804 -0.313,-1.46 -0.694,-1.965 -0.381,-0.505 -1.025,-0.759 -1.932,-0.759 -1.28,0 -2.15,0.637 -2.613,1.909 -0.255,0.682 -0.381,1.583 -0.381,2.704 0,1.176 0.126,2.118 0.381,2.828 0.481,1.339 1.374,2.008 2.68,2.008 0.917,0 1.593,-0.309 2.029,-0.927 0.299,-0.459 0.485,-0.972 0.557,-1.543 z m 8.711,-6.979 c -1.13,0 -2.001,0.416 -2.613,1.248 -0.61,0.832 -0.916,2.015 -0.916,3.547 0,1.533 0.306,2.713 0.916,3.54 0.612,0.827 1.483,1.24 2.613,1.24 1.131,0 2,-0.413 2.608,-1.24 0.605,-0.827 0.909,-2.007 0.909,-3.54 0,-1.532 -0.304,-2.715 -0.909,-3.547 -0.608,-0.832 -1.477,-1.248 -2.608,-1.248 m 7.577,4.795 c 0,2.207 -0.625,4.119 -1.874,5.736 -1.249,1.619 -3.146,2.428 -5.689,2.428 -2.543,0 -4.439,-0.809 -5.688,-2.428 -1.248,-1.617 -1.873,-3.529 -1.873,-5.736 0,-2.245 0.625,-4.164 1.873,-5.758 1.249,-1.595 3.145,-2.391 5.688,-2.391 2.543,0 4.44,0.796 5.689,2.391 1.249,1.594 1.874,3.513 1.874,5.758 m 18.711,8.01 c -0.977,0 -1.865,-0.211 -2.661,-0.632 -0.751,-0.421 -1.38,-1.081 -1.887,-1.981 -0.289,0.75 -0.715,1.363 -1.276,1.84 -0.697,0.515 -1.611,0.773 -2.743,0.773 -1.194,0 -2.167,-0.299 -2.918,-0.899 -0.425,-0.337 -0.878,-0.904 -1.357,-1.698 v 2.231 h -3.761 V 68.9 h 3.924 v 9.21 c 0,0.832 0.103,1.46 0.312,1.881 0.38,0.739 1.121,1.108 2.226,1.108 0.95,0 1.588,-0.369 1.915,-1.108 0.18,-0.412 0.271,-1.071 0.271,-1.981 V 68.9 h 3.896 v 9.11 c 0,0.685 0.104,1.27 0.312,1.756 0.407,0.917 1.145,1.376 2.213,1.376 0.923,0 1.556,-0.355 1.9,-1.066 0.181,-0.375 0.272,-0.853 0.272,-1.433 V 68.9 h 3.964 l 0.027,9.645 c 0,0.992 -0.045,1.745 -0.135,2.26 -0.146,0.777 -0.426,1.432 -0.842,1.965 -0.517,0.656 -1.091,1.114 -1.725,1.376 -0.632,0.262 -1.275,0.394 -1.927,0.394"
           style="fill:#ffffff;fill-opacity:1;fill-rule:nonzero;stroke:none"
           id="path32" />
        <g
           id="g34"
           transform="translate(48.7393,57.4704)"
           style="fill:#ffffff;fill-opacity:1">
          <path
             d="m 0,0 c 0.958,0 1.747,-0.108 2.365,-0.323 0.716,-0.309 1.073,-0.946 1.073,-1.909 0,-0.871 -0.27,-1.476 -0.811,-1.819 C 2.084,-4.393 1.379,-4.562 0.51,-4.562 H -4.353 V 0 Z m 0.572,-7.989 c 0.859,-0.009 1.526,-0.125 2,-0.35 0.849,-0.403 1.275,-1.142 1.275,-2.219 0,-1.272 -0.439,-2.133 -1.316,-2.583 -0.483,-0.244 -1.158,-0.365 -2.026,-0.365 h -4.858 v 5.517 z M 1.326,3.594 h -9.67 v -20.695 h 9.015 c 1.017,0 1.961,0.094 2.829,0.282 0.867,0.187 1.622,0.533 2.26,1.039 0.568,0.439 1.039,0.983 1.418,1.629 0.593,0.972 0.89,2.073 0.89,3.297 0,1.19 -0.259,2.201 -0.779,3.034 -0.519,0.833 -1.29,1.441 -2.311,1.825 0.672,0.356 1.181,0.749 1.526,1.18 0.617,0.766 0.926,1.782 0.926,3.045 0,1.227 -0.305,2.28 -0.917,3.161 -1.018,1.43 -2.746,2.166 -5.187,2.203 m 9.235,-5.392 v -9.223 c 0,-1.75 0.212,-3.075 0.637,-3.973 0.757,-1.628 2.228,-2.443 4.412,-2.443 0.759,0 1.419,0.103 1.984,0.31 0.564,0.204 1.148,0.588 1.753,1.15 0.198,0.178 0.37,0.384 0.514,0.618 0.144,0.234 0.234,0.375 0.27,0.421 v -2.163 h 3.761 v 15.303 h -3.923 v -8.324 c 0,-0.983 -0.127,-1.774 -0.379,-2.373 -0.486,-1.105 -1.386,-1.656 -2.701,-1.656 -1.027,0 -1.716,0.388 -2.066,1.165 -0.198,0.439 -0.298,1.095 -0.298,1.965 v 9.223 z m 15.46,-10.416 c 0,-1.573 0.555,-2.866 1.666,-3.882 1.111,-1.015 2.832,-1.523 5.162,-1.523 2.286,0 3.974,0.479 5.067,1.438 1.093,0.96 1.64,2.199 1.64,3.714 0,1.151 -0.38,2.111 -1.141,2.878 -0.77,0.758 -1.925,1.324 -3.467,1.699 -2.311,0.524 -3.658,0.893 -4.038,1.109 -0.383,0.206 -0.573,0.538 -0.573,0.997 0,0.365 0.179,0.682 0.538,0.955 0.359,0.27 0.96,0.407 1.804,0.407 1.026,0 1.752,-0.272 2.177,-0.814 0.227,-0.3 0.368,-0.707 0.423,-1.222 h 3.869 c -0.172,1.872 -0.841,3.189 -2.007,3.951 -1.166,0.764 -2.673,1.145 -4.523,1.145 -1.95,0 -3.462,-0.508 -4.537,-1.524 -1.076,-1.014 -1.613,-2.229 -1.613,-3.641 0,-1.2 0.344,-2.117 1.032,-2.753 0.687,-0.646 1.873,-1.185 3.554,-1.614 2.335,-0.571 3.685,-0.974 4.047,-1.208 0.362,-0.235 0.544,-0.576 0.544,-1.025 0,-0.469 -0.225,-0.818 -0.674,-1.053 -0.451,-0.233 -1.058,-0.35 -1.822,-0.35 -1.3,0 -2.192,0.265 -2.673,0.8 -0.272,0.298 -0.45,0.805 -0.532,1.516 z M 45.716,3.721 H 41.793 V 0.029 h 3.923 z m -3.924,-20.822 h 3.923 v 15.303 h -3.923 z m 15.092,15.669 c -1.217,0 -2.221,-0.308 -3.014,-0.927 -0.441,-0.346 -0.911,-0.912 -1.406,-1.699 v 2.233 h -3.747 v -15.276 h 3.869 v 8.284 c 0,0.946 0.126,1.722 0.377,2.331 0.486,1.151 1.38,1.726 2.682,1.726 1.06,0 1.779,-0.392 2.156,-1.179 0.208,-0.43 0.311,-1.048 0.311,-1.853 v -9.309 h 3.964 v 10.306 c 0,1.918 -0.486,3.291 -1.454,4.121 -0.968,0.828 -2.215,1.242 -3.738,1.242 m 14.452,-3.257 c 0.914,0 1.678,-0.276 2.295,-0.826 0.618,-0.549 0.96,-1.355 1.031,-2.417 h -6.666 c 0.141,0.995 0.484,1.786 1.031,2.369 0.546,0.583 1.316,0.874 2.309,0.874 m -0.002,3.298 c -2.168,0 -3.933,-0.706 -5.291,-2.122 -1.359,-1.413 -2.038,-3.447 -2.038,-6.097 0,-2.829 0.752,-4.871 2.258,-6.127 1.505,-1.255 3.243,-1.882 5.212,-1.882 2.386,0 4.242,0.744 5.567,2.232 0.853,0.936 1.331,1.858 1.435,2.766 h -3.951 c -0.231,-0.449 -0.496,-0.801 -0.797,-1.054 -0.55,-0.468 -1.266,-0.701 -2.147,-0.701 -0.832,0 -1.542,0.19 -2.133,0.576 -0.972,0.616 -1.488,1.694 -1.548,3.229 h 10.777 c 0.02,1.321 -0.024,2.334 -0.127,3.037 -0.18,1.2 -0.573,2.254 -1.179,3.163 -0.673,1.031 -1.525,1.786 -2.558,2.265 -1.031,0.477 -2.192,0.715 -3.48,0.715 m 8.181,-10.823 c 0,-1.573 0.554,-2.866 1.666,-3.882 1.111,-1.015 2.831,-1.523 5.162,-1.523 2.285,0 3.973,0.479 5.066,1.438 1.094,0.96 1.64,2.199 1.64,3.714 0,1.151 -0.38,2.111 -1.141,2.878 -0.768,0.758 -1.924,1.324 -3.466,1.699 -2.312,0.524 -3.659,0.893 -4.039,1.109 -0.382,0.206 -0.572,0.538 -0.572,0.997 0,0.365 0.179,0.682 0.538,0.955 0.359,0.27 0.96,0.407 1.803,0.407 1.026,0 1.752,-0.272 2.178,-0.814 0.227,-0.3 0.368,-0.707 0.422,-1.222 h 3.87 c -0.173,1.872 -0.842,3.189 -2.008,3.951 -1.164,0.764 -2.673,1.145 -4.522,1.145 -1.95,0 -3.463,-0.508 -4.538,-1.524 -1.075,-1.014 -1.611,-2.229 -1.611,-3.641 0,-1.2 0.342,-2.117 1.032,-2.753 0.686,-0.646 1.872,-1.185 3.552,-1.614 2.336,-0.571 3.685,-0.974 4.048,-1.208 0.362,-0.235 0.545,-0.576 0.545,-1.025 0,-0.469 -0.226,-0.818 -0.676,-1.053 -0.45,-0.233 -1.057,-0.35 -1.821,-0.35 -1.301,0 -2.191,0.265 -2.674,0.8 -0.272,0.298 -0.449,0.805 -0.531,1.516 z m 14.872,0 c 0,-1.573 0.555,-2.866 1.666,-3.882 1.112,-1.015 2.832,-1.523 5.162,-1.523 2.286,0 3.974,0.479 5.067,1.438 1.093,0.96 1.64,2.199 1.64,3.714 0,1.151 -0.38,2.111 -1.141,2.878 -0.768,0.758 -1.924,1.324 -3.465,1.699 -2.313,0.524 -3.659,0.893 -4.04,1.109 -0.382,0.206 -0.572,0.538 -0.572,0.997 0,0.365 0.179,0.682 0.538,0.955 0.358,0.27 0.959,0.407 1.803,0.407 1.026,0 1.752,-0.272 2.179,-0.814 0.226,-0.3 0.366,-0.707 0.421,-1.222 h 3.87 c -0.173,1.872 -0.842,3.189 -2.008,3.951 -1.164,0.764 -2.673,1.145 -4.523,1.145 -1.95,0 -3.462,-0.508 -4.537,-1.524 -1.075,-1.014 -1.612,-2.229 -1.612,-3.641 0,-1.2 0.345,-2.117 1.032,-2.753 0.688,-0.646 1.872,-1.185 3.553,-1.614 2.337,-0.571 3.685,-0.974 4.049,-1.208 0.362,-0.235 0.544,-0.576 0.544,-1.025 0,-0.469 -0.226,-0.818 -0.676,-1.053 -0.45,-0.233 -1.058,-0.35 -1.821,-0.35 -1.301,0 -2.191,0.265 -2.674,0.8 -0.272,0.298 -0.449,0.805 -0.531,1.516 z m 22.333,1.502 c 0,-2.153 0.754,-3.845 2.263,-5.076 1.51,-1.231 3.582,-1.846 6.216,-1.846 2.58,0 4.576,0.626 5.989,1.874 1.415,1.251 2.121,2.82 2.121,4.711 0,1.843 -0.596,3.252 -1.789,4.226 -0.769,0.627 -1.922,1.127 -3.461,1.502 l -3.511,0.856 c -1.356,0.328 -2.242,0.613 -2.66,0.858 -0.649,0.364 -0.974,0.916 -0.974,1.655 0,0.805 0.33,1.432 0.988,1.881 0.66,0.45 1.541,0.675 2.644,0.675 0.994,0 1.824,-0.173 2.492,-0.52 1.002,-0.523 1.541,-1.409 1.614,-2.652 h 4.019 c -0.073,2.198 -0.863,3.876 -2.37,5.032 -1.509,1.156 -3.329,1.733 -5.464,1.733 -2.556,0 -4.493,-0.613 -5.813,-1.839 -1.319,-1.226 -1.979,-2.765 -1.979,-4.619 0,-2.031 0.675,-3.523 2.023,-4.478 0.797,-0.571 2.259,-1.1 4.389,-1.586 l 2.166,-0.492 c 1.267,-0.281 2.193,-0.603 2.778,-0.968 0.584,-0.375 0.875,-0.904 0.875,-1.587 0,-1.169 -0.595,-1.97 -1.787,-2.401 -0.629,-0.225 -1.447,-0.336 -2.453,-0.336 -1.682,0 -2.869,0.425 -3.563,1.277 -0.379,0.468 -0.632,1.175 -0.763,2.12 z m 31.654,3.426 c -0.218,2.18 -0.918,3.7 -2.1,4.562 -1.181,0.862 -2.701,1.292 -4.558,1.292 -2.184,0 -3.896,-0.731 -5.137,-2.191 -1.242,-1.46 -1.861,-3.502 -1.861,-6.126 0,-2.327 0.561,-4.22 1.684,-5.68 1.124,-1.46 2.877,-2.19 5.259,-2.19 2.383,0 4.181,0.875 5.395,2.625 0.76,1.086 1.186,2.236 1.277,3.453 h -3.95 c -0.082,-0.805 -0.314,-1.46 -0.695,-1.965 -0.38,-0.506 -1.025,-0.759 -1.931,-0.759 -1.28,0 -2.151,0.637 -2.613,1.91 -0.255,0.681 -0.381,1.583 -0.381,2.704 0,1.175 0.126,2.118 0.381,2.828 0.48,1.338 1.374,2.008 2.681,2.008 0.915,0 1.592,-0.31 2.028,-0.927 0.298,-0.459 0.485,-0.973 0.557,-1.544 z m 10.217,5.895 c -0.811,0 -1.584,-0.174 -2.318,-0.526 -0.735,-0.35 -1.38,-0.971 -1.94,-1.859 v 7.299 h -3.868 v -20.624 h 3.868 v 8.294 c 0,1.311 0.263,2.322 0.788,3.028 0.526,0.708 1.296,1.061 2.312,1.061 0.979,0 1.643,-0.356 1.994,-1.067 0.269,-0.507 0.404,-1.172 0.404,-1.996 v -9.32 h 3.951 v 8.995 c 0,1.367 -0.045,2.353 -0.136,2.958 -0.089,0.603 -0.337,1.191 -0.744,1.762 -0.476,0.674 -1.087,1.176 -1.831,1.504 -0.743,0.327 -1.57,0.491 -2.48,0.491 m 14.8,-12.874 c -1.131,0 -2.001,0.416 -2.614,1.248 -0.61,0.831 -0.916,2.015 -0.916,3.547 0,1.533 0.306,2.712 0.916,3.54 0.613,0.827 1.483,1.241 2.614,1.241 1.132,0 2,-0.414 2.607,-1.241 0.606,-0.828 0.91,-2.007 0.91,-3.54 0,-1.532 -0.304,-2.716 -0.91,-3.547 -0.607,-0.832 -1.475,-1.248 -2.607,-1.248 m 7.575,4.795 c 0,2.207 -0.624,4.119 -1.873,5.737 -1.249,1.619 -3.145,2.427 -5.689,2.427 -2.542,0 -4.438,-0.808 -5.687,-2.427 -1.248,-1.618 -1.873,-3.53 -1.873,-5.737 0,-2.245 0.625,-4.164 1.873,-5.758 1.249,-1.594 3.145,-2.391 5.687,-2.391 2.544,0 4.44,0.797 5.689,2.391 1.249,1.594 1.873,3.513 1.873,5.758 m 8.851,-4.795 c -1.13,0 -2.002,0.416 -2.613,1.248 -0.61,0.831 -0.916,2.015 -0.916,3.547 0,1.533 0.306,2.712 0.916,3.54 0.611,0.827 1.483,1.241 2.613,1.241 1.132,0 2.001,-0.414 2.608,-1.241 0.606,-0.828 0.909,-2.007 0.909,-3.54 0,-1.532 -0.303,-2.716 -0.909,-3.547 -0.607,-0.832 -1.476,-1.248 -2.608,-1.248 m 7.577,4.795 c 0,2.207 -0.625,4.119 -1.874,5.737 -1.249,1.619 -3.146,2.427 -5.689,2.427 -2.543,0 -4.439,-0.808 -5.687,-2.427 -1.249,-1.618 -1.874,-3.53 -1.874,-5.737 0,-2.245 0.625,-4.164 1.874,-5.758 1.248,-1.594 3.144,-2.391 5.687,-2.391 2.543,0 4.44,0.797 5.689,2.391 1.249,1.594 1.874,3.513 1.874,5.758 m 6.085,13.064 h -3.868 V -17.1 h 3.868 z"
             style="fill:#ffffff;fill-opacity:1;fill-rule:nonzero;stroke:none"
             id="path36" />
        </g>
      </g>
    </g>
  </g>
</svg>
