<?xml version="1.0" encoding="UTF-8"?><svg id="a" xmlns="http://www.w3.org/2000/svg" viewBox="0 0 647.32 712.83"><defs><style>.h{fill:#802d11;}.i{fill:#fff;}.j{fill:#e27f64;}.k{fill:#f7dd9c;}.l{fill:#5f5d5d;}.m{fill:#2b2b2b;}.n{fill:#676968;}.o{fill:#ca4a18;}.p{fill:#f4b19d;}.q{fill:#f8f8f8;}</style></defs><g id="b"><path class="n" d="M322.53,259.15c-1.08-2.7-1.94-5.52-3.3-8.07-2.35-4.4-5.04-7.87-10.76-9.22-3.66-.86-6.81-4.93-9.63-8.07-14.24-15.85-20.74-35.23-24.3-55.71-2.79-16.01-8.08-30.99-16.74-44.69-2.11-3.33-1.38-4.84,1.65-6.68,12.39-7.53,26.12-11.41,40.09-14.28,29.2-6,56.95-.64,83.6,11.87,.9,.42,1.82,.82,2.68,1.33,5.48,3.26,5.77,3.62,2.34,9.07-10.08,16.01-14.13,33.99-17.79,52.18-4.12,20.49-12.94,38.56-28.32,53.08-.93,.88-2.09,2.08-3.19,2.13-7.34,.35-9.87,5.8-12.37,11.3-.85,1.87-1.52,3.82-2.27,5.74l-1.69,.03h0Z"/><path class="i" d="M288.6,319.88c2.78,4.56,5.94,8.94,8.23,13.73,2.68,5.62,4.99,11.49,6.71,17.47,1.16,4.04,1.17,8.45,1.45,12.71,.52,7.9,5.1,13.76,9.57,19.72,1.68,2.23,2.96,4.89,5.02,6.66,1.18,1.01,4.61,1.49,5.24,.73,5.35-6.43,10.59-13,15.18-19.97,1.69-2.56,2.06-6.33,2.11-9.57,.21-14.24,7.45-26,13.06-38.34,.57-1.25,2.01-2.1,3.05-3.14,9.07-2.9,17.63-6.77,24.48-13.61,3.98-3.98,7.46-8.49,11.67-12.17,1.79-1.56,4.89-1.62,7.4-2.35,.5,2.08,1.5,4.19,1.36,6.23-.18,2.59-1.4,5.08-1.97,7.66-1.57,7.21-3.03,14.44-4.53,21.66-4.53,5.23-9.52,10.13-13.5,15.76-9.05,12.79-18.87,25.28-25.94,39.14-5.5,10.78-7.86,23.32-10.61,35.31-3.42,14.92-8.31,29.13-16.14,42.3-2.16,3.62-12.12,3.25-14.31-.46-8.99-15.26-13.77-31.8-17.09-49.18-3.51-18.4-10.63-35.74-22.69-50.54-8.15-10.01-16.51-19.85-24.75-29.8-.61-.73-.96-1.68-1.43-2.53-1.58-7.55-3.14-15.09-4.74-22.63-.61-2.9-1.64-5.76-1.89-8.68-.36-4.27,3.02-6.2,6.74-3.93,1.35,.82,2.36,2.28,3.4,3.55,9.32,11.43,20.47,20.21,34.9,24.28h.02Z"/><path class="n" d="M288.6,319.88c-14.43-4.07-25.58-12.85-34.9-24.28-1.04-1.27-2.04-2.72-3.4-3.55-3.72-2.27-7.1-.34-6.74,3.93,.25,2.93,1.27,5.78,1.89,8.68,1.6,7.54,3.16,15.09,4.74,22.63-9.23-3.09-9.58-11.24-10.66-18.89-2.67-18.83-11.2-34.85-23.37-49.14-4.3-5.04-8.68-10.02-12.97-15.07-8.09-9.53-10.13-20.31-7.74-32.56,1.51-7.74,2.05-15.79,1.92-23.68-.14-9.06,2.54-16.33,9.35-22.33,8.21-7.23,16.13-14.81,24.27-22.13,3.18-2.86,6.32-4.19,10.27-.39,6.17,5.93,12.91,11.26,19.3,16.98,1.18,1.06,2.28,2.59,2.67,4.1,2.12,8.12,4.01,16.3,5.95,24.38-14.16,2.44-19.66,12.7-22.19,24.3-2.77,12.75,3.82,22.48,13.73,29.93,9.41,7.07,21.34,6.34,34.34-1.76,3.84,2.84,6.73,5.3,5.81,11.53-.82,5.56,1.26,11.7,2.73,17.42,1.11,4.34,1.54,8.16-1.92,11.52-3.42,3.33-7.33,3.2-11.58,1.77-9.16-3.1-14.41-10.34-19.07-18.06-5.16-8.53-10.12-17.07-17.72-23.87-10.56-9.44-27.38-5.52-31.19,7.59-1.66,5.69,2,14.7,8.03,19.11,11.89,8.7,24.38,16.67,35.64,26.11,8.3,6.96,15.05,15.77,22.44,23.81,.37,.41,.26,1.26,.37,1.91h0Z"/><path class="n" d="M396.64,327.3c1.5-7.22,2.96-14.45,4.53-21.66,.56-2.58,1.79-5.08,1.97-7.66,.14-2.04-.87-4.15-1.36-6.23-2.51,.74-5.61,.79-7.4,2.35-4.22,3.68-7.69,8.2-11.67,12.17-6.85,6.84-15.41,10.71-24.48,13.61,2.63-3.93,4.66-8.5,8.02-11.66,8.68-8.15,17.71-15.96,27.04-23.36,7.51-5.96,16.03-10.67,23.4-16.78,5.67-4.7,10.1-11.02,7.93-19.13-3.52-13.18-20.55-17.05-31.11-7.61-7.6,6.79-12.29,15.52-17.82,23.79-3.79,5.68-8.8,10.62-13.68,15.47-1.75,1.74-4.68,2.46-7.19,3.23-3.79,1.16-7.84,.6-9.85-2.77-1.6-2.67-2.6-6.66-1.88-9.58,1.87-7.57,4.38-14.75,2.67-22.9-.45-2.17,3.24-5.2,5.23-8.14,12.46,9.17,24.76,10.17,36.58,1.01,11.3-8.76,16.13-20.27,10.57-34.28-3.55-8.94-8.56-16.96-20.69-18.43,2.28-8.74,3.27-18.24,7.33-26.16,3.11-6.08,10.06-10.21,15.39-15.12,1.69-1.56,3.9-2.62,5.42-4.31,3.68-4.09,7.12-2.58,10.23,.36,10.34,9.8,20.68,19.6,30.62,29.8,1.9,1.95,2.44,5.67,2.72,8.65,1.24,13,2.08,26.03,3.19,39.05,.89,10.4-4.58,18.04-10.8,25.33-9.78,11.48-20.59,22.41-26.28,36.57-4.03,10.02-6.58,20.75-8.71,31.38-1.28,6.43-4.3,10.43-9.93,12.99v.02Z"/><path class="q" d="M380.1,237.54c7.69-16.27,5.05-24.7-8.64-28.87,.62-1.53,1.3-3.02,1.84-4.57,2.25-6.4,8.24-8.1,13-3.33,10.28,10.27,7.55,32.14-6.21,36.77h.01Z"/><path class="q" d="M274.4,207.26c-13.47,6.7-15.75,14.67-8.54,29.83-11.29-4.9-15.43-20.34-8.25-32.14,1.61-2.64,4.3-5.33,7.09-6.38,5.51-2.07,7.35-.09,9.7,8.69h0Z"/><g id="c"><path class="p" d="M309.98,251.72c.83,1.46,2.16,2.85,2.39,4.4,.91,6.19,5.69,11.12,11.15,11.06,5.48-.06,9.96-4.82,10.95-11.25,.23-1.49,1.4-2.83,2.84-3.93,1.87,6.61,1.29,12.73-1.59,18.46-6.25,12.44-7.28,25.56-5.74,39.14,2.25,19.9,4.98,39.85-2.54,59.34-.94,2.45-2.19,4.78-4.67,7.48-1.75-4.27-3.91-8.42-5.19-12.83-4.3-14.93-3.47-30.12-1.6-45.31,2.06-16.72,2.89-33.12-5.25-48.94-2.49-4.83-2.16-11.11-3.13-16.72,.8-.3,1.59-.59,2.39-.89h-.01Z"/><path class="j" d="M308.47,285.87c2.38,6.22,.97,41.36-2.32,51.38-1.51-3.54-2.7-6.65-4.14-9.65-10.72-22.25-28.04-38.29-48.44-51.45-5.42-3.5-10.85-7.04-15.94-10.99-2.68-2.08-5.5-4.73-6.71-7.74-1.14-2.84-1.15-6.85-.04-9.72,1.44-3.71,5.58-4.38,9.33-3.94,9.73,1.13,14.75,8.2,18.94,15.89,5.21,9.56,11.32,18.38,19.67,25.43,6.02,5.08,12.89,8.3,20.93,5.83,3.03-.93,5.64-3.21,8.72-5.04h0Z"/><path class="j" d="M337.96,285.3c2.85,1.92,4.96,3.87,7.46,4.93,8.74,3.7,16.12,.26,22.72-5.26,8.39-7.01,14.39-15.93,19.65-25.45,4.04-7.31,8.69-14.22,18.04-15.56,4.2-.6,8.59-.16,10.19,3.9,1.16,2.93,1.28,7.84-.46,10.01-3.94,4.93-8.93,9.26-14.17,12.84-12.45,8.53-25.27,16.49-35.74,27.58-10.1,10.7-18.86,22.23-23.68,36.35-.26,.76-.73,1.44-1.68,2.13-.33-17.09-6.21-33.9-2.34-51.48h.01Z"/></g><g id="d"><path class="k" d="M244.34,126.87c-6.36-4.4-11.28-8.65-16.9-11.53-12.78-6.56-25.59-13.26-38.97-18.41-21.07-8.11-42.31-16.05-64.01-22.16-32.65-9.2-64.75-6.71-95.89,9.53,4.51-9.2,11.36-15.27,19.63-19.9,10.75-6.02,22.33-8.73,34.64-9.21,34.17-1.32,66.08,7.95,97.29,20.46,26,10.42,47.26,27,64.21,51.21h0Z"/><path class="k" d="M403.5,125.97c12.14-16.81,26.21-31.59,44.74-41.33,26.94-14.18,55.54-23.8,85.66-28.01,17.89-2.5,36.12-3.52,53.64,2.84,12.77,4.64,23.93,11.59,30.01,23.2-10.5-3.32-21.36-7.67-32.63-10.14-23.93-5.24-47.66-3.47-70.82,4.73-21.6,7.64-43.29,15.05-64.73,23.12-16.49,6.21-31.92,14.55-45.87,25.59h0Z"/><path class="k" d="M48.28,137.86c24.3-25.22,53.81-38,89.23-36.33-32.49,5.37-62.48,16.79-89.23,36.33h0Z"/><path class="k" d="M597.91,136.86c-13.41-7.15-27.39-15.43-42.08-22.2-14.69-6.77-30.51-10.46-46.94-12.7,25.4-5.73,81.99,17.27,89.01,34.91h.01Z"/><path class="k" d="M145.3,127.68c-7.88,5.72-14.99,10.5-21.65,15.83-6.49,5.2-12.54,10.96-19.05,16.13,10.27-14.2,21.21-27.55,40.7-31.97h0Z"/><path class="k" d="M541.99,160.47c-12.28-11.8-24.33-23.6-39.85-31.36,.26-.54,.53-1.09,.79-1.63,4.92,2.18,10.22,3.77,14.68,6.65,9.84,6.37,17.74,14.88,24.32,24.57,.29,.42,.05,1.09,.06,1.7v.06h0Z"/></g></g><g id="e"><path class="o" d="M35.74,585c-1.01,9.68-2.5,19.33-2.83,29.03-.17,5.13,1.47,10.39,2.71,15.48,.44,1.81,2.12,3.33,3.24,4.98,.59-1.89,1.63-3.77,1.68-5.68,.2-7.15,.06-14.32,.09-21.48,.05-11.57,2.51-22.69,7.36-33.1,5.88-12.64,15.92-20.79,29.51-24.92,11.02,52.13,22,104.1,33,156.11-29.03,2.88-54.92-3.68-77.95-20.62-11.67-8.59-16.67-20.8-18.96-34.75-3.95-24.04-9.24-47.88-12.47-72-1.76-13.17-1.09-26.8-.38-40.16,1.83-34.3,11.9-66.83,23.09-98.96,8.8-25.27,22.92-47.74,39.43-68.63,12.72-16.1,25.94-31.82,39.4-47.3,7.51-8.64,15.98-16.46,24.32-24.96,2.4,3.55,4.3,6.82,6.64,9.73,12.87,16.06,29.77,25.32,49.77,29.41,15.49,3.17,30.92,6.65,46.42,9.81,3.22,.66,4.75,2.28,4.66,5.34-.28,9.43,5.38,15.22,12.12,20.48,1.17,.91,2.71,2.26,2.79,3.5,1.18,17.35,2.09,34.71,3.18,52.07,.21,3.34-.54,5.9-3.12,8.34-3.35,3.17-2.72,7.47,.91,10.85,3.8,3.54,9.44,3.32,13.44-.54,2.73-2.63,2.34-6.56-.81-10.13-1.03-1.17-2.33-2.62-2.43-4.01-1.15-16.36-2.13-32.72-3.08-49.09-.25-4.4-1-9.13,5.74-9.64,1.62-.12,3.13-1.64,4.89-2.63,11.57,13.03,21,26.99,24.36,44.31,2.94,15.17,7.56,29.74,15.33,43.2,.47,.82,.72,1.77,1.23,3.04h-5.34c-61.78,0-123.55-.07-185.33,.13-5.15,.02-8-1.91-10.2-6.11-4.77-9.07-9.66-18.08-14.55-27.09-.92-1.7-2.07-3.29-3.11-4.93l-1.51,.17c-.15,2.24-1.09,4.82-.31,6.68,3.99,9.6,8.42,19.01,12.71,28.48,.31,.69,.76,1.33,1.53,2.67h-28.99c-7.67,0-13.69,7.27-12.08,14.76,4.41,20.43,8.84,40.86,13.45,61.25,.63,2.79-.15,3.92-2.54,4.75-9.29,3.24-16.89,8.95-23.65,16.01-6.29,6.57-13.48,12.39-19.11,19.46-8.29,10.41-8.91,22.66-5.82,36.6,3.4-3.98,3.44-7.89,4.53-11.45,1.94-6.35,4.28-12.59,6.46-18.87,.19,.14,.39,.28,.58,.43v-.02Z"/><path class="o" d="M611.68,584.56c2.17,6.12,4.47,12.2,6.46,18.37,1.16,3.6,1.83,7.35,2.72,11.04l1.54-.16c.53-1.3,1.39-2.56,1.55-3.9,1.62-13.64-.84-26.3-10.73-36.37-7.89-8.03-16.24-15.67-24.91-22.84-4.11-3.4-9.38-5.46-14.26-7.85-2.25-1.1-3.12-2.03-2.5-4.81,4.6-20.56,8.99-41.17,13.42-61.76,1.49-6.94-4.45-14.23-11.56-14.24h-28.81c4.15-8.6,8.37-16.62,11.89-24.95,1.67-3.96,4.29-8.46,.02-13.45-1.3,2.2-2.44,3.97-3.44,5.82-4.98,9.15-9.86,18.36-14.93,27.46-1.62,2.9-3.51,5.22-7.67,5.21-63.27-.13-126.55-.09-189.83-.1-.8,0-1.61-.09-2.82-.16,1.65-3.53,2.95-6.92,4.75-10.02,7.03-12.09,9.5-25.66,12.58-38.97,3.11-13.47,10.12-24.66,18.4-35.3,1.61-2.07,3.4-3.99,4.94-5.78,3.2,1.23,6.19,2.13,8.91,3.55,.99,.52,1.95,2.29,1.9,3.44-.42,9.42-1.11,18.83-1.66,28.25-.45,7.78-.67,15.58-1.34,23.34-.19,2.23-1.14,4.7-2.52,6.46-2.92,3.72-3.44,7.56-.7,10.18,3.87,3.67,9.54,4.07,13.04,.9,4.06-3.66,4.84-7.92,1.28-11.22-2.83-2.61-3.31-5.42-3.1-8.85,1.05-17.19,1.99-34.39,3.14-51.57,.08-1.15,1.32-2.48,2.37-3.25,7.21-5.32,12.79-11.4,12.76-21.23,0-1.59,2.67-4.19,4.5-4.62,15.4-3.58,30.84-7.03,46.38-9.99,17.51-3.33,32.39-11.49,44.97-23.78,4.32-4.22,7.47-9.63,11.46-14.9,8.26,8.31,16.87,16.51,24.93,25.23,7.52,8.14,14.45,16.83,21.65,25.27,15.91,18.66,30.63,38.14,42.6,59.66,15.69,28.22,23.82,58.98,31.2,90.05,5.11,21.54,8.12,43.36,6.71,65.44-.86,13.44-3.69,26.76-5.87,40.09-2.5,15.28-5.72,30.46-7.79,45.79-2.5,18.57-12.15,31.46-28.1,40.84-21.24,12.5-43.97,16.72-68.87,14.59,11-52.07,21.98-104.04,33.01-156.21,18.63,5.9,28.98,18.77,33.92,37.03,3.67,13.56,2.78,27.28,2.94,41.01,.02,1.5-.21,3.04,.08,4.48,.2,.97,1.1,1.81,1.68,2.7,.75-.72,1.85-1.3,2.21-2.18,4.17-10.05,4.77-20.54,3.42-31.2-.68-5.39-1.66-10.74-2.5-16.11,.19-.15,.39-.29,.59-.44h-.01Z"/><path class="o" d="M453.71,73.56c-24.67,11.67-42.3,29.63-57.61,49.43-48.66-27.54-96.69-27.69-145.37-.01-15.31-19.77-32.92-37.75-56.41-48.85,6.74-6.98,12.82-14.06,19.71-20.23,15.97-14.33,33.72-26.25,52.69-36.23C284.82,8.15,303.87-.41,324.4,.01c13.09,.26,26.43,5.35,38.99,10.05,22.19,8.31,41.9,21.31,60.15,36.32,10.2,8.4,19.68,17.67,30.18,27.18h-.01Z"/><path class="o" d="M229.83,134.3c-9.94,9.25-19.13,17.38-27.84,25.99-22.28,22.01-38.58,47.99-49.3,77.34-4.45,12.2-8.8,24.65-11.05,37.36-1.8,10.19-.36,20.96-.36,30.8-5.87-6.42-9.46-15.43-12.56-24.5-6.57-19.2-8.91-39.2-6.92-59.25,2.6-26.25,9.74-51.34,21.17-75.38,5.11-10.75,12.45-15.72,23.35-17.77,16.83-3.17,33.64-5.48,50.46-.49,4.47,1.33,8.58,3.85,13.05,5.92v-.02Z"/><path class="o" d="M417.11,135.32c7.12-6.33,15.19-8.1,23.73-9.09,17.42-2.03,34.19,.66,50.72,6,3.69,1.19,6.12,3.16,8.03,6.69,10.46,19.35,17.88,39.72,22.2,61.29,5.8,28.97,5.18,57.53-5.44,85.35-2.84,7.43-6.99,14.35-10.54,21.51-.43-.19-.87-.38-1.3-.58,.57-4.13,1.31-8.24,1.68-12.38,1.62-18.15-3.66-34.98-9.98-51.63-9.04-23.84-20.44-46.31-36.79-66.1-12-14.52-25.37-27.6-40.19-39.21-.62-.49-1.19-1.04-2.13-1.86h0Z"/><path class="h" d="M263.35,356.44c-1.87-1.41-3.82-2.74-5.6-4.26-10.34-8.77-22.83-12.31-35.72-15.06-15-3.2-30.12-6.02-44.87-10.16-11.39-3.2-21.36-9.4-26.16-21.18-1.28-3.15-2.02-6.64-2.37-10.05-1.83-17.99,2.53-34.95,9.5-51.27,5.53-12.95,11.69-25.62,17.59-38.4,.41-.88,1.02-1.66,2.81-2.4v7.41c.02,7.75-.73,15.59,.23,23.23,2.02,16.16,6.28,31.8,13.93,46.35,7.06,13.43,17.02,24.28,28.87,33.7,14.88,11.84,30.43,23.06,41.51,38.98,.45,.65,.86,1.32,1.29,1.99-.33,.38-.67,.75-1,1.13h-.01Z"/><path class="h" d="M469.48,203.51c1.73,2.9,3.71,5.67,5.15,8.71,8.71,18.44,17.92,36.86,21.72,56.98,2.02,10.68,2.41,22.29,.5,32.94-2.53,14.16-14.47,21.06-27.28,24.87-11.82,3.51-24.11,5.42-36.16,8.18-8.21,1.88-16.71,3.16-24.45,6.28-7.71,3.11-14.63,8.16-21.87,12.39-1.29,.75-2.47,1.69-3.7,2.53l-1.07-1.12c3.2-4.03,5.95-8.57,9.7-12,10.74-9.84,21.47-19.79,32.99-28.67,19.29-14.87,32.23-33.79,38.12-57.21,2.93-11.62,4.23-23.67,5.98-35.57,.42-2.88-.36-5.93-.45-8.9-.09-3.04-.02-6.09-.02-9.14l.85-.27h0Z"/><path class="h" d="M383.92,365.3c6.67-4.87,12.78-9.34,19.19-14.01,1.58,4.99-.5,10.79-4.06,13.4-5.55,4.06-9.03,4.4-15.12,.61h-.01Z"/><path class="h" d="M243.39,351.05c6.68,4.88,12.87,9.41,19.3,14.12-5.52,5.17-9.93,2.25-14.2-.13-3.97-2.21-6.31-8.05-5.1-13.99Z"/><path class="o" d="M484.16,115.47h-30.77l-.08-1.69c7.88-4.52,16.61-5.94,25.49-5.16,2.1,.18,3.86,4.19,5.77,6.43-.14,.14-.27,.28-.41,.42Z"/><path class="o" d="M162.27,115.05c1.8-5.41,5.34-7.94,11.14-6.71,6.76,1.43,13.52,2.87,20.27,4.3l-.25,1.65c-10.25,.39-20.5,.79-30.75,1.18-.13-.14-.27-.28-.41-.42h0Z"/><path class="o" d="M35.16,584.57l.86-2.14,.62,.24c-.3,.78-.6,1.55-.9,2.33-.19-.15-.38-.29-.58-.43Z"/><path class="o" d="M611.1,585l-.91-2.38,.63-.19c.29,.71,.57,1.43,.86,2.13-.19,.14-.39,.28-.58,.43h0Z"/></g><g id="f"><path class="m" d="M323.35,470.01h245.21c7.72,0,9.43,2.42,7.79,10.09-6.09,28.57-12.06,57.16-18.07,85.75-8.38,39.89-16.76,79.78-25.14,119.67-1.29,6.14-2.63,12.26-3.9,18.4-1.07,5.19-5.49,8.91-10.74,8.91H128.46c-5.25,0-9.77-3.71-10.84-8.8-8.92-42.31-17.85-84.61-26.8-126.92-7-33.09-14.04-66.17-21.04-99.27-1.02-4.8,1.87-7.84,7.37-7.84h246.2Zm34.56,120.08c.45-19.91-.02-25.46-4.6-31.93-6.62-9.35-15.71-15.12-27.21-16.59-9.97-1.27-18.11,3.1-25.52,9.04-13.1,10.49-13.46,24.88-11.18,39.94-1.23,.08-1.87,.14-2.52,.16-7.32,.19-9.69,3-8.5,10.21,3.09,18.69,6.28,37.37,9.27,56.08,.67,4.21,2.64,5.92,6.92,5.89,19.27-.12,38.54-.2,57.8,.03,4.79,.06,6.31-2.03,6.99-6.27,3.05-19.03,6.45-38.01,9.29-57.07,.36-2.44-1.09-5.95-2.92-7.68-1.6-1.52-4.91-1.23-7.81-1.81h0Z"/><g id="g"><path class="l" d="M363.3,597.13c-1.54,9.28-3.03,18.22-4.5,27.16-1.48,8.99-3.07,17.96-4.34,26.97-.61,4.33-2.29,5.99-7.01,5.89-16.35-.33-32.71-.19-49.07-.05-3.4,.03-4.86-.8-5.45-4.48-2.63-16.69-5.62-33.32-8.53-49.96-.77-4.38,.39-6.07,5.34-6.06,18.43,.05,36.86-.55,55.29-.65,5.91-.03,11.83,.73,18.26,1.16v.02Zm-40.7,53.79c1.82,0,3.65,.01,5.47,0,4.95-.05,5.69-.99,4.49-5.97-1-4.17-1.88-8.39-3.22-12.45-1.21-3.65-1.2-6.4,2.03-9.28,1.68-1.5,2.92-4.76,2.61-6.98-.99-7.16-11.56-10.98-17.46-6.67-4.52,3.29-6,10.09-2.22,13.39,3.99,3.49,3.45,6.99,2,11.12-.82,2.33-1.43,4.75-1.91,7.17-1.92,9.66-1.89,9.67,8.21,9.68h0Z"/><path class="l" d="M303.98,589.4c-8.58,1.88-9.55,1.22-9.64-7.03-.05-3.97-.22-8.03,.47-11.91,2.39-13.49,11.12-19.17,24.97-23.22,8.42-2.46,24.13,5.37,29.08,13.96,4.69,8.13,4.63,17.2,2.91,26.15-.95,4.95-5.01,1.98-7.96,2.62-.49-4.83-.87-9.38-1.43-13.91-.77-6.3-4.64-10.89-8.88-15.14-4.55-4.56-14.96-4.44-20.01,.21-8.56,7.88-10.85,17.37-9.51,28.28h0Z"/><path class="m" d="M338.52,589.19h-28.73c-.83-7.99-.78-15.41,5.04-21.59,8.15-8.66,16.31-3.67,19.95,3.99,2.37,4.98,2.45,11.06,3.74,17.6h0Z"/></g></g></svg>