<?xml version="1.0" encoding="UTF-8" standalone="no"?>
<!DOCTYPE svg PUBLIC "-//W3C//DTD SVG 1.1//EN" "http://www.w3.org/Graphics/SVG/1.1/DTD/svg11.dtd">
<svg width="100%" height="100%" viewBox="0 0 378 539" version="1.1" xmlns="http://www.w3.org/2000/svg" xmlns:xlink="http://www.w3.org/1999/xlink" xml:space="preserve" xmlns:serif="http://www.serif.com/" style="fill-rule:evenodd;clip-rule:evenodd;stroke-linejoin:round;stroke-miterlimit:2;">
    <g transform="matrix(1,0,0,1,0,-112.759)">
        <g id="Artboard2" transform="matrix(0.772212,0,0,0.864177,617.183,54.1529)">
            <rect x="-799.24" y="67.817" width="488.941" height="622.947" style="fill:none;"/>
            <g>
                <g transform="matrix(1.12588,0,0,1.00606,-5210.87,-1940.26)">
                    <path d="M4194.62,2155.37C4196.25,2156.25 4198.2,2156.24 4199.83,2155.37C4201.45,2154.49 4202.52,2152.85 4202.68,2151.01C4206.79,2098.97 4151.95,2033.71 4100.25,2000.02C4099.58,1999.59 4098.69,1999.73 4098.18,2000.35C4097.67,2000.96 4097.69,2001.85 4098.23,2002.44C4111.53,2017.1 4139.26,2048.76 4161.51,2081.52C4161.95,2082.18 4161.84,2083.05 4161.25,2083.58C4160.66,2084.11 4159.78,2084.13 4159.17,2083.63C4148.27,2074.61 4128.49,2058.91 4110.15,2047.7C4109.47,2047.31 4108.6,2047.48 4108.11,2048.1C4107.62,2048.72 4107.67,2049.61 4108.21,2050.18C4120.15,2062.32 4141.52,2085.09 4150.11,2100.82C4150.4,2101.42 4150.28,2102.13 4149.82,2102.61C4149.37,2103.08 4148.66,2103.22 4148.06,2102.97C4142.21,2100.51 4130.87,2096 4120.75,2093.54C4120.05,2093.39 4119.34,2093.74 4119.01,2094.37C4118.68,2095.01 4118.82,2095.79 4119.35,2096.27C4131.64,2107.44 4168.06,2139.78 4194.62,2155.37Z" style="fill:rgb(255,193,40);"/>
                </g>
                <g transform="matrix(1.12588,0,0,1.00606,-5164.19,-1958.98)">
                    <path d="M4112.19,2149.02L4124.41,2142.13C4126.66,2140.87 4129.41,2140.89 4131.64,2142.18L4197.72,2180.53L4181.52,2189.65L4169.33,2182.79C4167.63,2180.88 4165.79,2179.09 4163.81,2177.45C4154.87,2170.05 4139.69,2159.47 4118.26,2151.21C4117.1,2150.76 4115.91,2150.32 4114.71,2149.88C4114.71,2149.88 4114.69,2149.89 4114.66,2149.89C4113.89,2149.62 4113.05,2149.32 4112.19,2149.02Z" style="fill:rgb(0,81,106);"/>
                </g>
                <g transform="matrix(-1.52982,0.769666,-2.51493e-18,2.59069,6318.45,-9299.4)">
                    <path d="M4371.79,2430.93C4372.57,2430.93 4373.06,2431.23 4373.06,2431.7C4373.06,2435.72 4373.06,2454.3 4373.06,2458.61C4373.06,2458.79 4372.87,2459.02 4372.57,2459.2C4372.27,2459.39 4371.89,2459.5 4371.59,2459.5C4367.95,2459.5 4358.6,2459.5 4355.19,2459.5C4354.4,2459.5 4353.92,2459.2 4353.92,2458.73C4353.92,2454.71 4353.92,2436.13 4353.92,2431.82C4353.92,2431.64 4354.1,2431.41 4354.41,2431.23C4354.71,2431.05 4355.08,2430.93 4355.39,2430.93C4359.02,2430.93 4368.38,2430.93 4371.79,2430.93Z" style="fill:rgb(135,191,255);"/>
                </g>
                <g transform="matrix(-1.27785,0.642895,5.11323e-17,1.18059,5191.33,-5455.85)">
                    <path d="M4371.54,2430.93C4372.48,2430.93 4373.06,2431.58 4373.06,2432.62C4373.06,2437.6 4373.06,2452.23 4373.06,2457.54C4373.06,2457.95 4372.84,2458.45 4372.47,2458.85C4372.11,2459.25 4371.66,2459.5 4371.3,2459.5C4367.57,2459.5 4358.94,2459.5 4355.44,2459.5C4354.5,2459.5 4353.92,2458.85 4353.92,2457.81L4353.92,2432.89C4353.92,2432.48 4354.14,2431.99 4354.5,2431.58C4354.87,2431.18 4355.31,2430.93 4355.68,2430.93C4359.41,2430.93 4368.04,2430.93 4371.54,2430.93Z" style="fill:rgb(0,81,106);"/>
                </g>
                <g transform="matrix(-1.27785,0.642895,4.41422e-17,1.30972,5118.24,-5838.05)">
                    <path d="M4371.54,2430.93C4372.48,2430.93 4373.06,2431.51 4373.06,2432.45C4373.06,2437.33 4373.06,2452.54 4373.06,2457.74C4373.06,2458.1 4372.84,2458.55 4372.47,2458.91C4372.11,2459.27 4371.66,2459.5 4371.3,2459.5C4367.57,2459.5 4358.94,2459.5 4355.44,2459.5C4354.5,2459.5 4353.92,2458.92 4353.92,2457.98C4353.92,2453.11 4353.92,2437.89 4353.92,2432.7C4353.92,2432.33 4354.14,2431.88 4354.5,2431.52C4354.87,2431.16 4355.31,2430.93 4355.68,2430.93C4359.41,2430.93 4368.04,2430.93 4371.54,2430.93Z" style="fill:rgb(135,191,255);"/>
                </g>
                <g transform="matrix(-1.00649,0.506373,3.81279e-17,0.969531,4048.82,-4383.52)">
                    <path d="M4371.13,2430.93C4372.32,2430.93 4373.06,2431.72 4373.06,2432.99L4373.06,2457.12C4373.06,2457.61 4372.78,2458.22 4372.32,2458.71C4371.86,2459.2 4371.29,2459.5 4370.82,2459.5C4367.03,2459.5 4359.42,2459.5 4355.85,2459.5C4354.66,2459.5 4353.92,2458.71 4353.92,2457.44L4353.92,2433.31C4353.92,2432.82 4354.2,2432.21 4354.66,2431.72C4355.12,2431.23 4355.69,2430.93 4356.15,2430.93C4359.94,2430.93 4367.56,2430.93 4371.13,2430.93Z" style="fill:rgb(135,191,255);"/>
                </g>
                <g transform="matrix(-0.851428,0.428361,-8.10549e-18,1.56574,3317.67,-5432.29)">
                    <path d="M4370.78,2430.93C4372.19,2430.93 4373.06,2431.42 4373.06,2432.2L4373.06,2458.02C4373.06,2458.33 4372.73,2458.7 4372.18,2459.01C4371.64,2459.31 4370.97,2459.5 4370.42,2459.5C4366.64,2459.5 4359.76,2459.5 4356.2,2459.5C4354.79,2459.5 4353.92,2459.01 4353.92,2458.23L4353.92,2432.41C4353.92,2432.1 4354.25,2431.73 4354.8,2431.42C4355.34,2431.12 4356.01,2430.93 4356.56,2430.93C4360.34,2430.93 4367.21,2430.93 4370.78,2430.93Z" style="fill:rgb(135,191,255);"/>
                </g>
                <g transform="matrix(-0.627129,0.315514,-4.66498e-17,1.90475,2411.25,-5714.42)">
                    <path d="M4369.96,2430.93C4371.88,2430.93 4373.06,2431.33 4373.06,2431.98C4373.06,2436.4 4373.06,2453.56 4373.06,2458.29C4373.06,2458.54 4372.61,2458.85 4371.87,2459.1C4371.13,2459.34 4370.22,2459.5 4369.47,2459.5C4365.88,2459.5 4360.42,2459.5 4357.02,2459.5C4355.1,2459.5 4353.92,2459.1 4353.92,2458.45C4353.92,2454.03 4353.92,2436.87 4353.92,2432.14C4353.92,2431.89 4354.37,2431.59 4355.11,2431.34C4355.85,2431.09 4356.76,2430.93 4357.51,2430.93C4361.1,2430.93 4366.56,2430.93 4369.96,2430.93Z" style="fill:rgb(0,81,106);"/>
                </g>
                <g transform="matrix(-0.607747,0.305762,1.05408e-17,0.816013,2226.68,-3144)">
                    <path d="M4369.86,2430.93C4371.84,2430.93 4373.06,2431.87 4373.06,2433.37C4373.06,2438.64 4373.06,2451.07 4373.06,2456.67C4373.06,2457.26 4372.59,2457.97 4371.83,2458.56C4371.07,2459.14 4370.12,2459.5 4369.36,2459.5C4365.8,2459.5 4360.49,2459.5 4357.11,2459.5C4355.14,2459.5 4353.92,2458.57 4353.92,2457.06C4353.92,2451.79 4353.92,2439.36 4353.92,2433.76C4353.92,2433.17 4354.39,2432.45 4355.15,2431.87C4355.91,2431.29 4356.85,2430.93 4357.62,2430.93C4361.18,2430.93 4366.49,2430.93 4369.86,2430.93Z" style="fill:rgb(0,81,106);"/>
                </g>
                <g transform="matrix(-0.786103,0.395495,3.14902e-18,1.24919,2709.47,-4605.01)">
                    <path d="M4370.59,2430.93C4372.11,2430.93 4373.06,2431.54 4373.06,2432.53C4373.06,2437.45 4373.06,2452.4 4373.06,2457.65C4373.06,2458.03 4372.7,2458.5 4372.11,2458.88C4371.52,2459.26 4370.79,2459.5 4370.2,2459.5L4356.39,2459.5C4354.86,2459.5 4353.92,2458.89 4353.92,2457.9C4353.92,2452.98 4353.92,2438.03 4353.92,2432.78C4353.92,2432.4 4354.28,2431.93 4354.87,2431.55C4355.46,2431.17 4356.19,2430.93 4356.78,2430.93L4370.59,2430.93Z" style="fill:rgb(0,81,106);"/>
                </g>
                <g transform="matrix(-1.0199,0.513119,3.7117e-17,2.23091,3697.41,-7410.71)">
                    <path d="M4371.16,2430.93C4372.33,2430.93 4373.06,2431.27 4373.06,2431.83C4373.06,2436.04 4373.06,2453.95 4373.06,2458.46C4373.06,2458.68 4372.78,2458.94 4372.33,2459.15C4371.87,2459.37 4371.31,2459.5 4370.85,2459.5C4367.07,2459.5 4359.39,2459.5 4355.82,2459.5C4354.65,2459.5 4353.92,2459.16 4353.92,2458.61C4353.92,2454.39 4353.92,2436.48 4353.92,2431.97C4353.92,2431.75 4354.2,2431.49 4354.65,2431.28C4355.11,2431.06 4355.67,2430.93 4356.12,2430.93C4359.91,2430.93 4367.59,2430.93 4371.16,2430.93Z" style="fill:rgb(0,81,106);"/>
                </g>
                <g transform="matrix(-1.55762,0.783654,2.66815e-16,1.46624,6029.23,-6755.3)">
                    <path d="M4371.81,2430.93C4372.58,2430.93 4373.06,2431.45 4373.06,2432.29C4373.06,2437.03 4373.06,2452.86 4373.06,2457.92C4373.06,2458.25 4372.88,2458.65 4372.58,2458.97C4372.28,2459.3 4371.91,2459.5 4371.61,2459.5C4367.99,2459.5 4358.57,2459.5 4355.16,2459.5C4354.4,2459.5 4353.92,2458.98 4353.92,2458.14C4353.92,2453.39 4353.92,2437.57 4353.92,2432.51C4353.92,2432.18 4354.1,2431.78 4354.4,2431.46C4354.7,2431.13 4355.06,2430.93 4355.36,2430.93C4358.99,2430.93 4368.41,2430.93 4371.81,2430.93Z" style="fill:rgb(135,191,255);"/>
                </g>
                <g transform="matrix(-1.85743,0.93449,2.57063e-16,1.46624,7332.71,-7294.55)">
                    <path d="M4372.01,2430.93C4372.66,2430.93 4373.06,2431.45 4373.06,2432.29C4373.06,2437.03 4373.06,2452.86 4373.06,2457.92C4373.06,2458.25 4372.91,2458.65 4372.66,2458.97C4372.41,2459.3 4372.1,2459.5 4371.85,2459.5C4368.35,2459.5 4358.25,2459.5 4354.96,2459.5C4354.32,2459.5 4353.92,2458.98 4353.92,2458.14C4353.92,2453.39 4353.92,2437.57 4353.92,2432.51C4353.92,2432.18 4354.07,2431.78 4354.32,2431.46C4354.57,2431.13 4354.88,2430.93 4355.13,2430.93C4358.63,2430.93 4368.73,2430.93 4372.01,2430.93Z" style="fill:rgb(135,191,255);"/>
                </g>
                <g transform="matrix(-0.473972,0.23846,-9.75691e-17,2.59069,1657.15,-7007.64)">
                    <path d="M4368.96,2430.93C4371.49,2430.93 4373.06,2431.23 4373.06,2431.7C4373.06,2435.72 4373.06,2454.3 4373.06,2458.61C4373.06,2458.79 4372.46,2459.02 4371.48,2459.2C4370.5,2459.39 4369.3,2459.5 4368.31,2459.5C4365.15,2459.5 4361.03,2459.5 4358.02,2459.5C4355.48,2459.5 4353.92,2459.2 4353.92,2458.73C4353.92,2454.71 4353.92,2436.13 4353.92,2431.82C4353.92,2431.64 4354.52,2431.41 4355.5,2431.23C4356.47,2431.05 4357.68,2430.93 4358.67,2430.93C4361.83,2430.93 4365.94,2430.93 4368.96,2430.93Z" style="fill:rgb(0,81,106);"/>
                </g>
                <g transform="matrix(0.984802,0,0,0.88,-4741.37,-1611.7)">
                    <path d="M4061.1,2282.49C4063.64,2285.29 4063.44,2289.63 4060.64,2292.18C4057.85,2294.73 4053.5,2294.53 4050.95,2291.73C4045.04,2285.24 4041.43,2276.6 4041.43,2267.13C4041.43,2246.97 4057.8,2230.59 4077.97,2230.59C4079.14,2230.59 4082.12,2230.82 4082.57,2230.82C4090.21,2230.82 4096.41,2224.62 4096.41,2216.98C4096.41,2213.2 4099.49,2210.12 4103.27,2210.12C4107.06,2210.12 4110.13,2213.2 4110.13,2216.98C4110.13,2232.19 4097.78,2244.54 4082.57,2244.54C4082.12,2244.54 4079.14,2244.31 4077.97,2244.31C4065.38,2244.31 4055.15,2254.54 4055.15,2267.13C4055.15,2273.05 4057.4,2278.44 4061.1,2282.49Z" style="fill:rgb(255,193,40);"/>
                </g>
                <g transform="matrix(1.12588,0,0,1.00606,-5321.66,-1886.73)">
                    <path d="M4107.24,2246.56C4110.16,2248.11 4111.28,2251.74 4109.73,2254.67C4108.18,2257.6 4104.54,2258.71 4101.62,2257.16C4088.11,2250 4078.9,2235.79 4078.9,2219.45C4078.9,2195.91 4098.01,2176.79 4121.56,2176.79C4124.87,2176.79 4127.56,2179.48 4127.56,2182.79C4127.56,2186.1 4124.87,2188.79 4121.56,2188.79C4104.64,2188.79 4090.9,2202.53 4090.9,2219.45C4090.9,2231.2 4097.52,2241.41 4107.24,2246.56Z" style="fill:rgb(0,81,106);"/>
                </g>
                <g transform="matrix(0.984802,0,0,0.88,-4741.37,-1611.7)">
                    <path d="M4096.98,2193.49C4104.87,2198.34 4110.13,2207.05 4110.13,2216.98C4110.13,2220.77 4107.06,2223.84 4103.27,2223.84C4099.49,2223.84 4096.41,2220.77 4096.41,2216.98C4096.41,2211.98 4093.75,2207.59 4089.76,2205.16C4081.14,2200.48 4075.29,2191.35 4075.29,2180.86C4075.29,2165.71 4088.27,2153.38 4102.63,2153.25C4104.44,2153.14 4113.72,2152.89 4123.64,2158.54C4126.94,2160.41 4128.09,2164.6 4126.22,2167.89C4124.35,2171.18 4120.16,2172.33 4116.86,2170.46C4109.9,2166.51 4103.51,2166.94 4103.51,2166.94C4103.31,2166.95 4103.11,2166.96 4102.91,2166.96C4095.61,2166.96 4089.01,2173.19 4089.01,2180.86C4089.01,2186.2 4092.02,2190.83 4096.43,2193.16C4096.62,2193.26 4096.8,2193.37 4096.98,2193.49Z" style="fill:rgb(255,193,40);"/>
                </g>
                <g transform="matrix(1.12588,0,0,1.00606,-5320.18,-1886.2)">
                    <path d="M4239.73,2554.64C4236.54,2556.43 4232.65,2556.43 4229.46,2554.64C4197.82,2536.83 4030.72,2442.74 4030.72,2442.74C4027.8,2441.1 4025.85,2438.15 4025.47,2434.82C4024.07,2420.01 4020.7,2375.54 4024.68,2319.82C4025.48,2308.87 4030.23,2298.58 4038.05,2290.87C4053.27,2275.85 4082.3,2250.48 4121.08,2231.26C4121.08,2231.26 4127.54,2167.41 4146.93,2121.22C4150.09,2113.68 4155.03,2107.01 4161.32,2101.78C4172.01,2092.88 4191.69,2079.41 4220.4,2070.88C4229.62,2068.11 4239.46,2068.11 4248.69,2070.88C4277.4,2079.41 4297.12,2092.88 4307.84,2101.76C4314.16,2107 4319.12,2113.69 4322.3,2121.26C4341.65,2167.46 4348.11,2231.26 4348.11,2231.26C4386.89,2250.48 4415.91,2275.85 4431.15,2290.86C4438.97,2298.57 4443.72,2308.86 4444.52,2319.82C4448.49,2375.54 4445.12,2420.01 4443.71,2434.82C4443.33,2438.15 4441.38,2441.1 4438.46,2442.74C4421.71,2452.17 4363.13,2485.16 4313.03,2513.36L4309.14,2515.56C4309.09,2515.58 4309.05,2515.61 4309,2515.64C4308.84,2515.73 4308.68,2515.82 4308.51,2515.91C4304.43,2518.14 4299.11,2519.41 4293.54,2519.38C4289.07,2519.35 4284.45,2518.49 4280.17,2516.62C4279.45,2516.3 4278.73,2515.95 4278.03,2515.58C4273.27,2519.51 4268.27,2522.31 4268.27,2522.31C4268.77,2534.85 4252.87,2546.7 4242.74,2552.94C4241.63,2553.57 4240.63,2554.13 4239.73,2554.64Z" style="fill:rgb(203,73,11);"/>
                </g>
                <g transform="matrix(1.12588,0,0,1.00606,-5319.62,-2735.95)">
                    <path d="M4120.52,3075.93C4120.49,3083.29 4125.44,3087.42 4126.3,3088.13C4127.05,3088.76 4127.72,3089.21 4127.73,3089.21C4128.48,3090.18 4128.5,3090.26 4128.52,3090.37C4128.69,3091.09 4128.68,3091.13 4128.28,3091.76C4127.3,3093.3 4125.65,3092.28 4125.46,3092.16C4119.27,3088.35 4116.75,3082.89 4115.95,3078.24C4117.46,3077.46 4118.98,3076.69 4120.52,3075.93Z"/>
                </g>
                <g transform="matrix(1.12588,0,0,1.00606,-5320.18,-1886.2)">
                    <path d="M4296.66,2455.51C4296.7,2455.49 4296.74,2455.46 4296.78,2455.44L4403.21,2395.52C4405.03,2392.56 4405.64,2391.31 4405.22,2385.66C4410.57,2388.95 4413.16,2394.16 4413.16,2399.62C4413.16,2399.68 4413.16,2399.75 4413.16,2399.82L4413.41,2452.93C4413.44,2458.42 4410.49,2463.49 4405.71,2466.19L4309.14,2520.56C4309.09,2520.58 4309.05,2520.61 4309,2520.64C4308.84,2520.73 4308.68,2520.82 4308.51,2520.91C4304.43,2523.14 4299.11,2524.41 4293.54,2524.38L4293.24,2461.69C4290.69,2456.75 4286.43,2453.6 4288.18,2454.6C4290.81,2456.1 4292.91,2457.59 4296.66,2455.51Z" style="fill:rgb(255,193,40);"/>
                </g>
                <g transform="matrix(-10.0591,5.0608,3.06395e-17,9.61707,43395.8,-45058.2)">
                    <path d="M4353.92,2436.76L4353.92,2439.46C4353.92,2441.07 4354.84,2442.06 4356.34,2442.06L4373.06,2442.06C4373.06,2438.15 4373.06,2434.58 4373.06,2432.65C4373.06,2431.63 4372.64,2430.87 4371.89,2430.52C4370.29,2429.79 4367.13,2428.7 4362.73,2428.89C4362.23,2428.91 4361.76,2428.94 4361.31,2428.98L4353.92,2436.76Z" style="fill:white;"/>
                </g>
                <g transform="matrix(1.12588,0,0,1.00606,-5320.18,-1886.2)">
                    <path d="M4293.28,2469.59L4293.54,2524.38C4288.16,2524.35 4282.55,2523.11 4277.6,2520.34L4200.85,2477.13L4199.87,2414.47C4199.87,2414.4 4199.87,2414.33 4199.87,2414.27C4199.87,2405.81 4202.35,2402.66 4209.85,2399.99C4206.05,2406.75 4211.7,2407.96 4214.99,2411.35L4289,2452.93C4291.68,2452.04 4295.8,2451.58 4302.09,2452.45C4296.22,2455.92 4293.29,2459.84 4293.29,2469.11C4293.29,2469.28 4293.29,2469.44 4293.28,2469.59Z"/>
                </g>
                <g transform="matrix(1.12588,0,0,1.00606,-5312.12,-1854.72)">
                    <path d="M4111.67,2115.97C4128.02,2125.14 4177.66,2154.03 4177.66,2154.03L4176.43,2168.11L4124.5,2138.76C4122.49,2147.95 4120.91,2155.32 4120.91,2155.32L4105.98,2147.01C4105.1,2146.52 4104.45,2145.69 4104.19,2144.72C4103.38,2141.14 4101.71,2131.45 4103.63,2118.18C4103.64,2118.14 4103.64,2118.1 4103.65,2118.06C4103.68,2117.85 4103.74,2117.64 4103.81,2117.43C4104.93,2113.57 4107.78,2110.71 4111.09,2109.12C4109.73,2111.26 4109.47,2112.28 4111.67,2115.97Z"/>
                </g>
                <g transform="matrix(1.12588,0,0,1.00606,-5320.18,-1886.2)">
                    <path d="M4194.62,2155.37C4196.25,2156.25 4198.2,2156.24 4199.83,2155.37C4201.45,2154.49 4202.52,2152.85 4202.68,2151.01C4206.79,2098.97 4151.95,2033.71 4100.25,2000.02C4099.58,1999.59 4098.69,1999.73 4098.18,2000.35C4097.67,2000.96 4097.69,2001.85 4098.23,2002.44C4111.53,2017.1 4139.26,2048.76 4161.51,2081.52C4161.95,2082.18 4161.84,2083.05 4161.25,2083.58C4160.66,2084.11 4159.78,2084.13 4159.17,2083.63C4148.27,2074.61 4128.49,2058.91 4110.15,2047.7C4109.47,2047.31 4108.6,2047.48 4108.11,2048.1C4107.62,2048.72 4107.67,2049.61 4108.21,2050.18C4120.15,2062.32 4141.52,2085.09 4150.11,2100.82C4150.4,2101.42 4150.28,2102.13 4149.82,2102.61C4149.37,2103.08 4148.66,2103.22 4148.06,2102.97C4142.21,2100.51 4130.87,2096 4120.75,2093.54C4120.05,2093.39 4119.34,2093.74 4119.01,2094.37C4118.68,2095.01 4118.82,2095.79 4119.35,2096.27C4131.64,2107.44 4168.06,2139.78 4194.62,2155.37Z" style="fill:rgb(255,193,40);"/>
                </g>
                <g transform="matrix(-0.921107,0.463417,-1.51424e-18,0.79511,3555.17,-3529.78)">
                    <path d="M4370.95,2430.93C4372.25,2430.93 4373.06,2431.89 4373.06,2433.44C4373.06,2438.72 4373.06,2450.98 4373.06,2456.6C4373.06,2457.2 4372.75,2457.93 4372.25,2458.53C4371.74,2459.13 4371.12,2459.5 4370.62,2459.5C4366.83,2459.5 4359.6,2459.5 4356.03,2459.5C4354.72,2459.5 4353.92,2458.54 4353.92,2456.99C4353.92,2451.71 4353.92,2439.45 4353.92,2433.84C4353.92,2433.23 4354.23,2432.49 4354.73,2431.9C4355.23,2431.3 4355.85,2430.93 4356.36,2430.93C4360.15,2430.93 4367.38,2430.93 4370.95,2430.93Z" style="fill:rgb(0,81,106);"/>
                </g>
                <g transform="matrix(-0.676861,0.340535,-1.11272e-18,0.622323,2416.22,-2567)">
                    <path d="M4370.19,2430.93C4371.96,2430.93 4373.06,2432.16 4373.06,2434.13C4373.06,2439.46 4373.06,2450.14 4373.06,2455.79C4373.06,2456.56 4372.64,2457.5 4371.95,2458.26C4371.27,2459.03 4370.43,2459.5 4369.73,2459.5C4366.07,2459.5 4360.25,2459.5 4356.79,2459.5C4355.02,2459.5 4353.92,2458.27 4353.92,2456.3C4353.92,2450.97 4353.92,2440.29 4353.92,2434.64C4353.92,2433.87 4354.34,2432.93 4355.02,2432.16C4355.71,2431.4 4356.55,2430.93 4357.24,2430.93C4360.9,2430.93 4366.72,2430.93 4370.19,2430.93Z" style="fill:rgb(135,191,255);"/>
                </g>
                <g transform="matrix(0.424664,0,0,0.379472,-2273.12,-321.542)">
                    <path d="M4453.15,2444.48L4453.09,2382.56C4453.08,2376.07 4456.58,2370.08 4462.23,2366.89L4479.6,2357.11C4482.16,2355.67 4485.31,2355.69 4487.85,2357.18C4490.4,2358.66 4491.97,2361.39 4491.97,2364.34L4492.03,2422.59L4453.15,2444.48ZM4390.82,2479.57L4390.75,2417.65C4390.74,2411.16 4394.24,2405.17 4399.9,2401.99L4417.26,2392.21C4419.83,2390.76 4422.97,2390.79 4425.52,2392.27C4428.07,2393.76 4429.63,2396.48 4429.64,2399.43L4429.7,2457.68L4390.82,2479.57ZM4328.5,2514.66L4328.43,2452.74C4328.42,2446.25 4331.92,2440.26 4337.58,2437.08L4354.94,2427.3C4357.51,2425.85 4360.65,2425.88 4363.2,2427.36C4365.74,2428.85 4367.31,2431.57 4367.31,2434.52L4367.38,2492.77L4328.5,2514.66Z"/>
                </g>
                <g transform="matrix(0.857724,-0.431528,0,0.766445,-4190.04,563.079)">
                    <circle cx="4347.14" cy="2488.5" r="8.13"/>
                </g>
                <g transform="matrix(0.857724,-0.431528,0,0.766445,-4190.04,585.308)">
                    <circle cx="4347.14" cy="2488.5" r="8.13"/>
                </g>
                <g transform="matrix(1.12588,0,0,1.00606,-5320.18,-1886.2)">
                    <path d="M4243.75,2250.76C4229.01,2242.52 4233.21,2204.58 4269.22,2182.32C4277.73,2176.42 4291.78,2179.91 4300.74,2186.05C4313.44,2194.76 4386.44,2239.93 4380.22,2285.11C4380.22,2285.11 4375.64,2286.75 4369.42,2286.42C4369.42,2286.42 4363.16,2296.87 4340.61,2292.64C4324.89,2289.7 4288.28,2276.03 4243.75,2250.76Z" style="fill:rgb(255,193,40);"/>
                </g>
                <g transform="matrix(1.18434,0,0,1.05831,-5571.82,-2004.16)">
                    <path d="M4239.26,2231.63C4239.4,2229.9 4239.67,2228.1 4240.06,2226.26C4265.97,2247.13 4338.81,2280.84 4366.53,2285.03C4366.41,2285.02 4366.3,2285.02 4366.18,2285.01C4366.18,2285.01 4365.31,2286.46 4363.05,2288.02C4334.05,2282.54 4267.19,2252.47 4239.26,2231.63Z"/>
                </g>
                <g transform="matrix(1.12588,0,0,1.00606,-5312.12,-1888.37)">
                    <path d="M4197.72,2180.53L4181.52,2189.65C4181.52,2189.65 4130.08,2160.62 4111.32,2150.03C4109.95,2149.25 4109.1,2147.8 4109.1,2146.23C4109.11,2144.65 4109.95,2143.2 4111.33,2142.43C4121.13,2136.91 4138.16,2127.32 4138.16,2127.32C4135.82,2133.99 4132.64,2142.76 4132.64,2142.76L4197.72,2180.53Z" style="fill:rgb(0,81,106);"/>
                </g>
                <g transform="matrix(1.12588,0.566437,-1.5014,0.755369,-1551.54,-3738.09)">
                    <path d="M4279.66,2417.75C4281.77,2417.75 4284.39,2418.75 4286.53,2420.35C4288.68,2421.96 4290,2423.93 4290,2425.5C4290,2444.69 4290,2493.67 4290,2505.2C4290,2506.73 4288.76,2507.66 4286.73,2507.66C4274.11,2507.66 4228.36,2507.66 4207.63,2507.66C4205.53,2507.66 4202.9,2506.66 4200.76,2505.06C4198.62,2503.45 4197.29,2501.48 4197.29,2499.91C4197.29,2480.72 4197.29,2431.74 4197.29,2420.21C4197.29,2418.68 4198.53,2417.75 4200.57,2417.75C4213.18,2417.75 4258.93,2417.75 4279.66,2417.75Z"/>
                </g>
                <g transform="matrix(1.12588,0.566437,-1.5014,0.755369,-1551.54,-3738.09)">
                    <path d="M4279.17,2424.18C4279.63,2424.18 4280.2,2424.4 4280.67,2424.75C4281.14,2425.1 4281.43,2425.53 4281.43,2425.87C4281.43,2436.56 4281.43,2494.5 4281.43,2500.69C4281.43,2501.03 4281.16,2501.23 4280.71,2501.23C4273.86,2501.23 4219.88,2501.23 4208.12,2501.23C4207.66,2501.23 4207.09,2501.01 4206.62,2500.66C4206.15,2500.31 4205.87,2499.88 4205.87,2499.54C4205.87,2488.85 4205.87,2430.91 4205.87,2424.72C4205.87,2424.39 4206.14,2424.18 4206.58,2424.18C4213.43,2424.18 4267.42,2424.18 4279.17,2424.18Z" style="fill:rgb(135,191,255);"/>
                </g>
                <g transform="matrix(0.822192,0.413652,-0.748833,0.376744,-2129.57,-2150.54)">
                    <path d="M4276.22,2424.18C4277.27,2424.18 4278.6,2424.91 4279.68,2426.1C4280.76,2427.29 4281.43,2428.74 4281.43,2429.9C4281.43,2445.8 4281.43,2489.92 4281.43,2499.41C4281.43,2500.54 4280.8,2501.23 4279.77,2501.23C4270.66,2501.23 4226.38,2501.23 4211.08,2501.23C4210.02,2501.23 4208.69,2500.49 4207.61,2499.31C4206.53,2498.12 4205.87,2496.67 4205.87,2495.51C4205.87,2479.62 4205.87,2435.49 4205.87,2426C4205.87,2424.87 4206.49,2424.18 4207.52,2424.18C4216.63,2424.18 4260.92,2424.18 4276.22,2424.18Z" style="fill:white;"/>
                </g>
                <g transform="matrix(0.0741359,0.0372984,-0.392615,0.197528,166.311,-111.396)">
                    <path d="M4287.77,2444.63C4283.73,2445.03 4281.52,2445.8 4281.52,2446.83C4281.43,2454.61 4281.43,2488.6 4281.43,2498.51C4281.43,2500.2 4275.97,2501.23 4267.03,2501.23C4254.84,2501.23 4237.28,2501.23 4224.11,2501.23C4220.4,2501.23 4215.76,2500.79 4211.98,2500.07C4208.2,2499.36 4205.87,2498.49 4205.87,2497.78C4205.87,2488.01 4205.87,2460.12 4205.87,2449.59C4205.86,2447.6 4197.61,2445.05 4185.72,2443.35C4165.56,2440.63 4152.73,2436.42 4152.73,2431.7C4152.73,2423.37 4192.67,2416.61 4241.87,2416.61C4291.06,2416.61 4331,2423.37 4331,2431.7C4331,2437.18 4313.66,2441.99 4287.77,2444.63Z"/>
                </g>
                <g transform="matrix(-0.645237,0.324624,3.2834e-17,0.907914,2356.02,-3086.7)">
                    <path d="M4370.05,2430.93C4371.91,2430.93 4373.06,2431.77 4373.06,2433.13C4373.06,2438.33 4373.06,2451.41 4373.06,2456.95C4373.06,2457.48 4372.62,2458.13 4371.9,2458.65C4371.18,2459.18 4370.3,2459.5 4369.57,2459.5C4365.95,2459.5 4360.36,2459.5 4356.93,2459.5C4355.07,2459.5 4353.92,2458.66 4353.92,2457.3C4353.92,2452.1 4353.92,2439.01 4353.92,2433.47C4353.92,2432.95 4354.36,2432.3 4355.08,2431.78C4355.8,2431.25 4356.68,2430.93 4357.41,2430.93C4361.02,2430.93 4366.62,2430.93 4370.05,2430.93Z" style="fill:rgb(135,191,255);"/>
                </g>
                <g transform="matrix(0.924972,0.465361,-0.797905,0.401433,-2568.03,-2502.55)">
                    <path d="M4374.85,2446.88C4374.85,2450.96 4371.52,2452.26 4367.41,2449.79C4363.3,2447.32 4359.96,2442.01 4359.96,2437.93L4359.96,2422.74C4359.96,2409.67 4370.32,2398.75 4383.39,2398.75C4391.41,2398.75 4398.8,2402.76 4404.06,2408.02C4410.11,2414.07 4414.54,2422.46 4414.54,2431.69L4414.54,2446.88C4414.54,2450.96 4411.2,2452.26 4407.09,2449.79C4402.99,2447.32 4399.65,2442.01 4399.65,2437.93L4399.65,2422.74C4399.65,2421.16 4399.6,2419.81 4398.72,2418.62C4398.08,2417.74 4397.16,2417.34 4396.13,2416.92C4394.57,2416.29 4392.89,2416 4391.11,2416C4382.28,2416 4374.85,2422.86 4374.85,2431.69L4374.85,2446.88Z" style="fill:white;"/>
                </g>
                <g transform="matrix(1.12588,0,0,1.00606,-5320.18,-1886.2)">
                    <path d="M4060.6,2390.06C4110.53,2342.65 4158.45,2335.59 4173.58,2336.1C4188.71,2336.6 4237.09,2341.18 4285.02,2389.11C4296.95,2401.04 4275.89,2408.14 4260.76,2398.9C4245.63,2389.65 4216.48,2379.76 4216.48,2379.76L4223.34,2392.39C4223.34,2392.39 4213.57,2397.89 4206.82,2401.69C4202.93,2403.88 4200.53,2408.01 4200.55,2412.48C4200.59,2419.83 4200.64,2430.13 4200.64,2430.13C4200.64,2430.13 4181.53,2438.44 4169.46,2445.6C4169.46,2445.6 4153.23,2440.32 4143.8,2430.14C4143.8,2430.14 4128.71,2435.42 4118.9,2465.22" style="fill:rgb(203,73,11);"/>
                    <g transform="matrix(1,0,0,1,0,-844.47)">
                        <path d="M4199.1,3199.68C4199.33,3199.23 4200.79,3196.45 4202.15,3195.48C4203.32,3194.64 4205.75,3194.08 4206.68,3193.88C4206.79,3193.86 4206.89,3193.84 4206.99,3193.82C4207.02,3193.81 4207.04,3193.81 4207.05,3193.81C4207.05,3193.81 4207.05,3193.81 4207.06,3193.81C4209.04,3193.52 4209.68,3195.02 4208.47,3196.7C4207.44,3198.39 4206.55,3199.57 4205.98,3200.09C4204.89,3201.07 4202.54,3201.67 4201.24,3202C4200.09,3202.51 4198.24,3201.2 4199.1,3199.68Z"/>
                    </g>
                    <g transform="matrix(1.05176,-0.117952,0.117952,1.05176,-612.341,-499.399)">
                        <path d="M4199.1,3199.68C4199.33,3199.23 4200.79,3196.45 4202.15,3195.48C4203.32,3194.64 4205.75,3194.08 4206.68,3193.88C4206.79,3193.86 4206.89,3193.84 4206.99,3193.82C4207.02,3193.81 4207.04,3193.81 4207.05,3193.81C4207.05,3193.81 4207.05,3193.81 4207.06,3193.81C4209.04,3193.52 4209.68,3195.02 4208.47,3196.7C4207.44,3198.39 4206.55,3199.57 4205.98,3200.09C4204.89,3201.07 4202.54,3201.67 4201.24,3202C4200.09,3202.51 4198.24,3201.2 4199.1,3199.68Z"/>
                    </g>
                    <g transform="matrix(1.02438,-0.265999,0.265999,1.02438,-986.661,228.554)">
                        <path d="M4199.1,3199.68C4199.33,3199.23 4200.79,3196.45 4202.15,3195.48C4203.32,3194.64 4205.75,3194.08 4206.68,3193.88C4206.79,3193.86 4206.89,3193.84 4206.99,3193.82C4207.02,3193.81 4207.04,3193.81 4207.05,3193.81C4207.05,3193.81 4207.05,3193.81 4207.06,3193.81C4209.04,3193.52 4209.68,3195.02 4208.47,3196.7C4207.44,3198.39 4206.55,3199.57 4205.98,3200.09C4204.89,3201.07 4202.54,3201.67 4201.24,3202C4200.09,3202.51 4198.24,3201.2 4199.1,3199.68Z"/>
                    </g>
                    <g transform="matrix(1,0,0,1,-1.33648,-1.83765)">
                        <path d="M4199.9,2341.24C4189.2,2338.94 4178.32,2338.25 4173.51,2338.09C4158.57,2337.6 4111.3,2344.68 4061.98,2391.51C4061.18,2392.27 4059.91,2392.24 4059.15,2391.44C4058.39,2390.64 4058.43,2389.37 4059.23,2388.61C4109.77,2340.62 4158.33,2333.59 4173.64,2334.1C4178.5,2334.26 4189.38,2334.95 4200.18,2337.21C4200.02,2338.55 4199.92,2339.89 4199.9,2341.24Z"/>
                    </g>
                    <path d="M4139.02,2430.51C4130.22,2428.84 4124.53,2426.03 4120.56,2422.18C4115.92,2417.68 4113.53,2411.72 4111.4,2404.22C4111.1,2403.16 4111.72,2402.05 4112.78,2401.75C4113.85,2401.45 4114.95,2402.07 4115.25,2403.13C4117.16,2409.86 4119.18,2415.27 4123.34,2419.3C4129.72,2425.48 4140.92,2428.34 4163.4,2428.34C4164.5,2428.34 4165.4,2429.24 4165.4,2430.34C4165.4,2431.44 4164.5,2432.34 4163.4,2432.34C4157.75,2432.34 4152.78,2432.14 4148.38,2431.76C4157.55,2439.65 4170.08,2443.7 4170.08,2443.7C4171.12,2444.04 4171.7,2445.17 4171.36,2446.22C4171.02,2447.27 4169.89,2447.85 4168.84,2447.51C4168.84,2447.51 4153.2,2442.39 4143.35,2432.55C4139.82,2434.43 4128.64,2442.05 4120.8,2465.85C4120.46,2466.89 4119.33,2467.47 4118.28,2467.12C4117.23,2466.78 4116.66,2465.64 4117,2464.6C4123.97,2443.43 4133.61,2434.22 4139.02,2430.51ZM4190.76,2434.87C4191.11,2435.92 4190.55,2437.05 4189.51,2437.41C4188.46,2437.77 4187.33,2437.21 4186.97,2436.16C4186.97,2436.16 4182.05,2421.75 4171.43,2410.59C4170.67,2409.8 4170.7,2408.53 4171.5,2407.77C4172.3,2407.01 4173.56,2407.04 4174.32,2407.84C4185.56,2419.63 4190.76,2434.87 4190.76,2434.87ZM4205.3,2405.49C4205.91,2406.41 4205.66,2407.65 4204.74,2408.26C4203.83,2408.88 4202.58,2408.63 4201.97,2407.71C4199.52,2404.03 4196.63,2400.26 4193.29,2396.75C4192.53,2395.95 4192.56,2394.68 4193.36,2393.92C4194.16,2393.16 4195.42,2393.19 4196.19,2393.99C4199.69,2397.68 4202.73,2401.64 4205.3,2405.49Z"/>
                    <g transform="matrix(1,0,0,1,2.13106,-0.358335)">
                        <path d="M4214.35,2380.12L4209.13,2371.63C4208.55,2370.69 4208.85,2369.45 4209.79,2368.88C4210.73,2368.3 4211.96,2368.59 4212.54,2369.53L4220.36,2382.25C4216.77,2380.95 4214.47,2380.16 4214.35,2380.12Z"/>
                    </g>
                </g>
                <g transform="matrix(-0.732354,0.368453,-1.20394e-18,1.64721,2709.47,-5163.64)">
                    <path d="M4370.41,2430.93C4372.05,2430.93 4373.06,2431.39 4373.06,2432.14C4373.06,2436.75 4373.06,2453.18 4373.06,2458.1C4373.06,2458.39 4372.67,2458.74 4372.04,2459.03C4371.41,2459.32 4370.62,2459.5 4369.99,2459.5C4366.27,2459.5 4360.08,2459.5 4356.57,2459.5C4354.93,2459.5 4353.92,2459.03 4353.92,2458.29C4353.92,2453.68 4353.92,2437.25 4353.92,2432.33C4353.92,2432.04 4354.31,2431.69 4354.94,2431.4C4355.57,2431.11 4356.35,2430.93 4356.99,2430.93C4360.71,2430.93 4366.89,2430.93 4370.41,2430.93Z" style="fill:rgb(135,191,255);"/>
                </g>
                <g transform="matrix(-0.427444,0.215051,7.36064e-18,1.11036,1455.85,-3163.56)">
                    <path d="M4368.52,2430.93C4371.32,2430.93 4373.06,2431.62 4373.06,2432.73C4373.06,2437.77 4373.06,2452.05 4373.06,2457.42C4373.06,2457.85 4372.39,2458.38 4371.31,2458.81C4370.23,2459.23 4368.89,2459.5 4367.79,2459.5C4364.87,2459.5 4361.26,2459.5 4358.46,2459.5C4355.65,2459.5 4353.92,2458.81 4353.92,2457.7C4353.92,2452.66 4353.92,2438.38 4353.92,2433.01C4353.92,2432.58 4354.58,2432.05 4355.67,2431.62C4356.75,2431.2 4358.09,2430.93 4359.18,2430.93C4362.11,2430.93 4365.72,2430.93 4368.52,2430.93Z" style="fill:rgb(0,81,106);"/>
                </g>
                <g transform="matrix(-0.892068,0.448807,8.05727e-17,1.80903,3512.4,-5884.78)">
                    <path d="M4370.88,2430.93C4372.23,2430.93 4373.06,2431.35 4373.06,2432.03C4373.06,2436.52 4373.06,2453.43 4373.06,2458.22C4373.06,2458.49 4372.74,2458.81 4372.22,2459.07C4371.7,2459.34 4371.06,2459.5 4370.54,2459.5C4366.75,2459.5 4359.67,2459.5 4356.1,2459.5C4354.75,2459.5 4353.92,2459.08 4353.92,2458.4C4353.92,2453.91 4353.92,2437.01 4353.92,2432.21C4353.92,2431.94 4354.24,2431.62 4354.76,2431.36C4355.28,2431.09 4355.92,2430.93 4356.44,2430.93C4360.23,2430.93 4367.31,2430.93 4370.88,2430.93Z" style="fill:rgb(135,191,255);"/>
                </g>
                <g transform="matrix(-0.630717,0.317319,-2.10031e-17,1.04977,2200.53,-3433.92)">
                    <path d="M4369.98,2430.93C4371.88,2430.93 4373.06,2431.66 4373.06,2432.83C4373.06,2437.92 4373.06,2451.87 4373.06,2457.3C4373.06,2457.76 4372.61,2458.31 4371.87,2458.77C4371.14,2459.22 4370.23,2459.5 4369.49,2459.5C4365.9,2459.5 4360.41,2459.5 4357,2459.5C4355.1,2459.5 4353.92,2458.77 4353.92,2457.6C4353.92,2452.51 4353.92,2438.56 4353.92,2433.13C4353.92,2432.68 4354.37,2432.12 4355.1,2431.66C4355.84,2431.21 4356.75,2430.93 4357.49,2430.93C4361.08,2430.93 4366.57,2430.93 4369.98,2430.93Z" style="fill:rgb(0,81,106);"/>
                </g>
                <g transform="matrix(1.12588,0,0,1.00606,-5320.18,-1886.2)">
                    <path d="M4286.2,2483.31C4286.18,2478.86 4284.62,2474.56 4281.78,2471.14C4266.11,2452.22 4222.19,2431.27 4206.57,2428.92C4205.46,2428.78 4204.34,2428.75 4203.22,2428.84C4193.6,2429.72 4178.92,2434.45 4156.85,2453.07C4156.85,2453.07 4145.41,2469.39 4147.9,2502.48C4148.2,2506.53 4150.51,2510.16 4154.05,2512.15C4169.58,2520.93 4213.85,2545.85 4229.24,2554.51C4232.66,2556.44 4236.85,2556.42 4240.25,2554.45C4249.98,2548.75 4268.82,2535.94 4268.27,2522.31C4268.27,2522.31 4284.55,2513.21 4286.3,2504.76C4286.3,2504.76 4286.24,2492.61 4286.2,2483.31Z" style="fill:rgb(203,73,11);"/>
                    <g transform="matrix(0.998881,-0.0473015,0.0473015,0.998881,-152.257,-643.116)">
                        <path d="M4168.66,3307.23C4167.38,3306.13 4168.37,3304.47 4169.78,3304.54C4169.79,3304.54 4169.79,3304.54 4169.79,3304.54C4169.81,3304.54 4169.82,3304.55 4169.83,3304.55C4169.87,3304.55 4169.91,3304.56 4169.95,3304.56C4177.52,3305.44 4176.95,3305.6 4182.47,3310.19C4183.63,3311.09 4182.79,3313.33 4181.23,3312.86C4173.85,3311.6 4174.96,3312.14 4168.75,3307.32C4168.72,3307.29 4168.69,3307.26 4168.66,3307.23Z"/>
                    </g>
                    <g transform="matrix(0.998895,0.046989,-0.046989,0.998895,184.847,-1025.14)">
                        <path d="M4168.66,3307.23C4167.38,3306.13 4168.37,3304.47 4169.78,3304.54C4169.79,3304.54 4169.79,3304.54 4169.79,3304.54C4169.81,3304.54 4169.82,3304.55 4169.83,3304.55C4169.87,3304.55 4169.91,3304.56 4169.95,3304.56C4177.52,3305.44 4176.95,3305.6 4182.47,3310.19C4183.63,3311.09 4182.79,3313.33 4181.23,3312.86C4173.85,3311.6 4174.96,3312.14 4168.75,3307.32C4168.72,3307.29 4168.69,3307.26 4168.66,3307.23Z"/>
                    </g>
                    <g transform="matrix(0.986105,0.16612,-0.16612,0.986105,657.163,-1465.91)">
                        <path d="M4168.66,3307.23C4167.38,3306.13 4168.37,3304.47 4169.78,3304.54C4169.79,3304.54 4169.79,3304.54 4169.79,3304.54C4169.81,3304.54 4169.82,3304.55 4169.83,3304.55C4169.87,3304.55 4169.91,3304.56 4169.95,3304.56C4177.52,3305.44 4176.95,3305.6 4182.47,3310.19C4183.63,3311.09 4182.79,3313.33 4181.23,3312.86C4173.85,3311.6 4174.96,3312.14 4168.75,3307.32C4168.72,3307.29 4168.69,3307.26 4168.66,3307.23Z"/>
                    </g>
                    <path d="M4146.35,2507.85C4142.75,2478.01 4150.67,2460.04 4153.82,2454.17C4153.84,2454.15 4153.85,2454.12 4153.86,2454.1C4154.74,2452.61 4155.87,2451.28 4157.2,2450.17C4179.96,2431.27 4194.91,2425.26 4204.49,2424.69C4205.59,2424.63 4206.54,2425.47 4206.6,2426.57C4206.67,2427.67 4205.82,2428.62 4204.72,2428.68C4195.59,2429.22 4181.46,2435.21 4159.75,2453.25C4158.79,2454.05 4157.97,2455.01 4157.32,2456.11C4154.19,2461.96 4146.39,2480.12 4150.71,2510.3L4146.35,2507.85Z"/>
                    <g transform="matrix(1,0,0,1,2.20818,1.05608)">
                        <path d="M4265.64,2525.44C4261.26,2526.88 4257.31,2527.42 4256.5,2527.53C4253.43,2527.95 4251.2,2527.96 4250.63,2527.96C4250.03,2527.97 4250,2527.97 4249.57,2527.56C4249.12,2527.14 4249.1,2526.62 4249.1,2526.53C4249.08,2525.94 4249.09,2525.91 4249.5,2525.47C4250.05,2524.88 4250.15,2525.04 4250.96,2524.98C4258.91,2524.39 4265.57,2521.4 4266.99,2520.72C4266.4,2521.07 4266.06,2521.26 4266.06,2521.26C4266.12,2522.66 4265.97,2524.06 4265.64,2525.44Z"/>
                    </g>
                    <path d="M4170.75,2521.57C4170.38,2519.7 4170.44,2518.13 4170.47,2517.75L4170.47,2491.32C4170.47,2490.21 4171.36,2489.32 4172.47,2489.32C4173.57,2489.32 4174.47,2490.21 4174.47,2491.32L4174.47,2517.82C4174.47,2517.87 4174.47,2517.92 4174.46,2517.98C4174.46,2517.98 4174.3,2519.96 4174.99,2522C4175.39,2523.2 4176.09,2524.45 4177.42,2525.19C4177.64,2525.31 4177.82,2525.46 4177.97,2525.64C4175.48,2524.24 4173.06,2522.88 4170.75,2521.57Z"/>
                    <g transform="matrix(1,0,0,1,28.101,15.8494)">
                        <path d="M4170.75,2521.57C4170.38,2519.7 4170.44,2518.13 4170.47,2517.75L4170.47,2491.32C4170.47,2490.21 4171.36,2489.32 4172.47,2489.32C4173.57,2489.32 4174.47,2490.21 4174.47,2491.32L4174.47,2517.82C4174.47,2517.87 4174.47,2517.92 4174.46,2517.98C4174.46,2517.98 4174.3,2519.96 4174.99,2522C4175.39,2523.2 4176.09,2524.45 4177.42,2525.19C4177.64,2525.31 4177.82,2525.46 4177.97,2525.64C4175.48,2524.24 4173.06,2522.88 4170.75,2521.57Z"/>
                    </g>
                    <g transform="matrix(1,0,0,1,58.0707,30.5571)">
                        <path d="M4172.23,2524.49C4170.33,2521.36 4170.43,2518.32 4170.47,2517.74L4170.47,2491.32C4170.47,2490.21 4171.36,2489.32 4172.47,2489.32C4173.57,2489.32 4174.47,2490.21 4174.47,2491.32L4174.47,2517.82C4174.47,2517.88 4174.46,2517.94 4174.46,2518C4174.46,2518 4174.12,2522.41 4178.47,2525.23C4176.38,2525.58 4174.21,2525.34 4172.23,2524.49Z"/>
                    </g>
                </g>
                <g transform="matrix(0.273114,0.137406,-2.3101,1.16223,4004.48,-3172.01)">
                    <path d="M4281.43,2424.18L4281.43,2501.23L4205.87,2501.23L4205.87,2424.18L4281.43,2424.18Z" style="fill:rgb(0,81,106);"/>
                </g>
                <g transform="matrix(1.12588,0,0,1.00606,-7166.26,-2705.9)">
                    <path d="M5923.82,2994.37C5922.62,2994.22 5921.4,2994.48 5920.36,2995.1C5915.43,2998.03 5900.7,3006.84 5900.7,3006.84C5896.23,3009.52 5892.64,3013.45 5890.37,3018.14L5874.03,3051.97L5844.02,3057.41L5835.21,3030.98L5826.12,3035.38L5828.32,3010.95L5986.41,2921.94L5988.55,2940.68L5978.91,2947.84L5970.93,2985L5949.65,3007.02C5945.54,3004.22 5942.31,3002.11 5940.42,3000.82C5938.14,2999.25 5935.53,2997.86 5932.77,2996.76C5928.93,2995.34 5925.73,2994.67 5923.82,2994.37Z" style="fill:rgb(135,191,255);"/>
                </g>
                <g transform="matrix(1.12588,0,0,1.00606,-7166.26,-2705.9)">
                    <path d="M5809.99,3000.63L5828.32,3010.95L5826.12,3035.38L5807.79,3025.07L5809.99,3000.63Z"/>
                </g>
                <g transform="matrix(1.12588,0,0,1.00606,-7166.26,-2705.9)">
                    <path d="M5820.78,3032.38L5825.69,3047.09L5844.02,3057.41L5835.21,3030.98L5826.12,3035.38L5820.78,3032.38Z"/>
                </g>
                <g transform="matrix(-0.473193,0.238068,-1.64096e-17,1.0901,1500.38,-3358.49)">
                    <path d="M4418.91,2418.24C4419.53,2417.4 4418.75,2416.79 4417.07,2416.79C4401.23,2416.79 4324.74,2416.79 4295.74,2416.79C4294.2,2416.79 4292.29,2417.3 4291.01,2418.05C4289.72,2418.8 4289.37,2419.61 4290.14,2420.05C4291.32,2420.74 4292.47,2421.41 4293.35,2421.93C4294.39,2422.54 4296.07,2422.87 4298.16,2422.87C4314.91,2422.87 4392.26,2422.87 4411.32,2422.87C4412.37,2422.87 4413.62,2422.63 4414.74,2422.22C4415.86,2421.8 4416.73,2421.26 4417.11,2420.73C4417.71,2419.91 4418.38,2418.99 4418.91,2418.24ZM4410.16,2430.35C4410.77,2429.51 4409.99,2428.9 4408.31,2428.9C4395.12,2428.9 4340.32,2428.9 4316.45,2428.9C4314.92,2428.9 4313,2429.41 4311.72,2430.15C4310.44,2430.9 4310.09,2431.71 4310.85,2432.16C4312.03,2432.85 4313.18,2433.52 4314.06,2434.03C4315.1,2434.64 4316.78,2434.97 4318.87,2434.97C4332.67,2434.97 4386.91,2434.97 4402.56,2434.97C4403.61,2434.97 4404.86,2434.73 4405.98,2434.32C4407.11,2433.91 4407.98,2433.36 4408.36,2432.84C4408.95,2432.01 4409.62,2431.09 4410.16,2430.35ZM4401.56,2442.23C4402.17,2441.39 4401.4,2440.78 4399.72,2440.78C4389.51,2440.78 4354.86,2440.78 4336.79,2440.78C4335.25,2440.78 4333.34,2441.29 4332.06,2442.03C4330.77,2442.78 4330.42,2443.59 4331.19,2444.04C4332.36,2444.73 4333.51,2445.4 4334.4,2445.91C4335.44,2446.53 4337.12,2446.85 4339.21,2446.85C4349.59,2446.85 4382.23,2446.85 4393.96,2446.85C4395.01,2446.85 4396.27,2446.61 4397.39,2446.2C4398.51,2445.79 4399.38,2445.24 4399.76,2444.72C4400.35,2443.9 4401.02,2442.97 4401.56,2442.23Z"/>
                </g>
                <g transform="matrix(3.48974,0.101113,-1.17863,3.03118,-17695.4,-9316.22)">
                    <path d="M5939.11,2974.82C5937.04,2973.88 5935.56,2971.28 5935.56,2968.21C5935.56,2964.36 5937.9,2961.24 5940.79,2961.24C5941.43,2961.24 5942.05,2961.39 5942.62,2961.68L5942.62,2961.67L5948.43,2964.32C5948.57,2964.37 5945.8,2977.85 5945.3,2977.62L5939.1,2974.83L5939.11,2974.82Z"/>
                </g>
                <g transform="matrix(2.08348,0.0603675,-0.703676,1.8097,-10778.8,-5442.75)">
                    <path d="M5939.11,2974.82C5937.04,2973.88 5935.56,2971.28 5935.56,2968.21C5935.56,2964.36 5937.9,2961.24 5940.79,2961.24C5941.43,2961.24 5942.05,2961.39 5942.62,2961.68L5942.62,2961.67L5948.43,2964.32C5948.57,2964.37 5945.8,2977.85 5945.3,2977.62L5939.1,2974.83L5939.11,2974.82Z"/>
                </g>
                <g transform="matrix(3.48974,0.101113,-1.17863,3.03118,-17677.3,-9307.14)">
                    <ellipse cx="5940.79" cy="2968.21" rx="5.23" ry="6.973" style="fill:rgb(135,191,255);"/>
                </g>
                <g transform="matrix(2.08348,0.0603675,-0.703676,1.8097,-10768,-5437.32)">
                    <ellipse cx="5940.79" cy="2968.21" rx="5.23" ry="6.973" style="fill:white;"/>
                </g>
                <g transform="matrix(1.70677,0.0494527,-0.576447,1.48249,-8871.56,-4403.2)">
                    <ellipse cx="5940.79" cy="2968.21" rx="5.23" ry="6.973" style="fill:rgb(0,81,106);"/>
                </g>
                <g transform="matrix(1.01899,0.0295246,-0.344155,0.88509,-5510.75,-2509.54)">
                    <ellipse cx="5940.79" cy="2968.21" rx="5.23" ry="6.973" style="fill:rgb(203,73,11);"/>
                </g>
            </g>
        </g>
    </g>
</svg>
